<?xml version="1.0" encoding="UTF-8"?>
<svg width="900px" height="150px" viewBox="0 0 900 150" version="1.1" xmlns="http://www.w3.org/2000/svg" xmlns:xlink="http://www.w3.org/1999/xlink">
    <!-- Generator: Sketch 64 (93537) - https://sketch.com -->
    <title>camera-delegate</title>
    <desc>Created with Sketch.</desc>
    <g id="camera-delegate" stroke="none" stroke-width="1" fill="none" fill-rule="evenodd">
        <g id="Arrow" transform="translate(566.000000, 54.000000)">
            <polyline id="Shape" stroke="#000000" points="129.837325 25.2095178 140 21 129.837325 16.7904822"></polyline>
            <line x1="0" y1="21" x2="140" y2="21" id="Shape" stroke="#000000"></line>
            <text id="tap-location-in-map" fill="#000000" font-family="ArialMT, Arial" font-size="13" font-weight="normal">
                <tspan x="14.9387207" y="12.5">tap location in map</tspan>
            </text>
        </g>
        <g id="Arrow" transform="translate(194.000000, 54.000000)">
            <polyline id="Shape" stroke="#000000" points="129.837325 25.2095178 140 21 129.837325 16.7904822"></polyline>
            <line x1="0" y1="21" x2="140" y2="21" id="Shape" stroke="#000000"></line>
            <text id="user-tapped" fill="#000000" font-family="ArialMT, Arial" font-size="13" font-weight="normal">
                <tspan x="35.5" y="12.5">user tapped</tspan>
            </text>
        </g>
        <g id="Class3" transform="translate(706.000000, 35.000000)">
            <path d="M10,0 L150,0 C156.666667,0 160,3.33333333 160,10 L160,70 C160,76.6666667 156.666667,80 150,80 L10,80 C3.33333333,80 0,76.6666667 0,70 L0,10 C0,3.33333333 3.33333333,0 10,0 Z" id="Shape" stroke="#000000" fill="#FFFFFF"></path>
            <line x1="0" y1="25" x2="160" y2="25" id="Shape" stroke="#000000"></line>
            <text id="SKTilemap" fill="#000000" font-family="Helvetica" font-size="13" font-weight="normal">
                <tspan x="48.9489746" y="21">SKTilemap</tspan>
            </text>
        </g>
        <g id="Class2" transform="translate(334.000000, 35.000000)">
            <path d="M10,0 L222,0 C228.666667,0 232,3.33333333 232,10 L232,70 C232,76.6666667 228.666667,80 222,80 L10,80 C3.33333333,80 0,76.6666667 0,70 L0,10 C0,3.33333333 3.33333333,0 10,0 Z" id="Shape" stroke="#000000" fill="#FFFFFF"></path>
            <line x1="0" y1="25" x2="232" y2="25" id="Shape" stroke="#000000"></line>
            <text id="SKTiledSceneCameraDelegate" fill="#000000" font-family="Helvetica" font-size="12" font-weight="normal">
                <tspan x="33.3408203" y="20">SKTiledSceneCameraDelegate</tspan>
            </text>
        </g>
        <g id="Class1" transform="translate(34.000000, 35.000000)">
            <path d="M10,0 L150,0 C156.666667,0 160,3.33333333 160,10 L160,70 C160,76.6666667 156.666667,80 150,80 L10,80 C3.33333333,80 0,76.6666667 0,70 L0,10 C0,3.33333333 3.33333333,0 10,0 Z" id="Shape" stroke="#000000" fill="#FFFFFF"></path>
            <line x1="0" y1="25" x2="160" y2="25" id="Shape" stroke="#000000"></line>
            <text id="SKScene" fill="#000000" font-family="Helvetica" font-size="13" font-weight="normal">
                <tspan x="53.3986816" y="21">SKScene</tspan>
            </text>
        </g>
    </g>
</svg>