<?xml version="1.0" encoding="UTF-8"?>
<svg width="520px" height="212px" viewBox="0 0 520 212" version="1.1" xmlns="http://www.w3.org/2000/svg" xmlns:xlink="http://www.w3.org/1999/xlink">
    <title>coord-conversion-horiz</title>
    <g id="coord-conversion-horiz" stroke="none" stroke-width="1" fill="none" fill-rule="evenodd">
        <g id="Tiled" transform="translate(8.000000, 9.000000)">
            <rect id="Scene" stroke="#979797" fill="#D8D8D8" x="21.5" y="17.5" width="174" height="124"></rect>
            <g id="Anchor---Tiled">
                <text id="(0,0)" font-family="AndaleMono, Andale Mono" font-size="9" font-weight="normal" fill="#000000">
                    <tspan x="0" y="10">(0,0)</tspan>
                </text>
                <path id="Line" d="M79.5,1.5 L88.5,6 L79.5,10.5 L79.5,6.5 L28.5,6.5 L28.5,5.5 L79.5,5.5 L79.5,1.5 Z" fill="#979797" fill-rule="nonzero"></path>
                <path id="Line" d="M9,13.5 L9,64.5 L13,64.5 L8.5,73.5 L4,64.5 L8,64.5 L8,13.5 L9,13.5 Z" fill="#979797" fill-rule="nonzero"></path>
            </g>
            <text font-family="RobotoSlab-Bold, Roboto Slab" font-size="20" font-weight="bold" fill="#2B2B2B">
                <tspan x="84.1201172" y="88">Tiled</tspan>
            </text>
        </g>
        <g id="SpriteKit" transform="translate(274.000000, 26.000000)">
            <rect id="Scene" stroke="#979797" fill="#D8D8D8" x="21.5" y="0.5" width="174" height="124"></rect>
            <g id="Anchor---SpriteKit" transform="translate(0.000000, 68.000000)">
                <g id="Anchor">
                    <text id="(0,0)" font-family="AndaleMono, Andale Mono" font-size="9" font-weight="normal" fill="#000000">
                        <tspan x="0" y="71">(0,0)</tspan>
                    </text>
                    <path id="Line" d="M84,66 L93,70.5 L84,75 L84,71 L33,71 L33,70 L84,70 L84,66 Z" fill="#979797" fill-rule="nonzero"></path>
                    <path id="Line" d="M8.5,0 L13,9 L9,9 L9,52 L8,52 L8,9 L4,9 L8.5,0 Z" fill="#979797" fill-rule="nonzero"></path>
                </g>
            </g>
            <text font-family="RobotoSlab-Bold, Roboto Slab" font-size="20" font-weight="bold" fill="#2B2B2B">
                <tspan x="66.0898438" y="71">SpriteKit</tspan>
            </text>
        </g>
        <text id="y-position-=-height" font-family="RobotoSlab-Regular, Roboto Slab" font-size="13" font-weight="normal" fill="#2B2B2B">
            <tspan x="19" y="190">y-position = height - position.y</tspan>
        </text>
        <text id="y-position-=-map-hei" font-family="RobotoSlab-Regular, Roboto Slab" font-size="13" font-weight="normal" fill="#2B2B2B">
            <tspan x="281.431396" y="190">y-position = map height - position.y</tspan>
        </text>
    </g>
</svg>