<?xml version="1.0" encoding="UTF-8"?>
<svg width="860px" height="96px" viewBox="0 0 860 96" version="1.1" xmlns="http://www.w3.org/2000/svg" xmlns:xlink="http://www.w3.org/1999/xlink">
    <title>doc-banner-centered</title>
    <defs>
        <filter x="-4.5%" y="-17.4%" width="109.1%" height="134.8%" filterUnits="objectBoundingBox" id="filter-1">
            <feOffset dx="0" dy="2" in="SourceAlpha" result="shadowOffsetOuter1"></feOffset>
            <feGaussianBlur stdDeviation="2" in="shadowOffsetOuter1" result="shadowBlurOuter1"></feGaussianBlur>
            <feColorMatrix values="0 0 0 0 0   0 0 0 0 0   0 0 0 0 0  0 0 0 0.299360795 0" type="matrix" in="shadowBlurOuter1" result="shadowMatrixOuter1"></feColorMatrix>
            <feMerge>
                <feMergeNode in="shadowMatrixOuter1"></feMergeNode>
                <feMergeNode in="SourceGraphic"></feMergeNode>
            </feMerge>
        </filter>
        <linearGradient x1="50%" y1="4.52666905%" x2="50%" y2="127.982156%" id="linearGradient-2">
            <stop stop-color="#FF6A6A" offset="0%"></stop>
            <stop stop-color="#B13535" offset="100%"></stop>
        </linearGradient>
    </defs>
    <g id="doc-banner-centered" stroke="none" stroke-width="1" fill="none" fill-rule="evenodd">
        <g id="Group-2" transform="translate(242.000000, 11.000000)">
            <g id="Group" transform="translate(82.000000, 3.000000)" fill-rule="nonzero">
                <g id="Text" filter="url(#filter-1)">
                    <path d="M231.328,55 L236.224,42.16 L233.08,42.16 L229.792,51.928 L226.432,42.16 L223.168,42.184 L228.112,55 L231.328,55 Z M242.848,55 L242.848,38.2 L236.104,38.2 L236.104,41.032 L239.632,41.032 L239.632,55 L242.848,55 Z M247.936,55.216 C248.416,55.216 248.812,55.052 249.124,54.724 C249.436,54.396 249.592,53.976 249.592,53.464 C249.592,52.968 249.436,52.56 249.124,52.24 C248.812,51.92 248.416,51.76 247.936,51.76 C247.472,51.76 247.084,51.92 246.772,52.24 C246.46,52.56 246.304,52.968 246.304,53.464 C246.304,53.96 246.46,54.376 246.772,54.712 C247.084,55.048 247.472,55.216 247.936,55.216 Z M263.992,55 L263.992,52.192 L255.808,52.192 L260.08,47.872 C261.088,46.816 261.872,45.832 262.432,44.92 C262.992,44.008 263.272,43.144 263.272,42.328 C263.272,41.48 263.036,40.732 262.564,40.084 C262.092,39.436 261.432,38.936 260.584,38.584 C259.736,38.232 258.76,38.056 257.656,38.056 C256.552,38.056 255.452,38.268 254.356,38.692 C253.26,39.116 252.216,39.712 251.224,40.48 L251.224,40.48 L252.496,42.952 C253.232,42.296 254.016,41.784 254.848,41.416 C255.68,41.048 256.464,40.864 257.2,40.864 C258.048,40.864 258.712,41.036 259.192,41.38 C259.672,41.724 259.912,42.2 259.912,42.808 C259.912,43.24 259.728,43.752 259.36,44.344 C258.992,44.936 258.504,45.536 257.896,46.144 L257.896,46.144 L251.56,52.672 L251.56,55 L263.992,55 Z" id="v1.2" fill="#5F6AD3"></path>
                    <path d="M18.598,55.456 C21.562,55.456 24.1935,54.981 26.4925,54.031 C28.7915,53.081 30.5965,51.7035 31.9075,49.8985 C33.2185,48.0935 33.874,45.975 33.874,43.543 C33.874,40.997 33.266,38.945 32.05,37.387 C30.834,35.829 29.3615,34.651 27.6325,33.853 C25.9035,33.055 23.69,32.257 20.992,31.459 C19.054,30.889 17.5245,30.3665 16.4035,29.8915 C15.2825,29.4165 14.3515,28.8085 13.6105,28.0675 C12.8695,27.3265 12.499,26.405 12.499,25.303 C12.499,24.087 13.031,23.137 14.095,22.453 C15.159,21.769 16.603,21.427 18.427,21.427 C20.061,21.427 21.9515,21.769 24.0985,22.453 C26.2455,23.137 28.345,24.106 30.397,25.36 L30.397,25.36 L33.475,18.691 C31.499,17.399 29.2475,16.373 26.7205,15.613 C24.1935,14.853 21.638,14.473 19.054,14.473 C16.09,14.473 13.4775,14.948 11.2165,15.898 C8.9555,16.848 7.2075,18.1875 5.9725,19.9165 C4.7375,21.6455 4.12,23.669 4.12,25.987 C4.12,28.495 4.728,30.5185 5.944,32.0575 C7.16,33.5965 8.623,34.746 10.333,35.506 C12.043,36.266 14.247,37.045 16.945,37.843 C18.921,38.413 20.479,38.926 21.619,39.382 C22.759,39.838 23.6995,40.4365 24.4405,41.1775 C25.1815,41.9185 25.552,42.859 25.552,43.999 C25.552,45.405 24.944,46.5165 23.728,47.3335 C22.512,48.1505 20.84,48.559 18.712,48.559 C16.546,48.559 14.209,48.027 11.701,46.963 C9.193,45.899 6.932,44.436 4.918,42.574 L4.918,42.574 L1.726,49.072 C3.93,51.01 6.514,52.5585 9.478,53.7175 C12.442,54.8765 15.482,55.456 18.598,55.456 Z M48.751,55 L48.751,44.797 L55.021,37.9 L67.561,55 L76.738,55 L60.436,31.972 L75.769,15.1 L66.763,15.1 L48.751,34.993 L48.751,15.1 L41.113,15.1 L41.113,55 L48.751,55 Z M98.17,55 L98.17,21.883 L110.596,21.883 L110.596,15.1 L78.049,15.1 L78.049,21.883 L90.475,21.883 L90.475,55 L98.17,55 Z M119.374,20.23 C120.59,20.23 121.597,19.812 122.395,18.976 C123.193,18.14 123.592,17.095 123.592,15.841 C123.592,14.549 123.193,13.485 122.395,12.649 C121.597,11.813 120.59,11.395 119.374,11.395 C118.158,11.395 117.151,11.813 116.353,12.649 C115.555,13.485 115.156,14.549 115.156,15.841 C115.156,17.095 115.555,18.14 116.353,18.976 C117.151,19.812 118.158,20.23 119.374,20.23 Z M123.136,55 L123.136,24.505 L115.726,24.505 L115.726,55 L123.136,55 Z M140.008,55 L140.008,12.706 L132.598,12.706 L132.598,55 L140.008,55 Z M162.409,55.285 C165.069,55.285 167.4915,54.829 169.6765,53.917 C171.8615,53.005 173.714,51.713 175.234,50.041 L175.234,50.041 L171.244,45.88 C170.18,46.982 168.9355,47.8275 167.5105,48.4165 C166.0855,49.0055 164.594,49.3 163.036,49.3 C160.794,49.3 158.9035,48.6825 157.3645,47.4475 C155.8255,46.2125 154.809,44.512 154.315,42.346 L154.315,42.346 L176.83,42.346 C176.868,41.852 176.887,41.111 176.887,40.123 C176.887,35.107 175.6615,31.212 173.2105,28.438 C170.7595,25.664 167.102,24.277 162.238,24.277 C159.236,24.277 156.557,24.9325 154.201,26.2435 C151.845,27.5545 150.0115,29.388 148.7005,31.744 C147.3895,34.1 146.734,36.798 146.734,39.838 C146.734,42.878 147.38,45.5665 148.672,47.9035 C149.964,50.2405 151.7975,52.055 154.1725,53.347 C156.5475,54.639 159.293,55.285 162.409,55.285 Z M170.104,37.387 L154.144,37.387 C154.486,35.107 155.3885,33.3115 156.8515,32.0005 C158.3145,30.6895 160.129,30.034 162.295,30.034 C164.613,30.034 166.475,30.699 167.881,32.029 C169.287,33.359 170.028,35.145 170.104,37.387 L170.104,37.387 Z M195.013,55.342 C197.293,55.342 199.2975,54.8955 201.0265,54.0025 C202.7555,53.1095 204.171,51.808 205.273,50.098 L205.273,50.098 L205.273,55 L212.683,55 L212.683,12.706 L205.273,12.706 L205.273,29.521 C204.133,27.811 202.689,26.5 200.941,25.588 C199.193,24.676 197.16,24.22 194.842,24.22 C192.03,24.22 189.5315,24.866 187.3465,26.158 C185.1615,27.45 183.4705,29.2645 182.2735,31.6015 C181.0765,33.9385 180.478,36.627 180.478,39.667 C180.478,42.745 181.086,45.4715 182.302,47.8465 C183.518,50.2215 185.2185,52.0645 187.4035,53.3755 C189.5885,54.6865 192.125,55.342 195.013,55.342 Z M196.609,49.129 C194.063,49.129 191.992,48.2645 190.396,46.5355 C188.8,44.8065 187.983,42.574 187.945,39.838 C187.983,37.102 188.8,34.8695 190.396,33.1405 C191.992,31.4115 194.063,30.547 196.609,30.547 C199.155,30.547 201.2355,31.4115 202.8505,33.1405 C204.4655,34.8695 205.273,37.102 205.273,39.838 C205.273,42.574 204.4655,44.8065 202.8505,46.5355 C201.2355,48.2645 199.155,49.129 196.609,49.129 Z" id="SKTiled" fill="#000000"></path>
                </g>
            </g>
            <g id="Icon">
                <rect id="Icon-Background" fill="url(#linearGradient-2)" x="0" y="0" width="74" height="74" rx="16.4243902"></rect>
                <g id="Logo" transform="translate(7.000000, 14.000000)">
                    <g id="Group" transform="translate(0.000000, 13.675676)">
                        <g id="tile-lighter" transform="translate(0.154040, 0.155405)">
                            <polygon id="left-side" fill="#A1A7DD" points="0 9.63513514 15.0959596 19.2702703 15.0959596 22.3783784 0 12.7432432"></polygon>
                            <polygon id="right-side" fill="#666EB8" points="15.0959596 19.2702703 30.1919192 9.63513514 30.1919192 12.7432432 15.0959596 22.3783784"></polygon>
                            <polygon id="top" fill="#848CDF" points="15.0959596 0 0 9.63513514 15.0959596 19.2702703 30.1919192 9.63513514"></polygon>
                            <path d="M0.130996965,9.71874515 L14.9649626,19.1866603 C15.0465676,19.2387454 15.0959596,19.3288653 15.0959596,19.4256757 C15.0959596,19.4727154 15.0578264,19.5108486 15.0107867,19.5108486 C14.9945491,19.5108486 14.9786499,19.5062071 14.9649626,19.4974711 L0.130996965,10.029556 C0.0493919573,9.97747082 1.1855846e-17,9.88735087 0,9.79054054 C-5.76070095e-18,9.74350085 0.0381332056,9.70536764 0.0851728986,9.70536764 C0.101410476,9.70536764 0.117309711,9.71000914 0.130996965,9.71874515 Z" id="left-rim" fill="#9EA5E8"></path>
                            <path d="M15.2269566,19.1866603 L30.0609222,9.71874515 C30.1005737,9.69343722 30.1532337,9.70506498 30.1785417,9.74471647 C30.1872777,9.75840373 30.1919192,9.77430296 30.1919192,9.79054054 C30.1919192,9.88735087 30.1425272,9.97747082 30.0609222,10.029556 L15.2269566,19.4974711 C15.1873051,19.522779 15.134645,19.5111512 15.1093371,19.4714997 C15.1006011,19.4578125 15.0959596,19.4419133 15.0959596,19.4256757 C15.0959596,19.3288653 15.1453516,19.2387454 15.2269566,19.1866603 Z" id="right-rim" fill="#9EA5E8"></path>
                            <rect id="front-rim" fill="#A5ADFE" x="14.9419192" y="19.2702703" width="1" height="3.10810811" rx="0.5"></rect>
                        </g>
                    </g>
                    <g id="Group" transform="translate(30.345960, 13.675676)">
                        <g id="tile-lighter" transform="translate(0.154040, 0.155405)">
                            <polygon id="left-side" fill="#A1A7DD" points="0 9.63513514 15.0959596 19.2702703 15.0959596 22.3783784 0 12.7432432"></polygon>
                            <polygon id="right-side" fill="#666EB8" points="15.0959596 19.2702703 30.1919192 9.63513514 30.1919192 12.7432432 15.0959596 22.3783784"></polygon>
                            <polygon id="top" fill="#848CDF" points="15.0959596 0 0 9.63513514 15.0959596 19.2702703 30.1919192 9.63513514"></polygon>
                            <path d="M0.130996965,9.71874515 L14.9649626,19.1866603 C15.0465676,19.2387454 15.0959596,19.3288653 15.0959596,19.4256757 C15.0959596,19.4727154 15.0578264,19.5108486 15.0107867,19.5108486 C14.9945491,19.5108486 14.9786499,19.5062071 14.9649626,19.4974711 L0.130996965,10.029556 C0.0493919573,9.97747082 1.1855846e-17,9.88735087 0,9.79054054 C-5.76070095e-18,9.74350085 0.0381332056,9.70536764 0.0851728986,9.70536764 C0.101410476,9.70536764 0.117309711,9.71000914 0.130996965,9.71874515 Z" id="left-rim" fill="#9EA5E8"></path>
                            <path d="M15.2269566,19.1866603 L30.0609222,9.71874515 C30.1005737,9.69343722 30.1532337,9.70506498 30.1785417,9.74471647 C30.1872777,9.75840373 30.1919192,9.77430296 30.1919192,9.79054054 C30.1919192,9.88735087 30.1425272,9.97747082 30.0609222,10.029556 L15.2269566,19.4974711 C15.1873051,19.522779 15.134645,19.5111512 15.1093371,19.4714997 C15.1006011,19.4578125 15.0959596,19.4419133 15.0959596,19.4256757 C15.0959596,19.3288653 15.1453516,19.2387454 15.2269566,19.1866603 Z" id="right-rim" fill="#9EA5E8"></path>
                            <rect id="front-rim" fill="#A5ADFE" x="14.9419192" y="19.2702703" width="1" height="3.10810811" rx="0.5"></rect>
                        </g>
                    </g>
                    <g id="tile" transform="translate(15.404040, 23.621622)">
                        <polygon id="left-side" fill="#7A83DA" points="0 9.63513514 15.0959596 19.2702703 15.0959596 22.3783784 0 12.7432432"></polygon>
                        <polygon id="right-side" fill="#4D55A8" points="15.0959596 19.2702703 30.1919192 9.63513514 30.1919192 12.7432432 15.0959596 22.3783784"></polygon>
                        <polygon id="top" fill="#5F6AD3" points="15.0959596 0 0 9.63513514 15.0959596 19.2702703 30.1919192 9.63513514"></polygon>
                        <path d="M0.130996965,9.71874515 L14.9649626,19.1866603 C15.0465676,19.2387454 15.0959596,19.3288653 15.0959596,19.4256757 C15.0959596,19.4727154 15.0578264,19.5108486 15.0107867,19.5108486 C14.9945491,19.5108486 14.9786499,19.5062071 14.9649626,19.4974711 L0.130996965,10.029556 C0.0493919573,9.97747082 1.1855846e-17,9.88735087 0,9.79054054 C-5.76070095e-18,9.74350085 0.0381332056,9.70536764 0.0851728986,9.70536764 C0.101410476,9.70536764 0.117309711,9.71000914 0.130996965,9.71874515 Z" id="left-rim" fill="#9EA5E8"></path>
                        <path d="M15.2269566,19.1866603 L30.0609222,9.71874515 C30.1005737,9.69343722 30.1532337,9.70506498 30.1785417,9.74471647 C30.1872777,9.75840373 30.1919192,9.77430296 30.1919192,9.79054054 C30.1919192,9.88735087 30.1425272,9.97747082 30.0609222,10.029556 L15.2269566,19.4974711 C15.1873051,19.522779 15.134645,19.5111512 15.1093371,19.4714997 C15.1006011,19.4578125 15.0959596,19.4419133 15.0959596,19.4256757 C15.0959596,19.3288653 15.1453516,19.2387454 15.2269566,19.1866603 Z" id="right-rim" fill="#9EA5E8"></path>
                        <rect id="front-rim" fill="#A5ADFE" x="14.9419192" y="19.2702703" width="1" height="3.10810811" rx="0.5"></rect>
                    </g>
                    <g id="tile" transform="translate(15.404040, 0.000000)">
                        <polygon id="left-side" fill="#7A83DA" points="0 9.63513514 15.0959596 19.2702703 15.0959596 22.3783784 0 12.7432432"></polygon>
                        <polygon id="right-side" fill="#4D55A8" points="15.0959596 19.2702703 30.1919192 9.63513514 30.1919192 12.7432432 15.0959596 22.3783784"></polygon>
                        <polygon id="top" fill="#5F6AD3" points="15.0959596 0 0 9.63513514 15.0959596 19.2702703 30.1919192 9.63513514"></polygon>
                        <path d="M0.130996965,9.71874515 L14.9649626,19.1866603 C15.0465676,19.2387454 15.0959596,19.3288653 15.0959596,19.4256757 C15.0959596,19.4727154 15.0578264,19.5108486 15.0107867,19.5108486 C14.9945491,19.5108486 14.9786499,19.5062071 14.9649626,19.4974711 L0.130996965,10.029556 C0.0493919573,9.97747082 1.1855846e-17,9.88735087 0,9.79054054 C-5.76070095e-18,9.74350085 0.0381332056,9.70536764 0.0851728986,9.70536764 C0.101410476,9.70536764 0.117309711,9.71000914 0.130996965,9.71874515 Z" id="left-rim" fill="#9EA5E8"></path>
                        <path d="M15.2269566,19.1866603 L30.0609222,9.71874515 C30.1005737,9.69343722 30.1532337,9.70506498 30.1785417,9.74471647 C30.1872777,9.75840373 30.1919192,9.77430296 30.1919192,9.79054054 C30.1919192,9.88735087 30.1425272,9.97747082 30.0609222,10.029556 L15.2269566,19.4974711 C15.1873051,19.522779 15.134645,19.5111512 15.1093371,19.4714997 C15.1006011,19.4578125 15.0959596,19.4419133 15.0959596,19.4256757 C15.0959596,19.3288653 15.1453516,19.2387454 15.2269566,19.1866603 Z" id="right-rim" fill="#9EA5E8"></path>
                        <rect id="front-rim" fill="#A5ADFE" x="14.9419192" y="19.2702703" width="1" height="3.10810811" rx="0.5"></rect>
                    </g>
                </g>
            </g>
        </g>
    </g>
</svg>