<?xml version="1.0" encoding="UTF-8"?>
<svg width="860px" height="96px" viewBox="0 0 860 96" version="1.1" xmlns="http://www.w3.org/2000/svg" xmlns:xlink="http://www.w3.org/1999/xlink">
    <title>doc-banner-centered</title>
    <defs>
        <style type="text/css">
            @import url('https://fonts.googleapis.com/css2?family=Montserrat:wght@100;400;500;600;700;900')
        </style>
        <filter x="-4.5%" y="-17.4%" width="109.1%" height="134.8%" filterUnits="objectBoundingBox" id="filter-1">
            <feOffset dx="0" dy="2" in="SourceAlpha" result="shadowOffsetOuter1"></feOffset>
            <feGaussianBlur stdDeviation="2" in="shadowOffsetOuter1" result="shadowBlurOuter1"></feGaussianBlur>
            <feColorMatrix values="0 0 0 0 0   0 0 0 0 0   0 0 0 0 0  0 0 0 0.299360795 0" type="matrix" in="shadowBlurOuter1" result="shadowMatrixOuter1"></feColorMatrix>
            <feMerge>
                <feMergeNode in="shadowMatrixOuter1"></feMergeNode>
                <feMergeNode in="SourceGraphic"></feMergeNode>
            </feMerge>
        </filter>
        <linearGradient x1="50%" y1="4.52666905%" x2="50%" y2="127.982156%" id="linearGradient-2">
            <stop stop-color="#FF6A6A" offset="0%"></stop>
            <stop stop-color="#B13535" offset="100%"></stop>
        </linearGradient>
    </defs>
    <g id="doc-banner-centered" stroke="none" stroke-width="1" fill="none" fill-rule="evenodd">
        <g id="Group-2" transform="translate(242.000000, 11.000000)">
            <g id="Group" transform="translate(82.000000, 3.000000)" font-family="Montserrat" font-weight="600">
                <g id="Text" filter="url(#filter-1)">
                    <text id="v1.2" font-size="24" fill="#5F6AD3">
                        <tspan x="223.192" y="55">v1.2</tspan>
                    </text>
                    <text id="SKTiled" font-size="57" fill="#000000">
                        <tspan x="0.415" y="55">SKTiled</tspan>
                    </text>
                </g>
            </g>
            <g id="Group">
                <rect id="Icon-Background" fill="url(#linearGradient-2)" x="0" y="0" width="74" height="74" rx="16.4243902"></rect>
                <g transform="translate(7.000000, 14.000000)" id="Logo">
                    <g id="Group" transform="translate(0.000000, 13.675676)">
                        <g id="tile-lighter" transform="translate(0.154040, 0.155405)">
                            <polygon id="left-side" fill="#A1A7DD" points="0 9.63513514 15.0959596 19.2702703 15.0959596 22.3783784 0 12.7432432"></polygon>
                            <polygon id="right-side" fill="#666EB8" points="15.0959596 19.2702703 30.1919192 9.63513514 30.1919192 12.7432432 15.0959596 22.3783784"></polygon>
                            <polygon id="top" fill="#848CDF" points="15.0959596 0 0 9.63513514 15.0959596 19.2702703 30.1919192 9.63513514"></polygon>
                            <path d="M0.130996965,9.71874515 L14.9649626,19.1866603 C15.0465676,19.2387454 15.0959596,19.3288653 15.0959596,19.4256757 C15.0959596,19.4727154 15.0578264,19.5108486 15.0107867,19.5108486 C14.9945491,19.5108486 14.9786499,19.5062071 14.9649626,19.4974711 L0.130996965,10.029556 C0.0493919573,9.97747082 1.1855846e-17,9.88735087 0,9.79054054 C-5.76070095e-18,9.74350085 0.0381332056,9.70536764 0.0851728986,9.70536764 C0.101410476,9.70536764 0.117309711,9.71000914 0.130996965,9.71874515 Z" id="left-rim" fill="#9EA5E8"></path>
                            <path d="M15.2269566,19.1866603 L30.0609222,9.71874515 C30.1005737,9.69343722 30.1532337,9.70506498 30.1785417,9.74471647 C30.1872777,9.75840373 30.1919192,9.77430296 30.1919192,9.79054054 C30.1919192,9.88735087 30.1425272,9.97747082 30.0609222,10.029556 L15.2269566,19.4974711 C15.1873051,19.522779 15.134645,19.5111512 15.1093371,19.4714997 C15.1006011,19.4578125 15.0959596,19.4419133 15.0959596,19.4256757 C15.0959596,19.3288653 15.1453516,19.2387454 15.2269566,19.1866603 Z" id="right-rim" fill="#9EA5E8"></path>
                            <rect id="front-rim" fill="#A5ADFE" x="14.9419192" y="19.2702703" width="1" height="3.10810811" rx="0.5"></rect>
                        </g>
                    </g>
                    <g id="Group" transform="translate(30.345960, 13.675676)">
                        <g id="tile-lighter" transform="translate(0.154040, 0.155405)">
                            <polygon id="left-side" fill="#A1A7DD" points="0 9.63513514 15.0959596 19.2702703 15.0959596 22.3783784 0 12.7432432"></polygon>
                            <polygon id="right-side" fill="#666EB8" points="15.0959596 19.2702703 30.1919192 9.63513514 30.1919192 12.7432432 15.0959596 22.3783784"></polygon>
                            <polygon id="top" fill="#848CDF" points="15.0959596 0 0 9.63513514 15.0959596 19.2702703 30.1919192 9.63513514"></polygon>
                            <path d="M0.130996965,9.71874515 L14.9649626,19.1866603 C15.0465676,19.2387454 15.0959596,19.3288653 15.0959596,19.4256757 C15.0959596,19.4727154 15.0578264,19.5108486 15.0107867,19.5108486 C14.9945491,19.5108486 14.9786499,19.5062071 14.9649626,19.4974711 L0.130996965,10.029556 C0.0493919573,9.97747082 1.1855846e-17,9.88735087 0,9.79054054 C-5.76070095e-18,9.74350085 0.0381332056,9.70536764 0.0851728986,9.70536764 C0.101410476,9.70536764 0.117309711,9.71000914 0.130996965,9.71874515 Z" id="left-rim" fill="#9EA5E8"></path>
                            <path d="M15.2269566,19.1866603 L30.0609222,9.71874515 C30.1005737,9.69343722 30.1532337,9.70506498 30.1785417,9.74471647 C30.1872777,9.75840373 30.1919192,9.77430296 30.1919192,9.79054054 C30.1919192,9.88735087 30.1425272,9.97747082 30.0609222,10.029556 L15.2269566,19.4974711 C15.1873051,19.522779 15.134645,19.5111512 15.1093371,19.4714997 C15.1006011,19.4578125 15.0959596,19.4419133 15.0959596,19.4256757 C15.0959596,19.3288653 15.1453516,19.2387454 15.2269566,19.1866603 Z" id="right-rim" fill="#9EA5E8"></path>
                            <rect id="front-rim" fill="#A5ADFE" x="14.9419192" y="19.2702703" width="1" height="3.10810811" rx="0.5"></rect>
                        </g>
                    </g>
                    <g id="tile" transform="translate(15.404040, 23.621622)">
                        <polygon id="left-side" fill="#7A83DA" points="0 9.63513514 15.0959596 19.2702703 15.0959596 22.3783784 0 12.7432432"></polygon>
                        <polygon id="right-side" fill="#4D55A8" points="15.0959596 19.2702703 30.1919192 9.63513514 30.1919192 12.7432432 15.0959596 22.3783784"></polygon>
                        <polygon id="top" fill="#5F6AD3" points="15.0959596 0 0 9.63513514 15.0959596 19.2702703 30.1919192 9.63513514"></polygon>
                        <path d="M0.130996965,9.71874515 L14.9649626,19.1866603 C15.0465676,19.2387454 15.0959596,19.3288653 15.0959596,19.4256757 C15.0959596,19.4727154 15.0578264,19.5108486 15.0107867,19.5108486 C14.9945491,19.5108486 14.9786499,19.5062071 14.9649626,19.4974711 L0.130996965,10.029556 C0.0493919573,9.97747082 1.1855846e-17,9.88735087 0,9.79054054 C-5.76070095e-18,9.74350085 0.0381332056,9.70536764 0.0851728986,9.70536764 C0.101410476,9.70536764 0.117309711,9.71000914 0.130996965,9.71874515 Z" id="left-rim" fill="#9EA5E8"></path>
                        <path d="M15.2269566,19.1866603 L30.0609222,9.71874515 C30.1005737,9.69343722 30.1532337,9.70506498 30.1785417,9.74471647 C30.1872777,9.75840373 30.1919192,9.77430296 30.1919192,9.79054054 C30.1919192,9.88735087 30.1425272,9.97747082 30.0609222,10.029556 L15.2269566,19.4974711 C15.1873051,19.522779 15.134645,19.5111512 15.1093371,19.4714997 C15.1006011,19.4578125 15.0959596,19.4419133 15.0959596,19.4256757 C15.0959596,19.3288653 15.1453516,19.2387454 15.2269566,19.1866603 Z" id="right-rim" fill="#9EA5E8"></path>
                        <rect id="front-rim" fill="#A5ADFE" x="14.9419192" y="19.2702703" width="1" height="3.10810811" rx="0.5"></rect>
                    </g>
                    <g id="tile" transform="translate(15.404040, 0.000000)">
                        <polygon id="left-side" fill="#7A83DA" points="0 9.63513514 15.0959596 19.2702703 15.0959596 22.3783784 0 12.7432432"></polygon>
                        <polygon id="right-side" fill="#4D55A8" points="15.0959596 19.2702703 30.1919192 9.63513514 30.1919192 12.7432432 15.0959596 22.3783784"></polygon>
                        <polygon id="top" fill="#5F6AD3" points="15.0959596 0 0 9.63513514 15.0959596 19.2702703 30.1919192 9.63513514"></polygon>
                        <path d="M0.130996965,9.71874515 L14.9649626,19.1866603 C15.0465676,19.2387454 15.0959596,19.3288653 15.0959596,19.4256757 C15.0959596,19.4727154 15.0578264,19.5108486 15.0107867,19.5108486 C14.9945491,19.5108486 14.9786499,19.5062071 14.9649626,19.4974711 L0.130996965,10.029556 C0.0493919573,9.97747082 1.1855846e-17,9.88735087 0,9.79054054 C-5.76070095e-18,9.74350085 0.0381332056,9.70536764 0.0851728986,9.70536764 C0.101410476,9.70536764 0.117309711,9.71000914 0.130996965,9.71874515 Z" id="left-rim" fill="#9EA5E8"></path>
                        <path d="M15.2269566,19.1866603 L30.0609222,9.71874515 C30.1005737,9.69343722 30.1532337,9.70506498 30.1785417,9.74471647 C30.1872777,9.75840373 30.1919192,9.77430296 30.1919192,9.79054054 C30.1919192,9.88735087 30.1425272,9.97747082 30.0609222,10.029556 L15.2269566,19.4974711 C15.1873051,19.522779 15.134645,19.5111512 15.1093371,19.4714997 C15.1006011,19.4578125 15.0959596,19.4419133 15.0959596,19.4256757 C15.0959596,19.3288653 15.1453516,19.2387454 15.2269566,19.1866603 Z" id="right-rim" fill="#9EA5E8"></path>
                        <rect id="front-rim" fill="#A5ADFE" x="14.9419192" y="19.2702703" width="1" height="3.10810811" rx="0.5"></rect>
                    </g>
                </g>
            </g>
        </g>
    </g>
</svg>
