<?xml version="1.0" encoding="UTF-8"?>
<svg width="800px" height="81px" viewBox="0 0 800 81" version="1.1" xmlns="http://www.w3.org/2000/svg" xmlns:xlink="http://www.w3.org/1999/xlink">
    <title>doc-header</title>
    <defs>
        <path d="M56.8671875,-9.59075814e-16 C67.5625,-9.59075814e-16 74.5,6.9375 74.5,17.6328125 L74.5,56.3671875 C74.5,67.0625 67.5625,74 56.8671875,74 L18.1328125,74 C7.4375,74 0.5,67.0625 0.5,56.3671875 L0.5,17.6328125 C0.5,6.9375 7.4375,-9.59075809e-16 18.1328125,-9.59075809e-16 L56.8671875,-9.59075814e-16 Z" id="path-1"></path>
        <linearGradient x1="50%" y1="97.5213223%" x2="50%" y2="21.7108724%" id="linearGradient-3">
            <stop stop-color="#C03E33" offset="0%"></stop>
            <stop stop-color="#FF7164" offset="100%"></stop>
        </linearGradient>
        <filter id="filter-4">
            <feColorMatrix in="SourceGraphic" type="matrix" values="0 0 0 0 0.000000 0 0 0 0 0.000000 0 0 0 0 0.000000 0 0 0 1.000000 0"></feColorMatrix>
        </filter>
    </defs>
    <g id="doc-header" stroke="none" stroke-width="1" fill="none" fill-rule="evenodd">
        <g id="Logo" transform="translate(228.000000, 4.000000)">
            <mask id="mask-2" fill="white">
                <use xlink:href="#path-1"></use>
            </mask>
            <use id="Mask" fill="#FE5243" xlink:href="#path-1"></use>
            <g id="Backgrounds--/--Red" mask="url(#mask-2)" fill="url(#linearGradient-3)">
                <g transform="translate(-1.000000, -3.000000)" id="background-(old)">
                    <rect x="0" y="0" width="80" height="80"></rect>
                </g>
            </g>
            <g id="Logos-/-Parts-/-SKTiled-Icon" mask="url(#mask-2)">
                <g transform="translate(8.000000, 14.000000)" id="Logo">
                    <g>
                        <g id="Logos-/-Parts-/-Tile-(Light)" transform="translate(0.000000, 13.324650)">
                            <g id="tile-lighter" transform="translate(0.151515, 0.151416)">
                                <polygon id="left-side" fill="#A1A7DD" points="0 9.38782156 14.8484848 18.7756431 14.8484848 21.8039726 0 12.4161511"></polygon>
                                <polygon id="right-side" fill="#666EB8" points="14.8484848 18.7756431 29.6969697 9.38782156 29.6969697 12.4161511 14.8484848 21.8039726"></polygon>
                                <polygon id="top" fill="#848CDF" points="14.8484848 0 0 9.38782156 14.8484848 18.7756431 29.6969697 9.38782156"></polygon>
                                <path d="M0.127982679,9.46873746 L14.7205022,18.6947272 C14.8001794,18.7451024 14.8484848,18.8327934 14.8484848,18.9270596 C14.8484848,18.9731253 14.8111412,19.0104689 14.7650755,19.0104689 C14.7492958,19.0104689 14.7338398,19.0059927 14.7205022,18.9975602 L0.127982679,9.77157041 C0.0483054678,9.72119521 1.15442817e-17,9.63350425 0,9.53923803 C-5.64142081e-18,9.49317234 0.0373436257,9.45582871 0.0834093225,9.45582871 C0.0991890532,9.45582871 0.11464508,9.46030488 0.127982679,9.46873746 Z" id="left-rim" fill="#9EA5E8"></path>
                                <path d="M14.9764675,18.6947272 L29.568987,9.46873746 C29.6079234,9.44412027 29.6594438,9.45572828 29.6840609,9.49466468 C29.6924935,9.50800228 29.6969697,9.5234583 29.6969697,9.53923803 C29.6969697,9.63350425 29.6486642,9.72119521 29.568987,9.77157041 L14.9764675,18.9975602 C14.9375311,19.0221773 14.8860108,19.0105693 14.8613936,18.9716329 C14.852961,18.9582953 14.8484848,18.9428393 14.8484848,18.9270596 C14.8484848,18.8327934 14.8967903,18.7451024 14.9764675,18.6947272 Z" id="right-rim" fill="#9EA5E8"></path>
                                <rect id="front-rim" fill="#A5ADFE" x="14.6969697" y="18.7756431" width="1" height="3.02832953" rx="0.5"></rect>
                            </g>
                        </g>
                        <g id="Logos-/-Parts-/-Tile-(Light)" transform="translate(29.848485, 13.324650)">
                            <g id="tile-lighter" transform="translate(0.151515, 0.151416)">
                                <polygon id="left-side" fill="#A1A7DD" points="0 9.38782156 14.8484848 18.7756431 14.8484848 21.8039726 0 12.4161511"></polygon>
                                <polygon id="right-side" fill="#666EB8" points="14.8484848 18.7756431 29.6969697 9.38782156 29.6969697 12.4161511 14.8484848 21.8039726"></polygon>
                                <polygon id="top" fill="#848CDF" points="14.8484848 0 0 9.38782156 14.8484848 18.7756431 29.6969697 9.38782156"></polygon>
                                <path d="M0.127982679,9.46873746 L14.7205022,18.6947272 C14.8001794,18.7451024 14.8484848,18.8327934 14.8484848,18.9270596 C14.8484848,18.9731253 14.8111412,19.0104689 14.7650755,19.0104689 C14.7492958,19.0104689 14.7338398,19.0059927 14.7205022,18.9975602 L0.127982679,9.77157041 C0.0483054678,9.72119521 1.15442817e-17,9.63350425 0,9.53923803 C-5.64142081e-18,9.49317234 0.0373436257,9.45582871 0.0834093225,9.45582871 C0.0991890532,9.45582871 0.11464508,9.46030488 0.127982679,9.46873746 Z" id="left-rim" fill="#9EA5E8"></path>
                                <path d="M14.9764675,18.6947272 L29.568987,9.46873746 C29.6079234,9.44412027 29.6594438,9.45572828 29.6840609,9.49466468 C29.6924935,9.50800228 29.6969697,9.5234583 29.6969697,9.53923803 C29.6969697,9.63350425 29.6486642,9.72119521 29.568987,9.77157041 L14.9764675,18.9975602 C14.9375311,19.0221773 14.8860108,19.0105693 14.8613936,18.9716329 C14.852961,18.9582953 14.8484848,18.9428393 14.8484848,18.9270596 C14.8484848,18.8327934 14.8967903,18.7451024 14.9764675,18.6947272 Z" id="right-rim" fill="#9EA5E8"></path>
                                <rect id="front-rim" fill="#A5ADFE" x="14.6969697" y="18.7756431" width="1" height="3.02832953" rx="0.5"></rect>
                            </g>
                        </g>
                        <g id="Logos-/-Parts-/-Tile-(Regular)" transform="translate(15.151515, 23.015304)">
                            <g id="tile">
                                <polygon id="left-side" fill="#7A83DA" points="0 9.38782156 14.8484848 18.7756431 14.8484848 21.8039726 0 12.4161511"></polygon>
                                <polygon id="right-side" fill="#4D55A8" points="14.8484848 18.7756431 29.6969697 9.38782156 29.6969697 12.4161511 14.8484848 21.8039726"></polygon>
                                <polygon id="top" fill="#5F6AD3" points="14.8484848 0 0 9.38782156 14.8484848 18.7756431 29.6969697 9.38782156"></polygon>
                                <path d="M0.127982679,9.46873746 L14.7205022,18.6947272 C14.8001794,18.7451024 14.8484848,18.8327934 14.8484848,18.9270596 C14.8484848,18.9731253 14.8111412,19.0104689 14.7650755,19.0104689 C14.7492958,19.0104689 14.7338398,19.0059927 14.7205022,18.9975602 L0.127982679,9.77157041 C0.0483054678,9.72119521 1.15442817e-17,9.63350425 0,9.53923803 C-5.64142081e-18,9.49317234 0.0373436257,9.45582871 0.0834093225,9.45582871 C0.0991890532,9.45582871 0.11464508,9.46030488 0.127982679,9.46873746 Z" id="left-rim" fill="#9EA5E8"></path>
                                <path d="M14.9764675,18.6947272 L29.568987,9.46873746 C29.6079234,9.44412027 29.6594438,9.45572828 29.6840609,9.49466468 C29.6924935,9.50800228 29.6969697,9.5234583 29.6969697,9.53923803 C29.6969697,9.63350425 29.6486642,9.72119521 29.568987,9.77157041 L14.9764675,18.9975602 C14.9375311,19.0221773 14.8860108,19.0105693 14.8613936,18.9716329 C14.852961,18.9582953 14.8484848,18.9428393 14.8484848,18.9270596 C14.8484848,18.8327934 14.8967903,18.7451024 14.9764675,18.6947272 Z" id="right-rim" fill="#9EA5E8"></path>
                                <rect id="front-rim" fill="#A5ADFE" x="14.6969697" y="18.7756431" width="1" height="3.02832953" rx="0.5"></rect>
                            </g>
                        </g>
                        <g id="Logos-/-Parts-/-Tile-(Regular)" transform="translate(15.151515, 0.000000)">
                            <g id="tile">
                                <polygon id="left-side" fill="#7A83DA" points="0 9.38782156 14.8484848 18.7756431 14.8484848 21.8039726 0 12.4161511"></polygon>
                                <polygon id="right-side" fill="#4D55A8" points="14.8484848 18.7756431 29.6969697 9.38782156 29.6969697 12.4161511 14.8484848 21.8039726"></polygon>
                                <polygon id="top" fill="#5F6AD3" points="14.8484848 0 0 9.38782156 14.8484848 18.7756431 29.6969697 9.38782156"></polygon>
                                <path d="M0.127982679,9.46873746 L14.7205022,18.6947272 C14.8001794,18.7451024 14.8484848,18.8327934 14.8484848,18.9270596 C14.8484848,18.9731253 14.8111412,19.0104689 14.7650755,19.0104689 C14.7492958,19.0104689 14.7338398,19.0059927 14.7205022,18.9975602 L0.127982679,9.77157041 C0.0483054678,9.72119521 1.15442817e-17,9.63350425 0,9.53923803 C-5.64142081e-18,9.49317234 0.0373436257,9.45582871 0.0834093225,9.45582871 C0.0991890532,9.45582871 0.11464508,9.46030488 0.127982679,9.46873746 Z" id="left-rim" fill="#9EA5E8"></path>
                                <path d="M14.9764675,18.6947272 L29.568987,9.46873746 C29.6079234,9.44412027 29.6594438,9.45572828 29.6840609,9.49466468 C29.6924935,9.50800228 29.6969697,9.5234583 29.6969697,9.53923803 C29.6969697,9.63350425 29.6486642,9.72119521 29.568987,9.77157041 L14.9764675,18.9975602 C14.9375311,19.0221773 14.8860108,19.0105693 14.8613936,18.9716329 C14.852961,18.9582953 14.8484848,18.9428393 14.8484848,18.9270596 C14.8484848,18.8327934 14.8967903,18.7451024 14.9764675,18.6947272 Z" id="right-rim" fill="#9EA5E8"></path>
                                <rect id="front-rim" fill="#A5ADFE" x="14.6969697" y="18.7756431" width="1" height="3.02832953" rx="0.5"></rect>
                            </g>
                        </g>
                    </g>
                </g>
            </g>
        </g>
        <g id="Text-Copy" transform="translate(311.000000, 6.000000)">
            <g id="Logos-/-Parts-/-SKTiled-Version" transform="translate(222.000000, 34.000000)" fill="#5C629D" fill-rule="nonzero">
                <path d="M6.52285721,16 L9.65885721,8.032 L6.85885721,8.032 L5.17885721,13.2 L5.13085721,13.2 L3.45085721,8.032 L0.554857212,8.032 L3.69085721,16 L6.52285721,16 Z M16.6874286,16 L16.6874286,4.672 L14.2234286,4.672 L10.4954286,7.408 L11.8874286,9.312 L13.9994286,7.68 L13.9994286,16 L16.6874286,16 Z M22.052,16.16 C22.4893333,16.16 22.8653333,16.0106667 23.18,15.712 C23.4946667,15.4133333 23.652,15.04 23.652,14.592 C23.652,14.144 23.4946667,13.7706667 23.18,13.472 C22.8653333,13.1733333 22.4893333,13.024 22.052,13.024 C21.828,13.024 21.6173333,13.0666667 21.42,13.152 C21.2226667,13.2373333 21.0493333,13.352 20.9,13.496 C20.7506667,13.64 20.6333333,13.808 20.548,14 C20.4626667,14.192 20.42,14.3946667 20.42,14.608 C20.42,14.832 20.4626667,15.0373333 20.548,15.224 C20.6333333,15.4106667 20.7506667,15.5733333 20.9,15.712 C21.0493333,15.8506667 21.2226667,15.96 21.42,16.04 C21.6173333,16.12 21.828,16.16 22.052,16.16 Z M33.5445714,16 L33.5445714,13.664 L28.9205714,13.664 L31.5445714,11.328 C31.8005714,11.0933333 32.0485714,10.856 32.2885714,10.616 C32.5285714,10.376 32.7419047,10.1173333 32.9285714,9.84 C33.1152381,9.56266667 33.2619047,9.26133333 33.3685714,8.936 C33.4752381,8.61066667 33.5285714,8.24533333 33.5285714,7.84 C33.5285714,7.25333333 33.4139047,6.74133333 33.1845714,6.304 C32.9552381,5.86666667 32.6485714,5.504 32.2645714,5.216 C31.8805714,4.928 31.4432381,4.71466667 30.9525714,4.576 C30.4619047,4.43733333 29.9552381,4.368 29.4325714,4.368 C28.8779047,4.368 28.3525714,4.45066667 27.8565714,4.616 C27.3605714,4.78133333 26.9205714,5.02133333 26.5365714,5.336 C26.1525714,5.65066667 25.8352381,6.032 25.5845714,6.48 C25.3339047,6.928 25.1765714,7.44 25.1125714,8.016 L25.1125714,8.016 L27.6885714,8.368 C27.7419047,7.856 27.9099047,7.44266667 28.1925714,7.128 C28.4752381,6.81333333 28.8405714,6.656 29.2885714,6.656 C29.7152381,6.656 30.0565714,6.78133333 30.3125714,7.032 C30.5685714,7.28266667 30.6965714,7.61066667 30.6965714,8.016 C30.6965714,8.35733333 30.6112381,8.66666667 30.4405714,8.944 C30.2699047,9.22133333 30.0459047,9.49333333 29.7685714,9.76 L29.7685714,9.76 L25.3525714,13.76 L25.3525714,16 L33.5445714,16 Z" id="v1.2"></path>
            </g>
            <g filter="url(#filter-4)" id="Logos-/-Parts-/-SKTiled-Text">
                <g transform="translate(1.000000, 10.000000)">
                    <path d="M29.0896203,16.8721519 C25.0992405,14.6073418 20.0303797,12.8278481 16.9027848,12.8278481 C14.5301266,12.8278481 12.9663291,13.6906329 12.9663291,15.4162025 C12.9663291,21.6713924 32.8643038,18.1124051 32.8643038,31.7012658 C32.8643038,39.4124051 26.0698734,43.3488608 17.6577215,43.3488608 C11.3486076,43.3488608 4.76987342,41.0301266 0.240253165,37.3093671 L4.06886076,29.5982278 C7.95139241,32.941519 13.8291139,35.3141772 17.7655696,35.3141772 C20.6774684,35.3141772 22.5108861,34.2356962 22.5108861,32.2405063 C22.5108861,25.8235443 2.61291139,29.7060759 2.61291139,16.3329114 C2.61291139,9.26886076 8.59848101,4.79316456 17.7116456,4.79316456 C23.2658228,4.79316456 28.8739241,6.51873418 32.8103797,9.05316456 L29.0896203,16.8721519 Z M74.2240506,43.0253165 L62.4146835,43.0253165 L52.6005063,28.4118987 L47.7473418,33.8043038 L47.7473418,43.0253165 L37.8792405,43.0253165 L37.8792405,5.22455696 L47.7473418,5.22455696 L47.7473418,21.0782278 L61.9293671,5.22455696 L73.3612658,5.22455696 L59.3410127,20.8625316 L74.2240506,43.0253165 Z M74.9789873,5.22455696 L107.387342,5.22455696 L107.387342,13.3670886 L96.0632911,13.3670886 L96.0632911,43.0253165 L86.1951899,43.0253165 L86.1951899,13.3670886 L74.9789873,13.3670886 L74.9789873,5.22455696 Z M116.176962,0.425316456 C119.142785,0.425316456 121.245823,2.52835443 121.245823,5.54810127 C121.245823,8.5678481 119.142785,10.6708861 116.176962,10.6708861 C113.211139,10.6708861 111.108101,8.5678481 111.108101,5.54810127 C111.108101,2.52835443 113.211139,0.425316456 116.176962,0.425316456 Z M111.377722,13.8524051 L120.922278,13.8524051 L120.922278,43.0253165 L111.377722,43.0253165 L111.377722,13.8524051 Z M128.52557,3.01367089 L138.124051,3.01367089 L138.124051,43.0253165 L128.52557,43.0253165 L128.52557,3.01367089 Z M158.561266,13.5288608 C168.752911,13.5288608 173.92962,20.3772152 173.282532,31.0002532 L153.007089,31.0002532 C153.923797,34.2896203 156.35038,36.123038 159.639747,36.123038 C162.120253,36.123038 164.546835,35.098481 166.488101,33.1572152 L171.503038,38.1721519 C168.537215,41.515443 164.169367,43.3488608 158.776962,43.3488608 C149.232405,43.3488608 143.354684,37.4711392 143.354684,28.5736709 C143.354684,19.5144304 149.448101,13.5288608 158.561266,13.5288608 Z M152.791392,25.8774684 L164.007595,25.8774684 C164.007595,22.5341772 161.850633,20.2693671 158.61519,20.2693671 C155.487595,20.2693671 153.438481,22.5341772 152.791392,25.8774684 Z M198.087595,3.01367089 L207.686076,3.01367089 L207.686076,43.0253165 L198.087595,43.0253165 L198.087595,39.2506329 C196.092405,41.9468354 193.126582,43.4027848 189.459747,43.4027848 C181.263291,43.4027848 175.870886,37.3632911 175.870886,28.3040506 C175.870886,19.4065823 181.209367,13.5288608 189.244051,13.5288608 C193.018734,13.5288608 196.038481,15.0387342 198.087595,17.6810127 L198.087595,3.01367089 Z M191.832405,35.8534177 C195.553165,35.8534177 198.087595,32.8875949 198.087595,28.5736709 C198.087595,24.2058228 195.553165,21.2939241 191.832405,21.2939241 C188.057722,21.2939241 185.523291,24.2597468 185.523291,28.5736709 C185.523291,32.8875949 188.057722,35.8534177 191.832405,35.8534177 Z" id="Logo" fill="#FFFFFF"></path>
                </g>
            </g>
        </g>
    </g>
</svg>