<?xml version="1.0" encoding="UTF-8"?>
<svg width="429px" height="100px" viewBox="0 0 429 100" version="1.1" xmlns="http://www.w3.org/2000/svg" xmlns:xlink="http://www.w3.org/1999/xlink">
    <title>Docs/images/swift5-logo</title>
    <g id="Docs/images/swift5-logo" stroke="none" stroke-width="1" fill="none" fill-rule="evenodd">
        <g id="Swift-5-Logo">
            <path d="M169.881367,80.4281346 C182.982412,80.4281346 191.326531,73.4486429 191.326531,62.3467615 C191.326531,53.775456 186.491621,48.8367514 174.716277,46.224544 L168.555666,44.8776246 C161.264311,43.2449949 158.378961,40.3878931 158.378961,36.1022404 C158.378961,30.7145626 163.213871,27.3676719 169.803385,27.3676719 C176.626846,27.3676719 181.266799,31.0002728 181.812676,36.9185552 L190.273768,36.9185552 C190.00083,26.6329886 181.851667,19.5718654 169.920358,19.5718654 C157.950058,19.5718654 149.488966,26.5105413 149.488966,36.5920292 C149.488966,45.0817033 154.596814,50.5510125 165.865273,53.0407727 L171.986892,54.3876921 C179.512195,56.1019532 182.475527,58.959055 182.475527,63.530418 C182.475527,68.7956485 177.367679,72.6323281 170.232288,72.6323281 C162.745976,72.6323281 157.443172,69.1221744 156.663348,63.2855235 L148.163265,63.2855235 C148.709142,73.7751689 157.170234,80.4281346 169.881367,80.4281346 Z M218.106206,79.5107034 L226.680133,47.2122417 L226.875885,47.2122417 L235.528113,79.5107034 L244.336943,79.5107034 L255.612245,36.3914373 L247.234069,36.3914373 L239.717201,70.3294148 L239.521449,70.3294148 L230.908372,36.3914373 L222.765098,36.3914373 L214.19117,70.3294148 L214.034569,70.3294148 L206.517701,36.3914373 L198.061224,36.3914373 L209.375677,79.5107034 L218.106206,79.5107034 Z M265.274158,29.3577982 C267.90386,29.3577982 270,27.0790175 270,24.3119266 C270,21.5041432 267.90386,19.266055 265.274158,19.266055 C262.644455,19.266055 260.510204,21.5041432 260.510204,24.3119266 C260.510204,27.0790175 262.644455,29.3577982 265.274158,29.3577982 Z M270,79.5107034 L270,36.3914373 L261.734694,36.3914373 L261.734694,79.5107034 L270,79.5107034 Z M288.942389,79.5107034 L288.942389,43.5387293 L297.089711,43.5387293 L297.089711,36.6383166 L288.825999,36.6383166 L288.825999,32.596063 C288.825999,28.7987944 290.533057,26.8797447 294.179953,26.8797447 C295.30506,26.8797447 296.430166,26.9614064 297.244898,27.1247298 L297.244898,20.5917947 C296.158588,20.3876405 294.257547,20.1834862 292.550489,20.1834862 C284.24798,20.1834862 280.523491,24.1032473 280.523491,32.4327396 L280.523491,36.6383166 L274.897959,36.6383166 L274.897959,43.5387293 L280.523491,43.5387293 L280.523491,79.5107034 L288.942389,79.5107034 Z M317.603115,79.8165138 C319.484962,79.8165138 321.36681,79.6528538 322.307734,79.4073638 L322.307734,72.4108988 C321.758861,72.5336438 320.386681,72.6154738 319.524168,72.6154738 C316.074114,72.6154738 314.505908,70.9379588 314.505908,67.2146939 L314.505908,43.4839941 L322.346939,43.4839941 L322.346939,36.4875291 L314.505908,36.4875291 L314.505908,26.2996942 L305.998389,26.2996942 L305.998389,36.4875291 L300,36.4875291 L300,43.4839941 L305.998389,43.4839941 L305.998389,68.1966539 C305.998389,76.5023988 309.252417,79.8165138 317.603115,79.8165138 Z M367.43457,80.4281346 C379.637123,80.4281346 388.163265,72.069317 388.163265,60.0407747 C388.163265,48.7869521 380.380227,40.6320082 369.585661,40.6320082 C364.031936,40.6320082 359.338646,42.8746177 356.796448,46.8297655 L356.600894,46.8297655 L358.321767,28.1957187 L384.877963,28.1957187 L384.877963,20.4892966 L351.242722,20.4892966 L348.465859,54.4138634 L356.131565,54.4138634 C358.51732,50.0917431 362.545727,47.8491335 367.591013,47.8491335 C374.630947,47.8491335 379.598012,53.0275229 379.598012,60.285423 C379.598012,67.6248726 374.670058,72.803262 367.512792,72.803262 C361.215962,72.803262 356.444451,68.8073394 355.818679,62.9765545 L347.44898,62.9765545 C347.957419,73.2517839 356.170676,80.4281346 367.43457,80.4281346 Z" id="Text" fill="#000000" fill-rule="nonzero"></path>
            <g id="Icon" transform="translate(37.346939, 6.116208)">
                <path d="M12.258719,-4.95266919e-16 L75.2923014,4.95266919e-16 C79.5549251,-2.87764343e-16 81.1006554,0.443827626 82.6590069,1.27724313 C84.2173584,2.11065863 85.4403618,3.333662 86.2737773,4.8920135 C87.1071928,6.45036499 87.5510204,7.99609533 87.5510204,12.258719 L87.5510204,75.2030547 C87.5510204,79.4656784 87.1071928,81.0114087 86.2737773,82.5697602 C85.4403618,84.1281117 84.2173584,85.3511151 82.6590069,86.1845306 C81.1006554,87.0179461 79.5549251,87.4617737 75.2923014,87.4617737 L12.258719,87.4617737 C7.99609533,87.4617737 6.45036499,87.0179461 4.8920135,86.1845306 C3.333662,85.3511151 2.11065863,84.1281117 1.27724313,82.5697602 C0.443827626,81.0114087 1.91842895e-16,79.4656784 -3.30177946e-16,75.2030547 L3.30177946e-16,12.258719 C-1.91842895e-16,7.99609533 0.443827626,6.45036499 1.27724313,4.8920135 C2.11065863,3.333662 3.333662,2.11065863 4.8920135,1.27724313 C6.45036499,0.443827626 7.99609533,2.87764343e-16 12.258719,-4.95266919e-16 Z" id="Icon-BG" fill="#DE5D43"></path>
                <path d="M53.9754267,12.5382263 C64.4218841,17.9048702 71.5687011,28.7879614 71.5687011,41.340294 C71.5687011,42.7727217 71.4756312,44.1834115 71.2952087,45.5666462 C71.2642538,45.9977581 71.1919114,46.4751378 71.0749125,47.0012758 C70.9260147,47.8468308 70.7441447,48.6804209 70.5308548,49.5013424 C69.9487233,52.6736924 70.1282017,54.7076554 71.327622,56.5250615 L71.3698764,56.588373 C74.0431366,60.5495971 75.1400482,64.9245562 74.5292859,69.7901377 C74.4002066,70.8184363 74.2305906,71.8354856 74.0215674,72.8391529 C72.5132376,68.7003245 68.5433554,65.7451362 63.8832572,65.7451362 C61.9691765,65.7451362 60.1018189,66.4401804 58.2116346,67.5349004 C57.2275395,68.2510835 56.2010418,68.9124421 55.1370195,69.5152674 C53.8408883,70.2897263 52.3868968,70.9631648 50.8962,71.5262808 L50.701563,71.5991043 C47.1304806,72.9571858 43.2564909,73.7003058 39.2089375,73.7003058 C26.4140243,73.7003058 15.3535071,66.2744166 10.1020408,55.4973243 C14.163263,57.2753788 18.6494954,58.2618835 23.3661366,58.2618835 C29.9041427,58.2618835 35.9994341,56.3663819 41.1324525,53.0949408 L13.6696124,22.2060412 L26.201732,26.7300539 L24.5169447,19.3327792 L52.5396793,40.8138485 C55.0457055,36.1530847 56.4674781,30.8227241 56.4674781,25.1602881 C56.4674781,20.7727266 55.6138475,16.5845427 54.0636074,12.7527588 L53.9754267,12.5382263 Z" id="Swift-Logo" fill="#FFFFFF"></path>
            </g>
        </g>
    </g>
</svg>