<?xml version="1.0" encoding="UTF-8"?>
<svg width="722px" height="242px" viewBox="0 0 722 242" version="1.1" xmlns="http://www.w3.org/2000/svg" xmlns:xlink="http://www.w3.org/1999/xlink">
    <title>tiledata-setup</title>
    <defs>
        <filter x="-6.2%" y="-13.6%" width="112.3%" height="127.3%" filterUnits="objectBoundingBox" id="filter-1">
            <feOffset dx="0" dy="2" in="SourceAlpha" result="shadowOffsetOuter1"></feOffset>
            <feGaussianBlur stdDeviation="1" in="shadowOffsetOuter1" result="shadowBlurOuter1"></feGaussianBlur>
            <feColorMatrix values="0 0 0 0 0   0 0 0 0 0   0 0 0 0 0  0 0 0 0.185478584 0" type="matrix" in="shadowBlurOuter1" result="shadowMatrixOuter1"></feColorMatrix>
            <feMerge>
                <feMergeNode in="shadowMatrixOuter1"></feMergeNode>
                <feMergeNode in="SourceGraphic"></feMergeNode>
            </feMerge>
        </filter>
        <filter x="-6.2%" y="-8.8%" width="112.3%" height="117.6%" filterUnits="objectBoundingBox" id="filter-2">
            <feOffset dx="0" dy="2" in="SourceAlpha" result="shadowOffsetOuter1"></feOffset>
            <feGaussianBlur stdDeviation="1" in="shadowOffsetOuter1" result="shadowBlurOuter1"></feGaussianBlur>
            <feColorMatrix values="0 0 0 0 0   0 0 0 0 0   0 0 0 0 0  0 0 0 0.185478584 0" type="matrix" in="shadowBlurOuter1" result="shadowMatrixOuter1"></feColorMatrix>
            <feMerge>
                <feMergeNode in="shadowMatrixOuter1"></feMergeNode>
                <feMergeNode in="SourceGraphic"></feMergeNode>
            </feMerge>
        </filter>
        <filter x="-6.2%" y="-13.6%" width="111.6%" height="127.3%" filterUnits="objectBoundingBox" id="filter-3">
            <feOffset dx="0" dy="2" in="SourceAlpha" result="shadowOffsetOuter1"></feOffset>
            <feGaussianBlur stdDeviation="1" in="shadowOffsetOuter1" result="shadowBlurOuter1"></feGaussianBlur>
            <feColorMatrix values="0 0 0 0 0   0 0 0 0 0   0 0 0 0 0  0 0 0 0.185478584 0" type="matrix" in="shadowBlurOuter1" result="shadowMatrixOuter1"></feColorMatrix>
            <feMerge>
                <feMergeNode in="shadowMatrixOuter1"></feMergeNode>
                <feMergeNode in="SourceGraphic"></feMergeNode>
            </feMerge>
        </filter>
        <filter x="-6.2%" y="-12.7%" width="111.6%" height="125.4%" filterUnits="objectBoundingBox" id="filter-4">
            <feOffset dx="0" dy="2" in="SourceAlpha" result="shadowOffsetOuter1"></feOffset>
            <feGaussianBlur stdDeviation="1" in="shadowOffsetOuter1" result="shadowBlurOuter1"></feGaussianBlur>
            <feColorMatrix values="0 0 0 0 0   0 0 0 0 0   0 0 0 0 0  0 0 0 0.185478584 0" type="matrix" in="shadowBlurOuter1" result="shadowMatrixOuter1"></feColorMatrix>
            <feMerge>
                <feMergeNode in="shadowMatrixOuter1"></feMergeNode>
                <feMergeNode in="SourceGraphic"></feMergeNode>
            </feMerge>
        </filter>
    </defs>
    <g id="tiledata-setup" stroke="none" stroke-width="1" fill="none" fill-rule="evenodd">
        <g id="Tile-Data-Setup" transform="translate(9.000000, 7.000000)">
            <g id="Connections" transform="translate(144.750000, 39.000000)">
                <g id="Conn1" transform="translate(0.000000, 22.500000)">
                    <path d="M123,11.25 L72,11.25 L72,120.75 L0.375,120.75" id="Path" stroke="#666A6B" stroke-width="1.5" stroke-linecap="square" stroke-linejoin="bevel" stroke-dasharray="6,6"></path>
                    <path d="M126,4.82725641 L121.94353,11.25 L126,17.6727436 L130.05647,11.25 L126,4.82725641 Z" id="Aggregate" stroke="#666A6B" stroke-width="0.75" fill="#FFFFFF" transform="translate(126.000000, 11.250000) rotate(90.000000) translate(-126.000000, -11.250000) "></path>
                    <text id="0..*" fill="#494949" fill-rule="nonzero" font-family="PTMono-Regular, PT Mono" font-size="9" font-weight="normal">
                        <tspan x="93.75" y="8">0..*</tspan>
                    </text>
                </g>
                <g id="Conn2">
                    <line x1="8.355" y1="11.625" x2="132.375" y2="11.625" id="Path" stroke="#666A6B" stroke-width="1.5" stroke-linecap="square" stroke-linejoin="bevel" stroke-dasharray="6,6"></line>
                    <path d="M7.5,5.20225641 L3.44353036,11.625 L7.5,18.0477436 L11.5564696,11.625 L7.5,5.20225641 Z" id="Aggregate-Copy" stroke="#666A6B" stroke-width="0.75" fill="#FFFFFF" transform="translate(7.500000, 11.625000) rotate(90.000000) translate(-7.500000, -11.625000) "></path>
                    <text id="0..*" fill="#494949" fill-rule="nonzero" font-family="PTMono-Regular, PT Mono" font-size="9" font-weight="normal">
                        <tspan x="16.077" y="8.435">0..*</tspan>
                    </text>
                </g>
                <g id="Conn3" transform="translate(277.500000, 6.750000)" stroke="#666A6B">
                    <line x1="0" y1="4.875" x2="126.555" y2="4.875" id="Path" stroke-width="1.5" stroke-linecap="square" stroke-linejoin="bevel" stroke-dasharray="6,6"></line>
                    <path d="M126.75,-1.54774359 L122.69353,4.875 L126.75,11.2977436 L130.80647,4.875 L126.75,-1.54774359 Z" id="Aggregate-Copy-2" stroke-width="0.75" fill="#FFFFFF" transform="translate(126.750000, 4.875000) rotate(90.000000) translate(-126.750000, -4.875000) "></path>
                </g>
            </g>
            <g id="SKTile" filter="url(#filter-1)" transform="translate(554.250000, 18.000000)">
                <g id="Graphic_5">
                    <path d="M1.875,0.1875 L144,0.1875 C144.82845,0.1875 145.5,0.85905 145.5,1.6875 L145.5,63.5625 C145.5,64.39095 144.82845,65.0625 144,65.0625 L1.875,65.0625 C1.04655,65.0625 0.375,64.39095 0.375,63.5625 L0.375,1.6875 C0.375,0.85905 1.04655,0.1875 1.875,0.1875 Z" id="Path" fill="#F6F8F7" fill-rule="nonzero"></path>
                    <path d="M1.875,0.1875 L144,0.1875 C144.82845,0.1875 145.5,0.85905 145.5,1.6875 L145.5,63.5625 C145.5,64.39095 144.82845,65.0625 144,65.0625 L1.875,65.0625 C1.04655,65.0625 0.375,64.39095 0.375,63.5625 L0.375,1.6875 C0.375,0.85905 1.04655,0.1875 1.875,0.1875 Z" id="Path" stroke="#494949" stroke-width="1.5" stroke-linecap="round" stroke-linejoin="round"></path>
                </g>
                <g id="Graphic_4" transform="translate(0.000000, 17.250000)">
                    <path d="M1.875,0.375 L144,0.375 C144.82845,0.375 145.5,1.04655 145.5,1.875 L145.5,46.3125 C145.5,47.14095 144.82845,47.8125 144,47.8125 L1.875,47.8125 C1.04655,47.8125 0.375,47.14095 0.375,46.3125 L0.375,1.875 C0.375,1.04655 1.04655,0.375 1.875,0.375 Z" id="Path" stroke="#494949" stroke-width="1.5" stroke-linecap="round" stroke-linejoin="round"></path>
                    <g id="Group" transform="translate(4.875000, 4.875000)" fill="#515556" fill-rule="nonzero" font-family="PTSans-Regular, PT Sans" font-size="9.75" font-weight="normal">
                        <text id="tileData:-SKTilesetData">
                            <tspan x="0" y="9">tileData: SKTilesetData</tspan>
                        </text>
                    </g>
                </g>
                <g id="Graphic_3">
                    <path d="M1.875,0.1875 L144,0.1875 C144.82845,0.1875 145.5,0.85905 145.5,1.6875 L145.5,16.125 C145.5,16.95345 144.82845,17.625 144,17.625 L1.875,17.625 C1.04655,17.625 0.375,16.95345 0.375,16.125 L0.375,1.6875 C0.375,0.85905 1.04655,0.1875 1.875,0.1875 Z" id="Path" stroke="#494949" stroke-width="1.5" stroke-linecap="round" stroke-linejoin="round"></path>
                    <g id="Group" transform="translate(58.875000, 2.326125)" fill="#494949" fill-rule="nonzero" font-family="PTSans-Bold, PT Sans" font-size="9.75" font-weight="bold">
                        <text id="SKTile">
                            <tspan x="0.69525" y="9">SKTile</tspan>
                        </text>
                    </g>
                </g>
            </g>
            <g id="SKTilesetData" filter="url(#filter-2)" transform="translate(276.750000, 0.000000)">
                <g id="Graphic_9">
                    <path d="M1.875,0 L144,0 C144.82845,0 145.5,0.67155 145.5,1.5 L145.5,99.75 C145.5,100.57845 144.82845,101.25 144,101.25 L1.875,101.25 C1.04655,101.25 0.375,100.57845 0.375,99.75 L0.375,1.5 C0.375,0.67155 1.04655,0 1.875,0 Z" id="Path" fill="#F6F8F7" fill-rule="nonzero"></path>
                    <path d="M1.875,0 L144,0 C144.82845,0 145.5,0.67155 145.5,1.5 L145.5,99.75 C145.5,100.57845 144.82845,101.25 144,101.25 L1.875,101.25 C1.04655,101.25 0.375,100.57845 0.375,99.75 L0.375,1.5 C0.375,0.67155 1.04655,0 1.875,0 Z" id="Path" stroke="#494949" stroke-width="1.5" stroke-linecap="round" stroke-linejoin="round"></path>
                </g>
                <g id="Graphic_8" transform="translate(0.000000, 17.250000)">
                    <path d="M1.875,0.1875 L144,0.1875 C144.82845,0.1875 145.5,0.85905 145.5,1.6875 L145.5,82.5 C145.5,83.32845 144.82845,84 144,84 L1.875,84 C1.04655,84 0.375,83.32845 0.375,82.5 L0.375,1.6875 C0.375,0.85905 1.04655,0.1875 1.875,0.1875 Z" id="Path" stroke="#494949" stroke-width="1.5" stroke-linecap="round" stroke-linejoin="round"></path>
                    <g id="Group" transform="translate(4.875000, 4.687500)" fill="#515556" fill-rule="nonzero" font-family="PTSans-Regular, PT Sans" font-size="9.75" font-weight="normal">
                        <text id="id:-UInt32">
                            <tspan x="0" y="9">id: UInt32</tspan>
                        </text>
                        <text id="texture:-SKTexture!">
                            <tspan x="0" y="24">texture: SKTexture!</tspan>
                        </text>
                        <text id="tileSize:-CGSize">
                            <tspan x="0" y="39">tileSize: CGSize</tspan>
                        </text>
                        <text id="frames:-[TileAnimationFrame]">
                            <tspan x="0" y="54">frames: [TileAnimationFrame]</tspan>
                        </text>
                        <text id="animationAction:-SKAction?">
                            <tspan x="0" y="69">animationAction: SKAction?</tspan>
                        </text>
                    </g>
                </g>
                <g id="Graphic_7">
                    <path d="M1.875,0 L144,0 C144.82845,0 145.5,0.67155 145.5,1.5 L145.5,15.9375 C145.5,16.76595 144.82845,17.4375 144,17.4375 L1.875,17.4375 C1.04655,17.4375 0.375,16.76595 0.375,15.9375 L0.375,1.5 C0.375,0.67155 1.04655,0 1.875,0 Z" id="Path" stroke="#494949" stroke-width="1.5" stroke-linecap="round" stroke-linejoin="round"></path>
                    <g id="Group" transform="translate(43.125000, 2.138625)" fill="#494949" fill-rule="nonzero" font-family="PTSans-Bold, PT Sans" font-size="9.75" font-weight="bold">
                        <text id="SKTilesetData">
                            <tspan x="0.518625" y="9">SKTilesetData</tspan>
                        </text>
                    </g>
                </g>
            </g>
            <g id="SKTileset" filter="url(#filter-3)" transform="translate(0.000000, 18.000000)">
                <g id="Graphic_13">
                    <path d="M1.5,0.1875 L143.625,0.1875 C144.45345,0.1875 145.125,0.85905 145.125,1.6875 L145.125,63.5625 C145.125,64.39095 144.45345,65.0625 143.625,65.0625 L1.5,65.0625 C0.67155,65.0625 0,64.39095 0,63.5625 L0,1.6875 C0,0.85905 0.67155,0.1875 1.5,0.1875 Z" id="Path" fill="#F6F8F7" fill-rule="nonzero"></path>
                    <path d="M1.5,0.1875 L143.625,0.1875 C144.45345,0.1875 145.125,0.85905 145.125,1.6875 L145.125,63.5625 C145.125,64.39095 144.45345,65.0625 143.625,65.0625 L1.5,65.0625 C0.67155,65.0625 0,64.39095 0,63.5625 L0,1.6875 C0,0.85905 0.67155,0.1875 1.5,0.1875 Z" id="Path" stroke="#494949" stroke-width="1.5" stroke-linecap="round" stroke-linejoin="round"></path>
                </g>
                <g id="Graphic_12" transform="translate(0.000000, 17.250000)">
                    <path d="M1.5,0.375 L143.625,0.375 C144.45345,0.375 145.125,1.04655 145.125,1.875 L145.125,46.3125 C145.125,47.14095 144.45345,47.8125 143.625,47.8125 L1.5,47.8125 C0.67155,47.8125 0,47.14095 0,46.3125 L0,1.875 C0,1.04655 0.67155,0.375 1.5,0.375 Z" id="Path" stroke="#494949" stroke-width="1.5" stroke-linecap="round" stroke-linejoin="round"></path>
                    <g id="Group" transform="translate(4.500000, 4.875000)" fill="#515556" fill-rule="nonzero" font-family="PTSans-Regular, PT Sans" font-size="9.75" font-weight="normal">
                        <text id="firstGID:-UInt32">
                            <tspan x="0" y="9">firstGID: UInt32</tspan>
                        </text>
                        <text id="tileData:-Set&lt;SKTilesetData&gt;">
                            <tspan x="0" y="24">tileData: Set&lt;SKTilesetData&gt;</tspan>
                        </text>
                    </g>
                </g>
                <g id="Graphic_11">
                    <path d="M1.5,0.1875 L143.625,0.1875 C144.45345,0.1875 145.125,0.85905 145.125,1.6875 L145.125,16.125 C145.125,16.95345 144.45345,17.625 143.625,17.625 L1.5,17.625 C0.67155,17.625 0,16.95345 0,16.125 L0,1.6875 C0,0.85905 0.67155,0.1875 1.5,0.1875 Z" id="Path" stroke="#494949" stroke-width="1.5" stroke-linecap="round" stroke-linejoin="round"></path>
                    <g id="Group" transform="translate(52.500000, 2.326125)" fill="#494949" fill-rule="nonzero" font-family="PTSans-Bold, PT Sans" font-size="9.75" font-weight="bold">
                        <text id="SKTileset">
                            <tspan x="0.460125" y="9">SKTileset</tspan>
                        </text>
                    </g>
                </g>
            </g>
            <g id="TileAnimationFrame" filter="url(#filter-4)" transform="translate(0.000000, 147.000000)">
                <g id="Graphic_20">
                    <path d="M1.5,0 L143.625,0 C144.45345,0 145.125,0.67155 145.125,1.5 L145.125,69 C145.125,69.82845 144.45345,70.5 143.625,70.5 L1.5,70.5 C0.67155,70.5 0,69.82845 0,69 L0,1.5 C0,0.67155 0.67155,0 1.5,0 Z" id="Path" fill="#F6F8F7" fill-rule="nonzero"></path>
                    <path d="M1.5,0 L143.625,0 C144.45345,0 145.125,0.67155 145.125,1.5 L145.125,69 C145.125,69.82845 144.45345,70.5 143.625,70.5 L1.5,70.5 C0.67155,70.5 0,69.82845 0,69 L0,1.5 C0,0.67155 0.67155,0 1.5,0 Z" id="Path" stroke="#494949" stroke-width="1.5" stroke-linecap="round" stroke-linejoin="round"></path>
                </g>
                <g id="Graphic_19" transform="translate(0.000000, 18.750000)">
                    <path d="M1.5,0.199425 L143.625,0.199425 C144.45345,0.199425 145.125,0.870975 145.125,1.699425 L145.125,50.25 C145.125,51.07845 144.45345,51.75 143.625,51.75 L1.5,51.75 C0.67155,51.75 0,51.07845 0,50.25 L0,1.699425 C0,0.870975 0.67155,0.199425 1.5,0.199425 Z" id="Path" stroke="#494949" stroke-width="1.5" stroke-linecap="round" stroke-linejoin="round"></path>
                    <g id="Group" transform="translate(4.500000, 4.699425)" fill="#515556" fill-rule="nonzero" font-family="PTSans-Regular, PT Sans" font-size="9.75" font-weight="normal">
                        <text id="id:-UInt32">
                            <tspan x="0" y="9">id: UInt32</tspan>
                        </text>
                        <text id="duration:-Int">
                            <tspan x="0" y="24">duration: Int</tspan>
                        </text>
                        <text id="texture:-SKTexture?">
                            <tspan x="0" y="39">texture: SKTexture?</tspan>
                        </text>
                    </g>
                </g>
                <g id="Graphic_18">
                    <path d="M1.5,0 L143.625,0 C144.45345,0 145.125,0.67155 145.125,1.5 L145.125,17.449425 C145.125,18.277875 144.45345,18.949425 143.625,18.949425 L1.5,18.949425 C0.67155,18.949425 0,18.277875 0,17.449425 L0,1.5 C0,0.67155 0.67155,0 1.5,0 Z" id="Path" stroke="#494949" stroke-width="1.5" stroke-linecap="round" stroke-linejoin="round"></path>
                    <g id="Group" transform="translate(30.000000, 2.894550)" fill="#494949" fill-rule="nonzero" font-family="PTSans-Bold, PT Sans" font-size="9.75" font-weight="bold">
                        <text id="TileAnimationFrame">
                            <tspan x="0.018375" y="9">TileAnimationFrame</tspan>
                        </text>
                    </g>
                </g>
            </g>
        </g>
    </g>
</svg>