<?xml version="1.0" encoding="UTF-8"?>
<svg width="900px" height="150px" viewBox="0 0 900 150" version="1.1" xmlns="http://www.w3.org/2000/svg" xmlns:xlink="http://www.w3.org/1999/xlink">
    <title>camera-delegate</title>
    <defs>
        <filter x="-1.5%" y="-16.4%" width="102.9%" height="134.2%" filterUnits="objectBoundingBox" id="filter-1">
            <feOffset dx="0" dy="2" in="SourceAlpha" result="shadowOffsetOuter1"></feOffset>
            <feGaussianBlur stdDeviation="2" in="shadowOffsetOuter1" result="shadowBlurOuter1"></feGaussianBlur>
            <feColorMatrix values="0 0 0 0 0   0 0 0 0 0   0 0 0 0 0  0 0 0 0.5 0" type="matrix" in="shadowBlurOuter1" result="shadowMatrixOuter1"></feColorMatrix>
            <feMerge>
                <feMergeNode in="shadowMatrixOuter1"></feMergeNode>
                <feMergeNode in="SourceGraphic"></feMergeNode>
            </feMerge>
        </filter>
    </defs>
    <g id="camera-delegate" stroke="none" stroke-width="1" fill="none" fill-rule="evenodd">
        <g id="Connections" transform="translate(157.250000, 69.249000)">
            <g id="Connection-2" transform="translate(411.750000, 0.000000)">
                <path id="conn-start" d="M156.012848,0.653170817 L156.095131,0.690212231 L164.095131,5.19021223 C164.406638,5.36543493 164.432597,5.79116076 164.173007,6.00813398 L164.095131,6.06178777 L156.095131,10.5617878 C155.854452,10.6971697 155.549594,10.6118096 155.414212,10.3711306 C155.293873,10.1571938 155.347947,9.89254793 155.530485,9.74129589 L155.604869,9.69021223 L161.943,6.125 L136.807557,6.126 C136.531415,6.126 136.307557,5.90214237 136.307557,5.626 C136.307557,5.38054011 136.484432,5.17639163 136.717682,5.13405567 L136.807557,5.126 L161.939,5.125 L155.604869,1.56178777 C155.390933,1.4414483 155.299717,1.18720215 155.377171,0.963152165 L155.414212,0.88086938 C155.534552,0.666932546 155.788798,0.575716759 156.012848,0.653170817 Z" fill="#000000" fill-rule="nonzero"></path>
                <text id="conn-label" fill="#000000" fill-rule="nonzero" font-family="HelveticaNeue, Helvetica Neue" font-size="9" font-weight="normal">
                    <tspan x="54.887" y="9">tap location in map</tspan>
                </text>
                <line x1="0" y1="5.626" x2="48.5" y2="5.251" id="conn-end" stroke="#000000" stroke-linecap="round" stroke-linejoin="round"></line>
            </g>
            <g id="Connection-1">
                <line x1="0" y1="5.626" x2="57.25" y2="5.251" id="conn-start" stroke="#000000" stroke-linecap="round" stroke-linejoin="round"></line>
                <text id="conn-label" fill="#000000" fill-rule="nonzero" font-family="HelveticaNeue, Helvetica Neue" font-size="9" font-weight="normal">
                    <tspan x="62.451" y="9">user tapped</tspan>
                </text>
                <path id="conn-end" d="M156.012848,0.653170817 L156.095131,0.690212231 L164.095131,5.19021223 C164.406638,5.36543493 164.432597,5.79116076 164.173007,6.00813398 L164.095131,6.06178777 L156.095131,10.5617878 C155.854452,10.6971697 155.549594,10.6118096 155.414212,10.3711306 C155.293873,10.1571938 155.347947,9.89254793 155.530485,9.74129589 L155.604869,9.69021223 L161.943,6.125 L115.142643,6.126 C114.866501,6.126 114.642643,5.90214237 114.642643,5.626 C114.642643,5.38054011 114.819518,5.17639163 115.052768,5.13405567 L115.142643,5.126 L161.939,5.125 L155.604869,1.56178777 C155.390933,1.4414483 155.299717,1.18720215 155.377171,0.963152165 L155.414212,0.88086938 C155.534552,0.666932546 155.788798,0.575716759 156.012848,0.653170817 Z" fill="#000000" fill-rule="nonzero"></path>
            </g>
        </g>
        <g id="Classes" filter="url(#filter-1)" transform="translate(7.000000, 38.000000)">
            <g id="SKTilemap" transform="translate(735.000000, 0.000000)">
                <g id="Graphic_8">
                    <path d="M2.25,0.875 L147.875,0.875 C148.9796,0.875 149.875,1.7704 149.875,2.875 L149.875,70.875 C149.875,71.9796 148.9796,72.875 147.875,72.875 L2.25,72.875 C1.1454,72.875 0.25,71.9796 0.25,70.875 L0.25,2.875 C0.25,1.7704 1.1454,0.875 2.25,0.875 Z" id="Path" fill="#F6F8F7" fill-rule="nonzero"></path>
                    <path d="M2.25,0.875 L147.875,0.875 C148.9796,0.875 149.875,1.7704 149.875,2.875 L149.875,70.875 C149.875,71.9796 148.9796,72.875 147.875,72.875 L2.25,72.875 C1.1454,72.875 0.25,71.9796 0.25,70.875 L0.25,2.875 C0.25,1.7704 1.1454,0.875 2.25,0.875 Z" id="Path" stroke="#494949" stroke-width="1.5" stroke-linecap="round" stroke-linejoin="round"></path>
                </g>
                <g id="Graphic_7">
                    <path d="M2.25,0.875 L147.875,0.875 C148.9796,0.875 149.875,1.7704 149.875,2.875 L149.875,22.875 C149.875,23.9796 148.9796,24.875 147.875,24.875 L2.25,24.875 C1.1454,24.875 0.25,23.9796 0.25,22.875 L0.25,2.875 C0.25,1.7704 1.1454,0.875 2.25,0.875 Z" id="Path" stroke="#494949" stroke-linecap="round" stroke-linejoin="round"></path>
                    <g id="Group" transform="translate(45.250000, 4.101500)" fill="#494949" fill-rule="nonzero" font-family="PTSans-Bold, PT Sans" font-size="13" font-weight="bold">
                        <text id="SKTilemap">
                            <tspan x="0.023" y="12">SKTilemap</tspan>
                        </text>
                    </g>
                </g>
            </g>
            <g id="SKTiledSceneCameraDelegate" transform="translate(323.000000, 0.000000)">
                <g id="Graphic_11">
                    <path d="M2.5,0.875 L237,0.875 C238.1046,0.875 239,1.7704 239,2.875 L239,70.875 C239,71.9796 238.1046,72.875 237,72.875 L2.5,72.875 C1.3954,72.875 0.5,71.9796 0.5,70.875 L0.5,2.875 C0.5,1.7704 1.3954,0.875 2.5,0.875 Z" id="Path" fill="#F6F8F7" fill-rule="nonzero"></path>
                    <path d="M2.5,0.875 L237,0.875 C238.1046,0.875 239,1.7704 239,2.875 L239,70.875 C239,71.9796 238.1046,72.875 237,72.875 L2.5,72.875 C1.3954,72.875 0.5,71.9796 0.5,70.875 L0.5,2.875 C0.5,1.7704 1.3954,0.875 2.5,0.875 Z" id="Path" stroke="#494949" stroke-width="1.5" stroke-linecap="round" stroke-linejoin="round"></path>
                </g>
                <g id="Graphic_10">
                    <path d="M2.5,0.875 L237,0.875 C238.1046,0.875 239,1.7704 239,2.875 L239,22.875 C239,23.9796 238.1046,24.875 237,24.875 L2.5,24.875 C1.3954,24.875 0.5,23.9796 0.5,22.875 L0.5,2.875 C0.5,1.7704 1.3954,0.875 2.5,0.875 Z" id="Path" stroke="#494949" stroke-linecap="round" stroke-linejoin="round"></path>
                    <g id="Group" transform="translate(35.500000, 4.101500)" fill="#494949" fill-rule="nonzero" font-family="PTSans-Bold, PT Sans" font-size="13" font-weight="bold">
                        <text id="SKTiledSceneCameraDe">
                            <tspan x="0.868" y="12">SKTiledSceneCameraDelegate</tspan>
                        </text>
                    </g>
                </g>
            </g>
            <g id="SKScene">
                <g id="Graphic_5">
                    <path d="M2.625,0.875 L148.25,0.875 C149.3546,0.875 150.25,1.7704 150.25,2.875 L150.25,70.875 C150.25,71.9796 149.3546,72.875 148.25,72.875 L2.625,72.875 C1.52043,72.875 0.625,71.9796 0.625,70.875 L0.625,2.875 C0.625,1.7704 1.52043,0.875 2.625,0.875 Z" id="Path" fill="#F6F8F7" fill-rule="nonzero"></path>
                    <path d="M2.625,0.875 L148.25,0.875 C149.3546,0.875 150.25,1.7704 150.25,2.875 L150.25,70.875 C150.25,71.9796 149.3546,72.875 148.25,72.875 L2.625,72.875 C1.52043,72.875 0.625,71.9796 0.625,70.875 L0.625,2.875 C0.625,1.7704 1.52043,0.875 2.625,0.875 Z" id="Path" stroke="#494949" stroke-width="1.5" stroke-linecap="round" stroke-linejoin="round"></path>
                </g>
                <g id="Graphic_3">
                    <path d="M2.625,0.875 L148.25,0.875 C149.3546,0.875 150.25,1.7704 150.25,2.875 L150.25,22.875 C150.25,23.9796 149.3546,24.875 148.25,24.875 L2.625,24.875 C1.52043,24.875 0.625,23.9796 0.625,22.875 L0.625,2.875 C0.625,1.7704 1.52043,0.875 2.625,0.875 Z" id="Path" stroke="#494949" stroke-linecap="round" stroke-linejoin="round"></path>
                    <g id="Group" transform="translate(51.625000, 4.101500)" fill="#494949" fill-rule="nonzero" font-family="PTSans-Bold, PT Sans" font-size="13" font-weight="bold">
                        <text id="SKScene">
                            <tspan x="0.042" y="12">SKScene</tspan>
                        </text>
                    </g>
                </g>
            </g>
        </g>
    </g>
</svg>