<?xml version="1.0" encoding="UTF-8"?>
<svg width="860px" height="96px" viewBox="0 0 860 96" version="1.1" xmlns="http://www.w3.org/2000/svg" xmlns:xlink="http://www.w3.org/1999/xlink">
    <title>doc-banner-centered</title>
    <defs>
        <linearGradient x1="50%" y1="4.52666905%" x2="50%" y2="127.982156%" id="linearGradient-1">
            <stop stop-color="#FF6A6A" offset="0%"></stop>
            <stop stop-color="#B13535" offset="100%"></stop>
        </linearGradient>
        <filter x="-3.2%" y="-20.3%" width="106.5%" height="149.3%" filterUnits="objectBoundingBox" id="filter-2">
            <feOffset dx="0" dy="2" in="SourceAlpha" result="shadowOffsetOuter1"></feOffset>
            <feGaussianBlur stdDeviation="2" in="shadowOffsetOuter1" result="shadowBlurOuter1"></feGaussianBlur>
            <feColorMatrix values="0 0 0 0 0   0 0 0 0 0   0 0 0 0 0  0 0 0 0.5 0" type="matrix" in="shadowBlurOuter1" result="shadowMatrixOuter1"></feColorMatrix>
            <feMerge>
                <feMergeNode in="shadowMatrixOuter1"></feMergeNode>
                <feMergeNode in="SourceGraphic"></feMergeNode>
            </feMerge>
        </filter>
        <filter id="filter-3">
            <feColorMatrix in="SourceGraphic" type="matrix" values="0 0 0 0 1.000000 0 0 0 0 1.000000 0 0 0 0 1.000000 0 0 0 1.000000 0"></feColorMatrix>
        </filter>
        <filter id="filter-4">
            <feColorMatrix in="SourceGraphic" type="matrix" values="0 0 0 0 1.000000 0 0 0 0 0.647059 0 0 0 0 0.647059 0 0 0 1.000000 0"></feColorMatrix>
        </filter>
    </defs>
    <g id="doc-banner-centered" stroke="none" stroke-width="1" fill="none" fill-rule="evenodd">
        <rect id="Background" fill="url(#linearGradient-1)" x="1" y="0" width="855" height="96" rx="14"></rect>
        <g id="Logos-/-Tiles-/-Cubes-(Top)" transform="translate(254.000000, 9.000000)">
            <g id="Tiles-" transform="translate(0.000000, 23.108108)">
                <g id="Tile">
                    <polygon id="left-side" fill="#A1A7DD" points="0 15.9189189 25 31.8378378 25 36.972973 0 21.0540541"></polygon>
                    <polygon id="right-side" fill="#666EB8" points="25 31.8378378 50 15.9189189 50 21.0540541 25 36.972973"></polygon>
                    <polygon id="top" fill="#848CDF" points="25 0 0 15.9189189 25 31.8378378 50 15.9189189"></polygon>
                    <path d="M0.216577215,16.0568259 L24.7834228,31.6999308 C24.9183192,31.7858271 25,31.9346721 25,32.0945946 C25,32.1724109 24.9369174,32.2354934 24.8591012,32.2354934 C24.8322911,32.2354934 24.8060374,32.2278444 24.7834228,32.2134443 L0.216577215,16.5703394 C0.0816807539,16.4844432 1.95848624e-17,16.3355982 0,16.1756757 C-9.5297454e-18,16.0978594 0.0630825561,16.0347768 0.140898833,16.0347768 C0.167708946,16.0347768 0.193962583,16.0424259 0.216577215,16.0568259 Z" id="left-rim" fill="#9EA5E8"></path>
                    <path d="M25.2165772,31.6999308 L49.7834228,16.0568259 C49.8490617,16.0150299 49.9361549,16.0343584 49.9779509,16.0999973 C49.9923509,16.1226119 50,16.1488656 50,16.1756757 C50,16.3355982 49.9183192,16.4844432 49.7834228,16.5703394 L25.2165772,32.2134443 C25.1509383,32.2552404 25.0638451,32.2359119 25.0220491,32.170273 C25.0076491,32.1476583 25,32.1214047 25,32.0945946 C25,31.9346721 25.0816808,31.7858271 25.2165772,31.6999308 Z" id="right-rim" fill="#9EA5E8"></path>
                    <rect id="front-rim" fill="#A5ADFE" x="24.744898" y="31.8378378" width="1" height="5.13513514" rx="0.5"></rect>
                </g>
                <g id="Tile" transform="translate(50.000000, 0.000000)">
                    <polygon id="left-side" fill="#A1A7DD" points="0 15.9189189 25 31.8378378 25 36.972973 0 21.0540541"></polygon>
                    <polygon id="right-side" fill="#666EB8" points="25 31.8378378 50 15.9189189 50 21.0540541 25 36.972973"></polygon>
                    <polygon id="top" fill="#848CDF" points="25 0 0 15.9189189 25 31.8378378 50 15.9189189"></polygon>
                    <path d="M0.216577215,16.0568259 L24.7834228,31.6999308 C24.9183192,31.7858271 25,31.9346721 25,32.0945946 C25,32.1724109 24.9369174,32.2354934 24.8591012,32.2354934 C24.8322911,32.2354934 24.8060374,32.2278444 24.7834228,32.2134443 L0.216577215,16.5703394 C0.0816807539,16.4844432 1.95848624e-17,16.3355982 0,16.1756757 C-9.5297454e-18,16.0978594 0.0630825561,16.0347768 0.140898833,16.0347768 C0.167708946,16.0347768 0.193962583,16.0424259 0.216577215,16.0568259 Z" id="left-rim" fill="#9EA5E8"></path>
                    <path d="M25.2165772,31.6999308 L49.7834228,16.0568259 C49.8490617,16.0150299 49.9361549,16.0343584 49.9779509,16.0999973 C49.9923509,16.1226119 50,16.1488656 50,16.1756757 C50,16.3355982 49.9183192,16.4844432 49.7834228,16.5703394 L25.2165772,32.2134443 C25.1509383,32.2552404 25.0638451,32.2359119 25.0220491,32.170273 C25.0076491,32.1476583 25,32.1214047 25,32.0945946 C25,31.9346721 25.0816808,31.7858271 25.2165772,31.6999308 Z" id="right-rim" fill="#9EA5E8"></path>
                    <rect id="front-rim" fill="#A5ADFE" x="24.744898" y="31.8378378" width="1" height="5.13513514" rx="0.5"></rect>
                </g>
                <g id="Tile" transform="translate(25.000000, 15.918919)">
                    <polygon id="left-side" fill="#7A83DA" points="0 15.9189189 25 31.8378378 25 36.972973 0 21.0540541"></polygon>
                    <polygon id="right-side" fill="#4D55A8" points="25 31.8378378 50 15.9189189 50 21.0540541 25 36.972973"></polygon>
                    <polygon id="top" fill="#5F6AD3" points="25 0 0 15.9189189 25 31.8378378 50 15.9189189"></polygon>
                    <path d="M0.216577215,16.0568259 L24.7834228,31.6999308 C24.9183192,31.7858271 25,31.9346721 25,32.0945946 C25,32.1724109 24.9369174,32.2354934 24.8591012,32.2354934 C24.8322911,32.2354934 24.8060374,32.2278444 24.7834228,32.2134443 L0.216577215,16.5703394 C0.0816807539,16.4844432 1.95848624e-17,16.3355982 0,16.1756757 C-9.5297454e-18,16.0978594 0.0630825561,16.0347768 0.140898833,16.0347768 C0.167708946,16.0347768 0.193962583,16.0424259 0.216577215,16.0568259 Z" id="left-rim" fill="#9EA5E8"></path>
                    <path d="M25.2165772,31.6999308 L49.7834228,16.0568259 C49.8490617,16.0150299 49.9361549,16.0343584 49.9779509,16.0999973 C49.9923509,16.1226119 50,16.1488656 50,16.1756757 C50,16.3355982 49.9183192,16.4844432 49.7834228,16.5703394 L25.2165772,32.2134443 C25.1509383,32.2552404 25.0638451,32.2359119 25.0220491,32.170273 C25.0076491,32.1476583 25,32.1214047 25,32.0945946 C25,31.9346721 25.0816808,31.7858271 25.2165772,31.6999308 Z" id="right-rim" fill="#9EA5E8"></path>
                    <rect id="front-rim" fill="#A5ADFE" x="24.744898" y="31.8378378" width="1" height="5.13513514" rx="0.5"></rect>
                </g>
            </g>
            <g id="Tile" transform="translate(25.000000, 0.000000)">
                <polygon id="left-side" fill="#7A83DA" points="0 15.9189189 25 31.8378378 25 36.972973 0 21.0540541"></polygon>
                <polygon id="right-side" fill="#4D55A8" points="25 31.8378378 50 15.9189189 50 21.0540541 25 36.972973"></polygon>
                <polygon id="top" fill="#5F6AD3" points="25 0 0 15.9189189 25 31.8378378 50 15.9189189"></polygon>
                <path d="M0.216577215,16.0568259 L24.7834228,31.6999308 C24.9183192,31.7858271 25,31.9346721 25,32.0945946 C25,32.1724109 24.9369174,32.2354934 24.8591012,32.2354934 C24.8322911,32.2354934 24.8060374,32.2278444 24.7834228,32.2134443 L0.216577215,16.5703394 C0.0816807539,16.4844432 1.95848624e-17,16.3355982 0,16.1756757 C-9.5297454e-18,16.0978594 0.0630825561,16.0347768 0.140898833,16.0347768 C0.167708946,16.0347768 0.193962583,16.0424259 0.216577215,16.0568259 Z" id="left-rim" fill="#9EA5E8"></path>
                <path d="M25.2165772,31.6999308 L49.7834228,16.0568259 C49.8490617,16.0150299 49.9361549,16.0343584 49.9779509,16.0999973 C49.9923509,16.1226119 50,16.1488656 50,16.1756757 C50,16.3355982 49.9183192,16.4844432 49.7834228,16.5703394 L25.2165772,32.2134443 C25.1509383,32.2552404 25.0638451,32.2359119 25.0220491,32.170273 C25.0076491,32.1476583 25,32.1214047 25,32.0945946 C25,31.9346721 25.0816808,31.7858271 25.2165772,31.6999308 Z" id="right-rim" fill="#9EA5E8"></path>
                <rect id="front-rim" fill="#A5ADFE" x="24.744898" y="31.8378378" width="1" height="5.13513514" rx="0.5"></rect>
            </g>
        </g>
        <g id="Logos-/-Banners-/-Banner-Text-Horiz" transform="translate(312.000000, 14.000000)" filter="url(#filter-2)">
            <g id="Text-Tint" transform="translate(0.000000, -2.000000)" filter="url(#filter-3)">
                <g transform="translate(0.500000, 1.000000)">
                    <path d="M20.76,58.66 C23.92,58.66 26.79,58.16 29.37,57.16 C31.95,56.16 33.98,54.67 35.46,52.69 C36.94,50.71 37.68,48.32 37.68,45.52 C37.68,42.72 37,40.45 35.64,38.71 C34.28,36.97 32.65,35.68 30.75,34.84 C28.85,34 26.44,33.16 23.52,32.32 C21.56,31.72 20.08,31.23 19.08,30.85 C18.08,30.47 17.24,29.97 16.56,29.35 C15.88,28.73 15.54,27.96 15.54,27.04 C15.54,26.08 15.93,25.35 16.71,24.85 C17.49,24.35 18.56,24.1 19.92,24.1 C21.64,24.1 23.77,24.52 26.31,25.36 C28.85,26.2 31.24,27.28 33.48,28.6 L33.48,28.6 L37.62,19.84 C35.38,18.4 32.78,17.25 29.82,16.39 C26.86,15.53 23.86,15.1 20.82,15.1 C17.46,15.1 14.51,15.63 11.97,16.69 C9.43,17.75 7.47,19.26 6.09,21.22 C4.71,23.18 4.02,25.46 4.02,28.06 C4.02,30.82 4.69,33.03 6.03,34.69 C7.37,36.35 8.98,37.59 10.86,38.41 C12.74,39.23 15.12,40.04 18,40.84 C19.92,41.36 21.41,41.81 22.47,42.19 C23.53,42.57 24.41,43.08 25.11,43.72 C25.81,44.36 26.16,45.16 26.16,46.12 C26.16,47.28 25.69,48.16 24.75,48.76 C23.81,49.36 22.52,49.66 20.88,49.66 C18.64,49.66 16.07,49.06 13.17,47.86 C10.27,46.66 7.76,45.12 5.64,43.24 L5.64,43.24 L1.38,51.82 C3.9,53.94 6.89,55.61 10.35,56.83 C13.81,58.05 17.28,58.66 20.76,58.66 Z M54.24,58 L54.24,47.56 L59.52,41.68 L70.56,58 L83.7,58 L67.14,33.28 L82.74,15.94 L70.02,15.94 L54.24,34.18 L54.24,15.94 L43.26,15.94 L43.26,58 L54.24,58 Z M108,58 L108,25 L120.6,25 L120.6,15.94 L84.54,15.94 L84.54,25 L97.02,25 L97.02,58 L108,58 Z M130.26,22 C131.9,22 133.25,21.46 134.31,20.38 C135.37,19.3 135.9,17.94 135.9,16.3 C135.9,14.62 135.37,13.25 134.31,12.19 C133.25,11.13 131.9,10.6 130.26,10.6 C128.62,10.6 127.27,11.13 126.21,12.19 C125.15,13.25 124.62,14.62 124.62,16.3 C124.62,17.94 125.15,19.3 126.21,20.38 C127.27,21.46 128.62,22 130.26,22 Z M135.66,58 L135.66,25.54 L125.04,25.54 L125.04,58 L135.66,58 Z M154.8,58 L154.8,13.48 L144.12,13.48 L144.12,58 L154.8,58 Z M177.78,58.36 C180.78,58.36 183.47,57.87 185.85,56.89 C188.23,55.91 190.26,54.48 191.94,52.6 L191.94,52.6 L186.36,47.02 C185.28,48.1 184.09,48.92 182.79,49.48 C181.49,50.04 180.14,50.32 178.74,50.32 C176.9,50.32 175.34,49.83 174.06,48.85 C172.78,47.87 171.88,46.46 171.36,44.62 L171.36,44.62 L193.92,44.62 C193.96,44.18 193.98,43.54 193.98,42.7 C193.98,37.26 192.56,32.98 189.72,29.86 C186.88,26.74 182.82,25.18 177.54,25.18 C174.18,25.18 171.22,25.87 168.66,27.25 C166.1,28.63 164.12,30.59 162.72,33.13 C161.32,35.67 160.62,38.6 160.62,41.92 C160.62,45.2 161.31,48.08 162.69,50.56 C164.07,53.04 166.06,54.96 168.66,56.32 C171.26,57.68 174.3,58.36 177.78,58.36 Z M183.6,38.92 L171.12,38.92 C171.48,37 172.23,35.48 173.37,34.36 C174.51,33.24 175.92,32.68 177.6,32.68 C179.4,32.68 180.85,33.25 181.95,34.39 C183.05,35.53 183.6,37.04 183.6,38.92 L183.6,38.92 Z M211.92,58.42 C213.96,58.42 215.79,58.03 217.41,57.25 C219.03,56.47 220.4,55.32 221.52,53.8 L221.52,53.8 L221.52,58 L232.2,58 L232.2,13.48 L221.52,13.48 L221.52,29.8 C220.36,28.32 218.95,27.18 217.29,26.38 C215.63,25.58 213.76,25.18 211.68,25.18 C208.72,25.18 206.12,25.86 203.88,27.22 C201.64,28.58 199.9,30.5 198.66,32.98 C197.42,35.46 196.8,38.34 196.8,41.62 C196.8,44.94 197.43,47.87 198.69,50.41 C199.95,52.95 201.72,54.92 204,56.32 C206.28,57.72 208.92,58.42 211.92,58.42 Z M214.56,50.02 C212.48,50.02 210.79,49.27 209.49,47.77 C208.19,46.27 207.54,44.32 207.54,41.92 C207.54,39.52 208.19,37.57 209.49,36.07 C210.79,34.57 212.48,33.82 214.56,33.82 C216.64,33.82 218.32,34.56 219.6,36.04 C220.88,37.52 221.52,39.48 221.52,41.92 C221.52,44.32 220.88,46.27 219.6,47.77 C218.32,49.27 216.64,50.02 214.56,50.02 Z" id="SHAPES" fill="#FFFFFF" fill-rule="nonzero"></path>
                </g>
            </g>
            <g id="Text-Tint" transform="translate(186.000000, 17.000000)" filter="url(#filter-4)">
                <g>
                    <path d="M69.408,41.3333333 L78.112,18.5066667 L72.5226667,18.5066667 L66.6773333,35.872 L60.704,18.5066667 L54.9013333,18.5493333 L63.6906667,41.3333333 L69.408,41.3333333 Z M89.888,41.3333333 L89.888,11.4666667 L77.8986667,11.4666667 L77.8986667,16.5013333 L84.1706667,16.5013333 L84.1706667,41.3333333 L89.888,41.3333333 Z M98.9333333,41.7173333 C99.7866667,41.7173333 100.490667,41.4257778 101.045333,40.8426667 C101.6,40.2595556 101.877333,39.5128889 101.877333,38.6026667 C101.877333,37.7208889 101.6,36.9955556 101.045333,36.4266667 C100.490667,35.8577778 99.7866667,35.5733333 98.9333333,35.5733333 C98.1084444,35.5733333 97.4186667,35.8577778 96.864,36.4266667 C96.3093333,36.9955556 96.032,37.7208889 96.032,38.6026667 C96.032,39.4844444 96.3093333,40.224 96.864,40.8213333 C97.4186667,41.4186667 98.1084444,41.7173333 98.9333333,41.7173333 Z M115.274667,41.5893333 C117.664,41.5893333 119.754667,41.184 121.546667,40.3733333 C123.338667,39.5626667 124.718222,38.4391111 125.685333,37.0026667 C126.652444,35.5662222 127.136,33.9093333 127.136,32.032 C127.136,29.728 126.318222,27.8648889 124.682667,26.4426667 C123.047111,25.0204444 120.849778,24.1813333 118.090667,23.9253333 L118.090667,23.9253333 L116.512,23.7546667 L125.642667,15.008 L125.642667,11.4666667 L105.674667,11.4666667 L105.717333,16.3306667 L118.304,16.3306667 L110.282667,24.096 L110.282667,27.552 L114.805333,27.552 C116.967111,27.552 118.631111,27.9431111 119.797333,28.7253333 C120.963556,29.5075556 121.546667,30.6382222 121.546667,32.1173333 C121.546667,33.568 120.956444,34.72 119.776,35.5733333 C118.595556,36.4266667 116.967111,36.8533333 114.890667,36.8533333 C113.383111,36.8533333 111.904,36.5902222 110.453333,36.064 C109.002667,35.5377778 107.68,34.7768889 106.485333,33.7813333 L106.485333,33.7813333 L104.224,38.2186667 C105.617778,39.2426667 107.303111,40.0604444 109.28,40.672 C111.256889,41.2835556 113.255111,41.5893333 115.274667,41.5893333 Z" id="v1.3" fill="#FFFFFF" fill-rule="nonzero"></path>
                </g>
            </g>
        </g>
    </g>
</svg>