<?xml version="1.0" encoding="UTF-8"?>
<svg width="860px" height="96px" viewBox="0 0 860 96" version="1.1" xmlns="http://www.w3.org/2000/svg" xmlns:xlink="http://www.w3.org/1999/xlink">
    <title>doc-header</title>
    <defs>
        <linearGradient x1="50%" y1="4.52666905%" x2="50%" y2="127.982156%" id="linearGradient-1">
            <stop stop-color="#FF6A6A" offset="0%"></stop>
            <stop stop-color="#B13535" offset="100%"></stop>
        </linearGradient>
        <filter x="-4.1%" y="-17.4%" width="108.2%" height="134.8%" filterUnits="objectBoundingBox" id="filter-2">
            <feOffset dx="0" dy="2" in="SourceAlpha" result="shadowOffsetOuter1"></feOffset>
            <feGaussianBlur stdDeviation="2" in="shadowOffsetOuter1" result="shadowBlurOuter1"></feGaussianBlur>
            <feColorMatrix values="0 0 0 0 0   0 0 0 0 0   0 0 0 0 0  0 0 0 0.299360795 0" type="matrix" in="shadowBlurOuter1" result="shadowMatrixOuter1"></feColorMatrix>
            <feMerge>
                <feMergeNode in="shadowMatrixOuter1"></feMergeNode>
                <feMergeNode in="SourceGraphic"></feMergeNode>
            </feMerge>
        </filter>
    </defs>
    <g id="doc-header" stroke="none" stroke-width="1" fill="none" fill-rule="evenodd">
        <rect id="Background" fill="url(#linearGradient-1)" x="1" y="0" width="855" height="96" rx="14"></rect>
        <g id="Logos-/-Parts-/-SKTiled-Icon" transform="translate(10.000000, 11.000000)">
            <g id="Logo">
                <g id="Logos-/-Parts-/-Tile-(Light)" transform="translate(0.000000, 22.000000)">
                    <g id="tile-lighter" transform="translate(0.250000, 0.250000)">
                        <polygon id="left-side" fill="#A1A7DD" points="0 15.5 24.5 31 24.5 36 0 20.5"></polygon>
                        <polygon id="right-side" fill="#666EB8" points="24.5 31 49 15.5 49 20.5 24.5 36"></polygon>
                        <polygon id="top" fill="#848CDF" points="24.5 0 0 15.5 24.5 31 49 15.5"></polygon>
                        <path d="M0.211269709,15.6336604 L24.2887303,30.8663396 C24.4202646,30.9495551 24.5,31.0943527 24.5,31.25 C24.5,31.3260315 24.4383643,31.3876671 24.3623329,31.3876671 C24.3362746,31.3876671 24.3107515,31.3802714 24.2887303,31.3663396 L0.211269709,16.1336604 C0.0797354372,16.0504449 1.90613015e-17,15.9056473 0,15.75 C-9.31116749e-18,15.6739685 0.0616356703,15.6123329 0.137667123,15.6123329 C0.163725352,15.6123329 0.189248451,15.6197286 0.211269709,15.6336604 Z" id="left-rim" fill="#9EA5E8"></path>
                        <path d="M24.7112697,30.8663396 L48.7887303,15.6336604 C48.8529829,15.5930108 48.9380229,15.6121448 48.9786724,15.6763974 C48.9926043,15.6984187 49,15.7239418 49,15.75 C49,15.9056473 48.9202646,16.0504449 48.7887303,16.1336604 L24.7112697,31.3663396 C24.6470171,31.4069892 24.5619771,31.3878552 24.5213276,31.3236026 C24.5073957,31.3015813 24.5,31.2760582 24.5,31.25 C24.5,31.0943527 24.5797354,30.9495551 24.7112697,30.8663396 Z" id="right-rim" fill="#9EA5E8"></path>
                        <rect id="front-rim" fill="#A5ADFE" x="24.25" y="31" width="1" height="5" rx="0.5"></rect>
                    </g>
                </g>
                <g id="Logos-/-Parts-/-Tile-(Light)" transform="translate(49.250000, 22.000000)">
                    <g id="tile-lighter" transform="translate(0.250000, 0.250000)">
                        <polygon id="left-side" fill="#A1A7DD" points="0 15.5 24.5 31 24.5 36 0 20.5"></polygon>
                        <polygon id="right-side" fill="#666EB8" points="24.5 31 49 15.5 49 20.5 24.5 36"></polygon>
                        <polygon id="top" fill="#848CDF" points="24.5 0 0 15.5 24.5 31 49 15.5"></polygon>
                        <path d="M0.211269709,15.6336604 L24.2887303,30.8663396 C24.4202646,30.9495551 24.5,31.0943527 24.5,31.25 C24.5,31.3260315 24.4383643,31.3876671 24.3623329,31.3876671 C24.3362746,31.3876671 24.3107515,31.3802714 24.2887303,31.3663396 L0.211269709,16.1336604 C0.0797354372,16.0504449 1.90613015e-17,15.9056473 0,15.75 C-9.31116749e-18,15.6739685 0.0616356703,15.6123329 0.137667123,15.6123329 C0.163725352,15.6123329 0.189248451,15.6197286 0.211269709,15.6336604 Z" id="left-rim" fill="#9EA5E8"></path>
                        <path d="M24.7112697,30.8663396 L48.7887303,15.6336604 C48.8529829,15.5930108 48.9380229,15.6121448 48.9786724,15.6763974 C48.9926043,15.6984187 49,15.7239418 49,15.75 C49,15.9056473 48.9202646,16.0504449 48.7887303,16.1336604 L24.7112697,31.3663396 C24.6470171,31.4069892 24.5619771,31.3878552 24.5213276,31.3236026 C24.5073957,31.3015813 24.5,31.2760582 24.5,31.25 C24.5,31.0943527 24.5797354,30.9495551 24.7112697,30.8663396 Z" id="right-rim" fill="#9EA5E8"></path>
                        <rect id="front-rim" fill="#A5ADFE" x="24.25" y="31" width="1" height="5" rx="0.5"></rect>
                    </g>
                </g>
                <g id="Logos-/-Parts-/-Tile-(Regular)" transform="translate(25.000000, 38.000000)">
                    <g id="tile">
                        <polygon id="left-side" fill="#7A83DA" points="0 15.5 24.5 31 24.5 36 0 20.5"></polygon>
                        <polygon id="right-side" fill="#4D55A8" points="24.5 31 49 15.5 49 20.5 24.5 36"></polygon>
                        <polygon id="top" fill="#5F6AD3" points="24.5 0 0 15.5 24.5 31 49 15.5"></polygon>
                        <path d="M0.211269709,15.6336604 L24.2887303,30.8663396 C24.4202646,30.9495551 24.5,31.0943527 24.5,31.25 C24.5,31.3260315 24.4383643,31.3876671 24.3623329,31.3876671 C24.3362746,31.3876671 24.3107515,31.3802714 24.2887303,31.3663396 L0.211269709,16.1336604 C0.0797354372,16.0504449 1.90613015e-17,15.9056473 0,15.75 C-9.31116749e-18,15.6739685 0.0616356703,15.6123329 0.137667123,15.6123329 C0.163725352,15.6123329 0.189248451,15.6197286 0.211269709,15.6336604 Z" id="left-rim" fill="#9EA5E8"></path>
                        <path d="M24.7112697,30.8663396 L48.7887303,15.6336604 C48.8529829,15.5930108 48.9380229,15.6121448 48.9786724,15.6763974 C48.9926043,15.6984187 49,15.7239418 49,15.75 C49,15.9056473 48.9202646,16.0504449 48.7887303,16.1336604 L24.7112697,31.3663396 C24.6470171,31.4069892 24.5619771,31.3878552 24.5213276,31.3236026 C24.5073957,31.3015813 24.5,31.2760582 24.5,31.25 C24.5,31.0943527 24.5797354,30.9495551 24.7112697,30.8663396 Z" id="right-rim" fill="#9EA5E8"></path>
                        <rect id="front-rim" fill="#A5ADFE" x="24.25" y="31" width="1" height="5" rx="0.5"></rect>
                    </g>
                </g>
                <g id="Logos-/-Parts-/-Tile-(Regular)" transform="translate(25.000000, 0.000000)">
                    <g id="tile">
                        <polygon id="left-side" fill="#7A83DA" points="0 15.5 24.5 31 24.5 36 0 20.5"></polygon>
                        <polygon id="right-side" fill="#4D55A8" points="24.5 31 49 15.5 49 20.5 24.5 36"></polygon>
                        <polygon id="top" fill="#5F6AD3" points="24.5 0 0 15.5 24.5 31 49 15.5"></polygon>
                        <path d="M0.211269709,15.6336604 L24.2887303,30.8663396 C24.4202646,30.9495551 24.5,31.0943527 24.5,31.25 C24.5,31.3260315 24.4383643,31.3876671 24.3623329,31.3876671 C24.3362746,31.3876671 24.3107515,31.3802714 24.2887303,31.3663396 L0.211269709,16.1336604 C0.0797354372,16.0504449 1.90613015e-17,15.9056473 0,15.75 C-9.31116749e-18,15.6739685 0.0616356703,15.6123329 0.137667123,15.6123329 C0.163725352,15.6123329 0.189248451,15.6197286 0.211269709,15.6336604 Z" id="left-rim" fill="#9EA5E8"></path>
                        <path d="M24.7112697,30.8663396 L48.7887303,15.6336604 C48.8529829,15.5930108 48.9380229,15.6121448 48.9786724,15.6763974 C48.9926043,15.6984187 49,15.7239418 49,15.75 C49,15.9056473 48.9202646,16.0504449 48.7887303,16.1336604 L24.7112697,31.3663396 C24.6470171,31.4069892 24.5619771,31.3878552 24.5213276,31.3236026 C24.5073957,31.3015813 24.5,31.2760582 24.5,31.25 C24.5,31.0943527 24.5797354,30.9495551 24.7112697,30.8663396 Z" id="right-rim" fill="#9EA5E8"></path>
                        <rect id="front-rim" fill="#A5ADFE" x="24.25" y="31" width="1" height="5" rx="0.5"></rect>
                    </g>
                </g>
            </g>
        </g>
        <g id="SKTiled-Logo" transform="translate(124.000000, 14.000000)">
            <g id="TEXT" filter="url(#filter-2)">
                <path d="M18.598,55.456 C21.562,55.456 24.1935,54.981 26.4925,54.031 C28.7915,53.081 30.5965,51.7035 31.9075,49.8985 C33.2185,48.0935 33.874,45.975 33.874,43.543 C33.874,40.997 33.266,38.945 32.05,37.387 C30.834,35.829 29.3615,34.651 27.6325,33.853 C25.9035,33.055 23.69,32.257 20.992,31.459 C19.054,30.889 17.5245,30.3665 16.4035,29.8915 C15.2825,29.4165 14.3515,28.8085 13.6105,28.0675 C12.8695,27.3265 12.499,26.405 12.499,25.303 C12.499,24.087 13.031,23.137 14.095,22.453 C15.159,21.769 16.603,21.427 18.427,21.427 C20.061,21.427 21.9515,21.769 24.0985,22.453 C26.2455,23.137 28.345,24.106 30.397,25.36 L30.397,25.36 L33.475,18.691 C31.499,17.399 29.2475,16.373 26.7205,15.613 C24.1935,14.853 21.638,14.473 19.054,14.473 C16.09,14.473 13.4775,14.948 11.2165,15.898 C8.9555,16.848 7.2075,18.1875 5.9725,19.9165 C4.7375,21.6455 4.12,23.669 4.12,25.987 C4.12,28.495 4.728,30.5185 5.944,32.0575 C7.16,33.5965 8.623,34.746 10.333,35.506 C12.043,36.266 14.247,37.045 16.945,37.843 C18.921,38.413 20.479,38.926 21.619,39.382 C22.759,39.838 23.6995,40.4365 24.4405,41.1775 C25.1815,41.9185 25.552,42.859 25.552,43.999 C25.552,45.405 24.944,46.5165 23.728,47.3335 C22.512,48.1505 20.84,48.559 18.712,48.559 C16.546,48.559 14.209,48.027 11.701,46.963 C9.193,45.899 6.932,44.436 4.918,42.574 L4.918,42.574 L1.726,49.072 C3.93,51.01 6.514,52.5585 9.478,53.7175 C12.442,54.8765 15.482,55.456 18.598,55.456 Z M48.751,55 L48.751,44.797 L55.021,37.9 L67.561,55 L76.738,55 L60.436,31.972 L75.769,15.1 L66.763,15.1 L48.751,34.993 L48.751,15.1 L41.113,15.1 L41.113,55 L48.751,55 Z M98.17,55 L98.17,21.883 L110.596,21.883 L110.596,15.1 L78.049,15.1 L78.049,21.883 L90.475,21.883 L90.475,55 L98.17,55 Z M119.374,20.23 C120.59,20.23 121.597,19.812 122.395,18.976 C123.193,18.14 123.592,17.095 123.592,15.841 C123.592,14.549 123.193,13.485 122.395,12.649 C121.597,11.813 120.59,11.395 119.374,11.395 C118.158,11.395 117.151,11.813 116.353,12.649 C115.555,13.485 115.156,14.549 115.156,15.841 C115.156,17.095 115.555,18.14 116.353,18.976 C117.151,19.812 118.158,20.23 119.374,20.23 Z M123.136,55 L123.136,24.505 L115.726,24.505 L115.726,55 L123.136,55 Z M140.008,55 L140.008,12.706 L132.598,12.706 L132.598,55 L140.008,55 Z M162.409,55.285 C165.069,55.285 167.4915,54.829 169.6765,53.917 C171.8615,53.005 173.714,51.713 175.234,50.041 L175.234,50.041 L171.244,45.88 C170.18,46.982 168.9355,47.8275 167.5105,48.4165 C166.0855,49.0055 164.594,49.3 163.036,49.3 C160.794,49.3 158.9035,48.6825 157.3645,47.4475 C155.8255,46.2125 154.809,44.512 154.315,42.346 L154.315,42.346 L176.83,42.346 C176.868,41.852 176.887,41.111 176.887,40.123 C176.887,35.107 175.6615,31.212 173.2105,28.438 C170.7595,25.664 167.102,24.277 162.238,24.277 C159.236,24.277 156.557,24.9325 154.201,26.2435 C151.845,27.5545 150.0115,29.388 148.7005,31.744 C147.3895,34.1 146.734,36.798 146.734,39.838 C146.734,42.878 147.38,45.5665 148.672,47.9035 C149.964,50.2405 151.7975,52.055 154.1725,53.347 C156.5475,54.639 159.293,55.285 162.409,55.285 Z M170.104,37.387 L154.144,37.387 C154.486,35.107 155.3885,33.3115 156.8515,32.0005 C158.3145,30.6895 160.129,30.034 162.295,30.034 C164.613,30.034 166.475,30.699 167.881,32.029 C169.287,33.359 170.028,35.145 170.104,37.387 L170.104,37.387 Z M195.013,55.342 C197.293,55.342 199.2975,54.8955 201.0265,54.0025 C202.7555,53.1095 204.171,51.808 205.273,50.098 L205.273,50.098 L205.273,55 L212.683,55 L212.683,12.706 L205.273,12.706 L205.273,29.521 C204.133,27.811 202.689,26.5 200.941,25.588 C199.193,24.676 197.16,24.22 194.842,24.22 C192.03,24.22 189.5315,24.866 187.3465,26.158 C185.1615,27.45 183.4705,29.2645 182.2735,31.6015 C181.0765,33.9385 180.478,36.627 180.478,39.667 C180.478,42.745 181.086,45.4715 182.302,47.8465 C183.518,50.2215 185.2185,52.0645 187.4035,53.3755 C189.5885,54.6865 192.125,55.342 195.013,55.342 Z M196.609,49.129 C194.063,49.129 191.992,48.2645 190.396,46.5355 C188.8,44.8065 187.983,42.574 187.945,39.838 C187.983,37.102 188.8,34.8695 190.396,33.1405 C191.992,31.4115 194.063,30.547 196.609,30.547 C199.155,30.547 201.2355,31.4115 202.8505,33.1405 C204.4655,34.8695 205.273,37.102 205.273,39.838 C205.273,42.574 204.4655,44.8065 202.8505,46.5355 C201.2355,48.2645 199.155,49.129 196.609,49.129 Z" id="SKTiled" fill="#FFFFFF" fill-rule="nonzero"></path>
                <path d="M237.82,55 L245.98,33.6 L240.74,33.6 L235.26,49.88 L229.66,33.6 L224.22,33.64 L232.46,55 L237.82,55 Z M257.02,55 L257.02,27 L245.78,27 L245.78,31.72 L251.66,31.72 L251.66,55 L257.02,55 Z M265.5,55.36 C266.3,55.36 266.96,55.0866667 267.48,54.54 C268,53.9933333 268.26,53.2933333 268.26,52.44 C268.26,51.6133333 268,50.9333333 267.48,50.4 C266.96,49.8666667 266.3,49.6 265.5,49.6 C264.726667,49.6 264.08,49.8666667 263.56,50.4 C263.04,50.9333333 262.78,51.6133333 262.78,52.44 C262.78,53.2666667 263.04,53.96 263.56,54.52 C264.08,55.08 264.726667,55.36 265.5,55.36 Z M280.82,55.24 C283.06,55.24 285.02,54.86 286.7,54.1 C288.38,53.34 289.673333,52.2866667 290.58,50.94 C291.486667,49.5933333 291.94,48.04 291.94,46.28 C291.94,44.12 291.173333,42.3733333 289.64,41.04 C288.106667,39.7066667 286.046667,38.92 283.46,38.68 L283.46,38.68 L281.98,38.52 L290.54,30.32 L290.54,27 L271.82,27 L271.86,31.56 L283.66,31.56 L276.14,38.84 L276.14,42.08 L280.38,42.08 C282.406667,42.08 283.966667,42.4466667 285.06,43.18 C286.153333,43.9133333 286.7,44.9733333 286.7,46.36 C286.7,47.72 286.146667,48.8 285.04,49.6 C283.933333,50.4 282.406667,50.8 280.46,50.8 C279.046667,50.8 277.66,50.5533333 276.3,50.06 C274.94,49.5666667 273.7,48.8533333 272.58,47.92 L272.58,47.92 L270.46,52.08 C271.766667,53.04 273.346667,53.8066667 275.2,54.38 C277.053333,54.9533333 278.926667,55.24 280.82,55.24 Z" id="v1.3" fill="#FFA5A5" fill-rule="nonzero"></path>
            </g>
        </g>
    </g>
</svg>