<?xml version="1.0" encoding="UTF-8"?>
<svg width="860px" height="96px" viewBox="0 0 860 96" version="1.1" xmlns="http://www.w3.org/2000/svg" xmlns:xlink="http://www.w3.org/1999/xlink">
    <title>doc-banner-centered</title>
    <defs>
        <style type="text/css">
            @import url('https://fonts.googleapis.com/css2?family=Montserrat:wght@100;400;500;700;900')
        </style>
        <linearGradient x1="50%" y1="4.52666905%" x2="50%" y2="127.982156%" id="linearGradient-1">
            <stop stop-color="#FF6A6A" offset="0%"></stop>
            <stop stop-color="#B13535" offset="100%"></stop>
        </linearGradient>
        <filter x="-4.1%" y="-17.4%" width="108.2%" height="134.8%" filterUnits="objectBoundingBox" id="filter-2">
            <feOffset dx="0" dy="2" in="SourceAlpha" result="shadowOffsetOuter1"></feOffset>
            <feGaussianBlur stdDeviation="2" in="shadowOffsetOuter1" result="shadowBlurOuter1"></feGaussianBlur>
            <feColorMatrix values="0 0 0 0 0   0 0 0 0 0   0 0 0 0 0  0 0 0 0.299360795 0" type="matrix" in="shadowBlurOuter1" result="shadowMatrixOuter1"></feColorMatrix>
            <feMerge>
                <feMergeNode in="shadowMatrixOuter1"></feMergeNode>
                <feMergeNode in="SourceGraphic"></feMergeNode>
            </feMerge>
        </filter>
    </defs>
    <g id="doc-banner-centered" stroke="none" stroke-width="1" fill="none" fill-rule="evenodd">
        <rect id="Background" fill="url(#linearGradient-1)" x="1" y="0" width="855" height="96" rx="14"></rect>
        <g id="Logo-Group" transform="translate(254.000000, 11.000000)">
            <g id="Logo">
                <g id="Group" transform="translate(0.000000, 22.000000)">
                    <g id="tile-lighter" transform="translate(0.250000, 0.250000)">
                        <polygon id="left-side" fill="#A1A7DD" points="0 15.5 24.5 31 24.5 36 0 20.5"></polygon>
                        <polygon id="right-side" fill="#666EB8" points="24.5 31 49 15.5 49 20.5 24.5 36"></polygon>
                        <polygon id="top" fill="#848CDF" points="24.5 0 0 15.5 24.5 31 49 15.5"></polygon>
                        <path d="M0.211269709,15.6336604 L24.2887303,30.8663396 C24.4202646,30.9495551 24.5,31.0943527 24.5,31.25 C24.5,31.3260315 24.4383643,31.3876671 24.3623329,31.3876671 C24.3362746,31.3876671 24.3107515,31.3802714 24.2887303,31.3663396 L0.211269709,16.1336604 C0.0797354372,16.0504449 1.90613015e-17,15.9056473 0,15.75 C-9.31116749e-18,15.6739685 0.0616356703,15.6123329 0.137667123,15.6123329 C0.163725352,15.6123329 0.189248451,15.6197286 0.211269709,15.6336604 Z" id="left-rim" fill="#9EA5E8"></path>
                        <path d="M24.7112697,30.8663396 L48.7887303,15.6336604 C48.8529829,15.5930108 48.9380229,15.6121448 48.9786724,15.6763974 C48.9926043,15.6984187 49,15.7239418 49,15.75 C49,15.9056473 48.9202646,16.0504449 48.7887303,16.1336604 L24.7112697,31.3663396 C24.6470171,31.4069892 24.5619771,31.3878552 24.5213276,31.3236026 C24.5073957,31.3015813 24.5,31.2760582 24.5,31.25 C24.5,31.0943527 24.5797354,30.9495551 24.7112697,30.8663396 Z" id="right-rim" fill="#9EA5E8"></path>
                        <rect id="front-rim" fill="#A5ADFE" x="24.25" y="31" width="1" height="5" rx="0.5"></rect>
                    </g>
                </g>
                <g id="Group" transform="translate(49.250000, 22.000000)">
                    <g id="tile-lighter" transform="translate(0.250000, 0.250000)">
                        <polygon id="left-side" fill="#A1A7DD" points="0 15.5 24.5 31 24.5 36 0 20.5"></polygon>
                        <polygon id="right-side" fill="#666EB8" points="24.5 31 49 15.5 49 20.5 24.5 36"></polygon>
                        <polygon id="top" fill="#848CDF" points="24.5 0 0 15.5 24.5 31 49 15.5"></polygon>
                        <path d="M0.211269709,15.6336604 L24.2887303,30.8663396 C24.4202646,30.9495551 24.5,31.0943527 24.5,31.25 C24.5,31.3260315 24.4383643,31.3876671 24.3623329,31.3876671 C24.3362746,31.3876671 24.3107515,31.3802714 24.2887303,31.3663396 L0.211269709,16.1336604 C0.0797354372,16.0504449 1.90613015e-17,15.9056473 0,15.75 C-9.31116749e-18,15.6739685 0.0616356703,15.6123329 0.137667123,15.6123329 C0.163725352,15.6123329 0.189248451,15.6197286 0.211269709,15.6336604 Z" id="left-rim" fill="#9EA5E8"></path>
                        <path d="M24.7112697,30.8663396 L48.7887303,15.6336604 C48.8529829,15.5930108 48.9380229,15.6121448 48.9786724,15.6763974 C48.9926043,15.6984187 49,15.7239418 49,15.75 C49,15.9056473 48.9202646,16.0504449 48.7887303,16.1336604 L24.7112697,31.3663396 C24.6470171,31.4069892 24.5619771,31.3878552 24.5213276,31.3236026 C24.5073957,31.3015813 24.5,31.2760582 24.5,31.25 C24.5,31.0943527 24.5797354,30.9495551 24.7112697,30.8663396 Z" id="right-rim" fill="#9EA5E8"></path>
                        <rect id="front-rim" fill="#A5ADFE" x="24.25" y="31" width="1" height="5" rx="0.5"></rect>
                    </g>
                </g>
                <g id="tile" transform="translate(25.000000, 38.000000)">
                    <polygon id="left-side" fill="#7A83DA" points="0 15.5 24.5 31 24.5 36 0 20.5"></polygon>
                    <polygon id="right-side" fill="#4D55A8" points="24.5 31 49 15.5 49 20.5 24.5 36"></polygon>
                    <polygon id="top" fill="#5F6AD3" points="24.5 0 0 15.5 24.5 31 49 15.5"></polygon>
                    <path d="M0.211269709,15.6336604 L24.2887303,30.8663396 C24.4202646,30.9495551 24.5,31.0943527 24.5,31.25 C24.5,31.3260315 24.4383643,31.3876671 24.3623329,31.3876671 C24.3362746,31.3876671 24.3107515,31.3802714 24.2887303,31.3663396 L0.211269709,16.1336604 C0.0797354372,16.0504449 1.90613015e-17,15.9056473 0,15.75 C-9.31116749e-18,15.6739685 0.0616356703,15.6123329 0.137667123,15.6123329 C0.163725352,15.6123329 0.189248451,15.6197286 0.211269709,15.6336604 Z" id="left-rim" fill="#9EA5E8"></path>
                    <path d="M24.7112697,30.8663396 L48.7887303,15.6336604 C48.8529829,15.5930108 48.9380229,15.6121448 48.9786724,15.6763974 C48.9926043,15.6984187 49,15.7239418 49,15.75 C49,15.9056473 48.9202646,16.0504449 48.7887303,16.1336604 L24.7112697,31.3663396 C24.6470171,31.4069892 24.5619771,31.3878552 24.5213276,31.3236026 C24.5073957,31.3015813 24.5,31.2760582 24.5,31.25 C24.5,31.0943527 24.5797354,30.9495551 24.7112697,30.8663396 Z" id="right-rim" fill="#9EA5E8"></path>
                    <rect id="front-rim" fill="#A5ADFE" x="24.25" y="31" width="1" height="5" rx="0.5"></rect>
                </g>
                <g id="tile" transform="translate(25.000000, 0.000000)">
                    <polygon id="left-side" fill="#7A83DA" points="0 15.5 24.5 31 24.5 36 0 20.5"></polygon>
                    <polygon id="right-side" fill="#4D55A8" points="24.5 31 49 15.5 49 20.5 24.5 36"></polygon>
                    <polygon id="top" fill="#5F6AD3" points="24.5 0 0 15.5 24.5 31 49 15.5"></polygon>
                    <path d="M0.211269709,15.6336604 L24.2887303,30.8663396 C24.4202646,30.9495551 24.5,31.0943527 24.5,31.25 C24.5,31.3260315 24.4383643,31.3876671 24.3623329,31.3876671 C24.3362746,31.3876671 24.3107515,31.3802714 24.2887303,31.3663396 L0.211269709,16.1336604 C0.0797354372,16.0504449 1.90613015e-17,15.9056473 0,15.75 C-9.31116749e-18,15.6739685 0.0616356703,15.6123329 0.137667123,15.6123329 C0.163725352,15.6123329 0.189248451,15.6197286 0.211269709,15.6336604 Z" id="left-rim" fill="#9EA5E8"></path>
                    <path d="M24.7112697,30.8663396 L48.7887303,15.6336604 C48.8529829,15.5930108 48.9380229,15.6121448 48.9786724,15.6763974 C48.9926043,15.6984187 49,15.7239418 49,15.75 C49,15.9056473 48.9202646,16.0504449 48.7887303,16.1336604 L24.7112697,31.3663396 C24.6470171,31.4069892 24.5619771,31.3878552 24.5213276,31.3236026 C24.5073957,31.3015813 24.5,31.2760582 24.5,31.25 C24.5,31.0943527 24.5797354,30.9495551 24.7112697,30.8663396 Z" id="right-rim" fill="#9EA5E8"></path>
                    <rect id="front-rim" fill="#A5ADFE" x="24.25" y="31" width="1" height="5" rx="0.5"></rect>
                </g>
            </g>
            <g id="Group" transform="translate(58.000000, 3.000000)" font-family="Montserrat-Medium, Montserrat" font-weight="400">
                <g id="Text" filter="url(#filter-2)">
                    <text id="v1.3" font-size="40" fill="#FFA5A5">
                        <tspan x="224.26" y="55">v1.3</tspan>
                    </text>
                    <text id="SKTiled" font-size="57" fill="#FFFFFF">
                        <tspan x="0.415" y="55">SKTiled</tspan>
                    </text>
                </g>
            </g>
        </g>
    </g>
</svg>
