<?xml version="1.0" encoding="UTF-8"?>
<svg width="120px" height="88px" viewBox="0 0 120 88" version="1.1" xmlns="http://www.w3.org/2000/svg" xmlns:xlink="http://www.w3.org/1999/xlink">
    <title>hexagonal-mapping</title>
    <g id="hexagonal-mapping" stroke="none" stroke-width="1" fill="none" fill-rule="evenodd">
        <rect fill="#000000" x="0" y="0" width="120" height="88"></rect>
        <g id="Hex-Grid" transform="translate(8.000000, 6.000000)" stroke="#FF0F0F" stroke-dasharray="4,3">
            <g id="Row1">
                <path d="M9,0 L16.7942286,4 L16.7942286,12 L9,16 L1.20577137,12 L1.20577137,4 L9,0 Z" id="Hex0"></path>
                <path d="M24.5,0 L32.2942286,4 L32.2942286,12 L24.5,16 L16.7057714,12 L16.7057714,4 L24.5,0 Z" id="Hex1"></path>
                <path d="M40,0 L47.7942286,4 L47.7942286,12 L40,16 L32.2057714,12 L32.2057714,4 L40,0 Z" id="Hex2"></path>
                <path d="M55.5,0 L63.2942286,4 L63.2942286,12 L55.5,16 L47.7057714,12 L47.7057714,4 L55.5,0 Z" id="Hex3"></path>
                <path d="M71,0 L78.7942286,4 L78.7942286,12 L71,16 L63.2057714,12 L63.2057714,4 L71,0 Z" id="Hex4"></path>
                <path d="M86.5,0 L94.2942286,4 L94.2942286,12 L86.5,16 L78.7057714,12 L78.7057714,4 L86.5,0 Z" id="Hex5"></path>
            </g>
            <g id="Row2" transform="translate(8.000000, 12.000000)">
                <path d="M9,0 L16.7942286,4 L16.7942286,12 L9,16 L1.20577137,12 L1.20577137,4 L9,0 Z" id="Hex0"></path>
                <path d="M24.5,0 L32.2942286,4 L32.2942286,12 L24.5,16 L16.7057714,12 L16.7057714,4 L24.5,0 Z" id="Hex1"></path>
                <path d="M40,0 L47.7942286,4 L47.7942286,12 L40,16 L32.2057714,12 L32.2057714,4 L40,0 Z" id="Hex2"></path>
                <path d="M55.5,0 L63.2942286,4 L63.2942286,12 L55.5,16 L47.7057714,12 L47.7057714,4 L55.5,0 Z" id="Hex3"></path>
                <path d="M71,0 L78.7942286,4 L78.7942286,12 L71,16 L63.2057714,12 L63.2057714,4 L71,0 Z" id="Hex4"></path>
                <path d="M86.5,0 L94.2942286,4 L94.2942286,12 L86.5,16 L78.7057714,12 L78.7057714,4 L86.5,0 Z" id="Hex5"></path>
            </g>
            <g id="Row3" transform="translate(0.000000, 24.000000)">
                <path d="M9,0 L16.7942286,4 L16.7942286,12 L9,16 L1.20577137,12 L1.20577137,4 L9,0 Z" id="Hex0"></path>
                <path d="M24.5,0 L32.2942286,4 L32.2942286,12 L24.5,16 L16.7057714,12 L16.7057714,4 L24.5,0 Z" id="Hex1"></path>
                <path d="M40,0 L47.7942286,4 L47.7942286,12 L40,16 L32.2057714,12 L32.2057714,4 L40,0 Z" id="Hex2"></path>
                <path d="M55.5,0 L63.2942286,4 L63.2942286,12 L55.5,16 L47.7057714,12 L47.7057714,4 L55.5,0 Z" id="Hex3"></path>
                <path d="M71,0 L78.7942286,4 L78.7942286,12 L71,16 L63.2057714,12 L63.2057714,4 L71,0 Z" id="Hex4"></path>
                <path d="M86.5,0 L94.2942286,4 L94.2942286,12 L86.5,16 L78.7057714,12 L78.7057714,4 L86.5,0 Z" id="Hex5"></path>
            </g>
            <g id="Row4" transform="translate(8.000000, 36.000000)">
                <path d="M9,0 L16.7942286,4 L16.7942286,12 L9,16 L1.20577137,12 L1.20577137,4 L9,0 Z" id="Hex0"></path>
                <path d="M24.5,0 L32.2942286,4 L32.2942286,12 L24.5,16 L16.7057714,12 L16.7057714,4 L24.5,0 Z" id="Hex1"></path>
                <path d="M40,0 L47.7942286,4 L47.7942286,12 L40,16 L32.2057714,12 L32.2057714,4 L40,0 Z" id="Hex2"></path>
                <path d="M55.5,0 L63.2942286,4 L63.2942286,12 L55.5,16 L47.7057714,12 L47.7057714,4 L55.5,0 Z" id="Hex3"></path>
                <path d="M71,0 L78.7942286,4 L78.7942286,12 L71,16 L63.2057714,12 L63.2057714,4 L71,0 Z" id="Hex4"></path>
                <path d="M86.5,0 L94.2942286,4 L94.2942286,12 L86.5,16 L78.7057714,12 L78.7057714,4 L86.5,0 Z" id="Hex5"></path>
            </g>
            <g id="Row5" transform="translate(0.000000, 48.000000)">
                <path d="M9,0 L16.7942286,4 L16.7942286,12 L9,16 L1.20577137,12 L1.20577137,4 L9,0 Z" id="Hex0"></path>
                <path d="M24.5,0 L32.2942286,4 L32.2942286,12 L24.5,16 L16.7057714,12 L16.7057714,4 L24.5,0 Z" id="Hex1"></path>
                <path d="M40,0 L47.7942286,4 L47.7942286,12 L40,16 L32.2057714,12 L32.2057714,4 L40,0 Z" id="Hex2"></path>
                <path d="M55.5,0 L63.2942286,4 L63.2942286,12 L55.5,16 L47.7057714,12 L47.7057714,4 L55.5,0 Z" id="Hex3"></path>
                <path d="M71,0 L78.7942286,4 L78.7942286,12 L71,16 L63.2057714,12 L63.2057714,4 L71,0 Z" id="Hex4"></path>
                <path d="M86.5,0 L94.2942286,4 L94.2942286,12 L86.5,16 L78.7057714,12 L78.7057714,4 L86.5,0 Z" id="Hex5"></path>
            </g>
            <g id="Row6" transform="translate(8.000000, 60.000000)">
                <path d="M9,0 L16.7942286,4 L16.7942286,12 L9,16 L1.20577137,12 L1.20577137,4 L9,0 Z" id="Hex0"></path>
                <path d="M24.5,0 L32.2942286,4 L32.2942286,12 L24.5,16 L16.7057714,12 L16.7057714,4 L24.5,0 Z" id="Hex1"></path>
                <path d="M40,0 L47.7942286,4 L47.7942286,12 L40,16 L32.2057714,12 L32.2057714,4 L40,0 Z" id="Hex2"></path>
                <path d="M55.5,0 L63.2942286,4 L63.2942286,12 L55.5,16 L47.7057714,12 L47.7057714,4 L55.5,0 Z" id="Hex3"></path>
                <path d="M71,0 L78.7942286,4 L78.7942286,12 L71,16 L63.2057714,12 L63.2057714,4 L71,0 Z" id="Hex4"></path>
                <path d="M86.5,0 L94.2942286,4 L94.2942286,12 L86.5,16 L78.7057714,12 L78.7057714,4 L86.5,0 Z" id="Hex5"></path>
            </g>
        </g>
    </g>
</svg>