<?xml version="1.0" encoding="UTF-8"?>
<svg width="104px" height="104px" viewBox="0 0 104 104" version="1.1" xmlns="http://www.w3.org/2000/svg" xmlns:xlink="http://www.w3.org/1999/xlink">
    <title>orthogonal-mapping</title>
    <g id="orthogonal-mapping" stroke="none" stroke-width="1" fill="none" fill-rule="evenodd">
        <rect fill="#000000" x="0" y="0" width="104" height="104"></rect>
        <path d="M4,4 L100,4 L100,100 L4,100 L4,4 Z" id="Frame" stroke="#FF0F0F" stroke-dasharray="4,2"></path>
        <g id="Vert" transform="translate(19.913096, 4.000000)" stroke="#FF0F0F" stroke-dasharray="4,2">
            <line x1="0.5" y1="0" x2="0.5" y2="96" id="VLine0"></line>
            <line x1="16.5" y1="0" x2="16.5" y2="96" id="VLine1"></line>
            <line x1="32.5" y1="0" x2="32.5" y2="96" id="VLine2"></line>
            <line x1="48.5" y1="0" x2="48.5" y2="96" id="VLine3"></line>
            <line x1="64.5" y1="0" x2="64.5" y2="96" id="VLine4"></line>
        </g>
        <g id="Horiz" transform="translate(52.413096, 52.000000) rotate(90.000000) translate(-52.413096, -52.000000) translate(19.913096, 4.000000)" stroke="#FF0F0F" stroke-dasharray="4,2">
            <line x1="0.5" y1="0" x2="0.5" y2="96" id="HLine0"></line>
            <line x1="16.5" y1="0" x2="16.5" y2="96" id="HLine1"></line>
            <line x1="32.5" y1="0" x2="32.5" y2="96" id="HLine2"></line>
            <line x1="48.5" y1="0" x2="48.5" y2="96" id="HLine3"></line>
            <line x1="64.5" y1="0" x2="64.5" y2="96" id="HLine4"></line>
        </g>
    </g>
</svg>