<?xml version="1.0" encoding="UTF-8"?>
<svg width="545px" height="92px" viewBox="0 0 545 92" version="1.1" xmlns="http://www.w3.org/2000/svg" xmlns:xlink="http://www.w3.org/1999/xlink">
    <title>tileset-code</title>
    <g id="tileset-code" stroke="none" stroke-width="1" fill="none" fill-rule="evenodd">
        <rect fill="#282B33" x="0" y="0" width="545" height="92"></rect>
        <g id="Tileset-Code" transform="translate(16.750000, 6.000000)" fill-rule="nonzero">
            <g id="&lt;tileset-firstgid=“1" transform="translate(0.168945, 0.949097)">
                <polygon id="&lt;" fill="#ABB2BF" points="7.0982666 10.3513184 7.0982666 9.12084961 1.59960938 6.49072266 7.0982666 3.8605957 7.0982666 2.63012695 0 6.09851074 0 6.88293457"></polygon>
                <path d="M14.1888428,12.2047119 C14.8143311,12.2047119 15.4603271,12.1226807 16.1268311,11.9586182 L16.1268311,11.9586182 L16.1268311,10.8973389 C15.3731689,11.0050049 14.7579346,11.0588379 14.2811279,11.0588379 C13.2967529,11.0588379 12.8045654,10.55896 12.8045654,9.5592041 L12.8045654,9.5592041 L12.8045654,4.66040039 L16.1729736,4.66040039 L16.1729736,3.60681152 L12.8045654,3.60681152 L12.8045654,1.35351562 L11.9970703,1.35351562 L11.4049072,3.56066895 L9.3515625,3.9375 L9.3515625,4.66040039 L11.4049072,4.66040039 L11.4049072,9.5592041 C11.4049072,11.322876 12.3328857,12.2047119 14.1888428,12.2047119 Z M22.6021729,1.8918457 C22.8226318,1.8918457 23.0136108,1.81878662 23.1751099,1.67266846 C23.3366089,1.52655029 23.4173584,1.30480957 23.4173584,1.00744629 C23.4173584,0.422973633 23.1456299,0.130737305 22.6021729,0.130737305 C22.0535889,0.130737305 21.7792969,0.422973633 21.7792969,1.00744629 C21.7792969,1.5970459 22.0535889,1.8918457 22.6021729,1.8918457 Z M26.0013428,12.0509033 L26.0013428,11.1049805 L23.2943115,10.9511719 L23.2943115,3.60681152 L19.8259277,3.60681152 L19.8259277,4.55273438 L21.8946533,4.7142334 L21.8946533,10.9511719 L19.2491455,11.1049805 L19.2491455,12.0509033 L26.0013428,12.0509033 Z M35.3913574,12.0509033 L35.3913574,11.1049805 L32.6843262,10.9511719 L32.6843262,0.0845947266 L29.2159424,0.0845947266 L29.2159424,1.02282715 L31.2769775,1.18432617 L31.2769775,10.9511719 L28.6314697,11.1049805 L28.6314697,12.0509033 L35.3913574,12.0509033 Z M41.8051758,12.2047119 C42.8203125,12.2047119 43.753418,12.0124512 44.6044922,11.6279297 L44.6044922,11.6279297 L44.6044922,10.3974609 C43.7072754,10.7871094 42.7587891,10.9819336 41.7590332,10.9819336 C40.036377,10.9819336 39.154541,10.0206299 39.1135254,8.09802246 L39.1135254,8.09802246 L45.065918,8.09802246 L45.065918,7.22900391 C45.065918,6.08569336 44.7416382,5.17053223 44.0930786,4.48352051 C43.444519,3.79650879 42.5767822,3.45300293 41.4898682,3.45300293 C40.3260498,3.45300293 39.3967896,3.85162354 38.7020874,4.64886475 C38.0073853,5.44610596 37.6600342,6.52661133 37.6600342,7.89038086 C37.6600342,9.23364258 38.0368652,10.2885132 38.7905273,11.0549927 C39.5441895,11.8214722 40.5490723,12.2047119 41.8051758,12.2047119 Z M43.5509033,6.95983887 L39.1442871,6.95983887 C39.2775879,5.39611816 40.0491943,4.61425781 41.4591064,4.61425781 C42.8536377,4.61425781 43.5509033,5.39611816 43.5509033,6.95983887 L43.5509033,6.95983887 Z M50.5338135,12.2047119 C51.6309814,12.2047119 52.4794922,11.9855347 53.0793457,11.5471802 C53.6791992,11.1088257 53.979126,10.505127 53.979126,9.73608398 C53.979126,9.18237305 53.8009644,8.71453857 53.4446411,8.33258057 C53.0883179,7.95062256 52.3692627,7.56225586 51.2874756,7.16748047 C50.3543701,6.83422852 49.7583618,6.57403564 49.4994507,6.38690186 C49.2405396,6.19976807 49.111084,5.9498291 49.111084,5.63708496 C49.111084,4.9552002 49.7160645,4.61425781 50.9260254,4.61425781 C51.628418,4.61425781 52.446167,4.79882812 53.3792725,5.16796875 L53.3792725,5.16796875 L53.8406982,4.02209473 C52.9639893,3.6427002 52.0180664,3.45300293 51.0029297,3.45300293 C49.9929199,3.45300293 49.2020874,3.65167236 48.6304321,4.04901123 C48.0587769,4.4463501 47.7729492,4.99365234 47.7729492,5.69091797 C47.7729492,6.19848633 47.9280396,6.63812256 48.2382202,7.00982666 C48.5484009,7.38153076 49.3007812,7.79040527 50.4953613,8.2364502 C51.402832,8.5645752 51.9821777,8.83630371 52.2333984,9.05163574 C52.4846191,9.26696777 52.6102295,9.52075195 52.6102295,9.81298828 C52.6102295,10.6435547 51.9052734,11.0588379 50.4953613,11.0588379 C49.5878906,11.0588379 48.6394043,10.8383789 47.6499023,10.3974609 L47.6499023,10.3974609 L47.6499023,11.6740723 C48.3010254,12.027832 49.2623291,12.2047119 50.5338135,12.2047119 Z M60.708252,12.2047119 C61.7233887,12.2047119 62.6564941,12.0124512 63.5075684,11.6279297 L63.5075684,11.6279297 L63.5075684,10.3974609 C62.6103516,10.7871094 61.6618652,10.9819336 60.6621094,10.9819336 C58.9394531,10.9819336 58.0576172,10.0206299 58.0166016,8.09802246 L58.0166016,8.09802246 L63.9689941,8.09802246 L63.9689941,7.22900391 C63.9689941,6.08569336 63.6447144,5.17053223 62.9961548,4.48352051 C62.3475952,3.79650879 61.4798584,3.45300293 60.3929443,3.45300293 C59.229126,3.45300293 58.2998657,3.85162354 57.6051636,4.64886475 C56.9104614,5.44610596 56.5631104,6.52661133 56.5631104,7.89038086 C56.5631104,9.23364258 56.9399414,10.2885132 57.6936035,11.0549927 C58.4472656,11.8214722 59.4521484,12.2047119 60.708252,12.2047119 Z M62.4539795,6.95983887 L58.0473633,6.95983887 C58.1806641,5.39611816 58.9522705,4.61425781 60.3621826,4.61425781 C61.7567139,4.61425781 62.4539795,5.39611816 62.4539795,6.95983887 L62.4539795,6.95983887 Z M70.8980713,12.2047119 C71.5235596,12.2047119 72.1695557,12.1226807 72.8360596,11.9586182 L72.8360596,11.9586182 L72.8360596,10.8973389 C72.0823975,11.0050049 71.4671631,11.0588379 70.9903564,11.0588379 C70.0059814,11.0588379 69.5137939,10.55896 69.5137939,9.5592041 L69.5137939,9.5592041 L69.5137939,4.66040039 L72.8822021,4.66040039 L72.8822021,3.60681152 L69.5137939,3.60681152 L69.5137939,1.35351562 L68.7062988,1.35351562 L68.1141357,3.56066895 L66.060791,3.9375 L66.060791,4.66040039 L68.1141357,4.66040039 L68.1141357,9.5592041 C68.1141357,11.322876 69.0421143,12.2047119 70.8980713,12.2047119 Z" id="tileset" fill="#E06C76"></path>
                <path d="M88.9321289,12.0509033 L88.9321289,4.66040039 L91.9237061,4.66040039 L91.9237061,3.60681152 L88.9321289,3.60681152 L88.9321289,2.80700684 C88.9321289,2.21740723 89.0449219,1.79443359 89.2705078,1.53808594 C89.4960938,1.28173828 89.9241943,1.15356445 90.5548096,1.15356445 C91.0828857,1.15356445 91.6135254,1.2253418 92.1467285,1.36889648 L92.1467285,1.36889648 L92.4620361,0.269165039 C91.8314209,0.0897216797 91.1854248,0 90.5240479,0 C89.4525146,0 88.6860352,0.223022461 88.2246094,0.669067383 C87.7631836,1.1151123 87.5324707,1.83288574 87.5324707,2.8223877 L87.5324707,2.8223877 L87.5324707,3.56066895 L85.0946045,3.81445312 L85.0946045,4.66040039 L87.5324707,4.66040039 L87.5324707,12.0509033 L88.9321289,12.0509033 Z M98.2144775,1.8918457 C98.4349365,1.8918457 98.6259155,1.81878662 98.7874146,1.67266846 C98.9489136,1.52655029 99.0296631,1.30480957 99.0296631,1.00744629 C99.0296631,0.422973633 98.7579346,0.130737305 98.2144775,0.130737305 C97.6658936,0.130737305 97.3916016,0.422973633 97.3916016,1.00744629 C97.3916016,1.5970459 97.6658936,1.8918457 98.2144775,1.8918457 Z M101.613647,12.0509033 L101.613647,11.1049805 L98.9066162,10.9511719 L98.9066162,3.60681152 L95.4382324,3.60681152 L95.4382324,4.55273438 L97.506958,4.7142334 L97.506958,10.9511719 L94.8614502,11.1049805 L94.8614502,12.0509033 L101.613647,12.0509033 Z M106.227905,12.0509033 L106.227905,7.49816895 C106.227905,6.60095215 106.454773,5.91522217 106.908508,5.440979 C107.362244,4.96673584 108.006958,4.72961426 108.842651,4.72961426 C109.360474,4.72961426 109.934692,4.8449707 110.565308,5.07568359 L110.565308,5.07568359 L110.942139,3.79907227 C110.31665,3.56835938 109.701416,3.45300293 109.096436,3.45300293 C108.445312,3.45300293 107.896729,3.58374023 107.450684,3.84521484 C107.004639,4.10668945 106.586792,4.54248047 106.197144,5.15258789 L106.197144,5.15258789 L106.13562,5.15258789 L105.966431,3.60681152 L104.828247,3.60681152 L104.828247,12.0509033 L106.227905,12.0509033 Z M116.69458,12.2047119 C117.791748,12.2047119 118.640259,11.9855347 119.240112,11.5471802 C119.839966,11.1088257 120.139893,10.505127 120.139893,9.73608398 C120.139893,9.18237305 119.961731,8.71453857 119.605408,8.33258057 C119.249084,7.95062256 118.530029,7.56225586 117.448242,7.16748047 C116.515137,6.83422852 115.919128,6.57403564 115.660217,6.38690186 C115.401306,6.19976807 115.271851,5.9498291 115.271851,5.63708496 C115.271851,4.9552002 115.876831,4.61425781 117.086792,4.61425781 C117.789185,4.61425781 118.606934,4.79882812 119.540039,5.16796875 L119.540039,5.16796875 L120.001465,4.02209473 C119.124756,3.6427002 118.178833,3.45300293 117.163696,3.45300293 C116.153687,3.45300293 115.362854,3.65167236 114.791199,4.04901123 C114.219543,4.4463501 113.933716,4.99365234 113.933716,5.69091797 C113.933716,6.19848633 114.088806,6.63812256 114.398987,7.00982666 C114.709167,7.38153076 115.461548,7.79040527 116.656128,8.2364502 C117.563599,8.5645752 118.142944,8.83630371 118.394165,9.05163574 C118.645386,9.26696777 118.770996,9.52075195 118.770996,9.81298828 C118.770996,10.6435547 118.06604,11.0588379 116.656128,11.0588379 C115.748657,11.0588379 114.800171,10.8383789 113.810669,10.3974609 L113.810669,10.3974609 L113.810669,11.6740723 C114.461792,12.027832 115.423096,12.2047119 116.69458,12.2047119 Z M127.6073,12.2047119 C128.232788,12.2047119 128.878784,12.1226807 129.545288,11.9586182 L129.545288,11.9586182 L129.545288,10.8973389 C128.791626,11.0050049 128.176392,11.0588379 127.699585,11.0588379 C126.71521,11.0588379 126.223022,10.55896 126.223022,9.5592041 L126.223022,9.5592041 L126.223022,4.66040039 L129.591431,4.66040039 L129.591431,3.60681152 L126.223022,3.60681152 L126.223022,1.35351562 L125.415527,1.35351562 L124.823364,3.56066895 L122.77002,3.9375 L122.77002,4.66040039 L124.823364,4.66040039 L124.823364,9.5592041 C124.823364,11.322876 125.751343,12.2047119 127.6073,12.2047119 Z M135.359253,15.8345947 C138.255981,15.8345947 139.704346,14.8681641 139.704346,12.9353027 C139.704346,12.2021484 139.468506,11.6381836 138.996826,11.2434082 C138.525146,10.8486328 137.843262,10.6512451 136.951172,10.6512451 L136.951172,10.6512451 L135.513062,10.6512451 C134.687622,10.6512451 134.274902,10.4359131 134.274902,10.005249 C134.274902,9.61047363 134.53125,9.26953125 135.043945,8.98242188 C135.202881,9.01318359 135.42334,9.02856445 135.705322,9.02856445 C136.679443,9.02856445 137.439514,8.78375244 137.985535,8.29412842 C138.531555,7.80450439 138.804565,7.14697266 138.804565,6.3215332 C138.804565,5.6652832 138.637939,5.1192627 138.304688,4.68347168 L138.304688,4.68347168 L139.812012,4.47583008 L139.812012,3.60681152 L136.905029,3.60681152 C136.576904,3.50427246 136.192383,3.45300293 135.751465,3.45300293 C134.741455,3.45300293 133.96344,3.70550537 133.417419,4.21051025 C132.871399,4.71551514 132.598389,5.43457031 132.598389,6.36767578 C132.598389,6.88549805 132.729126,7.36358643 132.990601,7.80194092 C133.252075,8.24029541 133.610962,8.55432129 134.067261,8.74401855 C133.385376,9.1541748 133.044434,9.6463623 133.044434,10.2205811 C133.044434,10.769165 133.290527,11.1639404 133.782715,11.4049072 C132.552246,11.7022705 131.937012,12.3944092 131.937012,13.4813232 C131.937012,14.2247314 132.227966,14.8027954 132.809875,15.2155151 C133.391785,15.6282349 134.241577,15.8345947 135.359253,15.8345947 Z M135.720703,8.06726074 C134.556885,8.06726074 133.974976,7.48535156 133.974976,6.3215332 C133.974976,5.08081055 134.551758,4.46044922 135.705322,4.46044922 C136.858887,4.46044922 137.435669,5.07312012 137.435669,6.29846191 C137.435669,7.47766113 136.864014,8.06726074 135.720703,8.06726074 Z M135.343872,14.7733154 C133.954468,14.7733154 133.259766,14.3272705 133.259766,13.4351807 C133.259766,12.4200439 133.849365,11.9124756 135.028564,11.9124756 L135.028564,11.9124756 L136.474365,11.9124756 C137.233154,11.9124756 137.740723,11.9906616 137.99707,12.1470337 C138.253418,12.3034058 138.381592,12.6071777 138.381592,13.0583496 C138.381592,14.2016602 137.369019,14.7733154 135.343872,14.7733154 Z M145.472168,1.8918457 C145.692627,1.8918457 145.883606,1.81878662 146.045105,1.67266846 C146.206604,1.52655029 146.287354,1.30480957 146.287354,1.00744629 C146.287354,0.422973633 146.015625,0.130737305 145.472168,0.130737305 C144.923584,0.130737305 144.649292,0.422973633 144.649292,1.00744629 C144.649292,1.5970459 144.923584,1.8918457 145.472168,1.8918457 Z M148.871338,12.0509033 L148.871338,11.1049805 L146.164307,10.9511719 L146.164307,3.60681152 L142.695923,3.60681152 L142.695923,4.55273438 L144.764648,4.7142334 L144.764648,10.9511719 L142.119141,11.1049805 L142.119141,12.0509033 L148.871338,12.0509033 Z M154.416138,12.2047119 C155.487671,12.2047119 156.31311,11.7766113 156.892456,10.9204102 L156.892456,10.9204102 L156.953979,10.9204102 L157.161621,12.0509033 L158.292114,12.0509033 L158.292114,0.0845947266 L156.892456,0.0845947266 L156.892456,3.43762207 C156.892456,3.60681152 156.923218,4.02209473 156.984741,4.68347168 L156.984741,4.68347168 L156.892456,4.68347168 C156.297729,3.86315918 155.47229,3.45300293 154.416138,3.45300293 C153.390747,3.45300293 152.583252,3.83880615 151.993652,4.6104126 C151.404053,5.38201904 151.109253,6.45996094 151.109253,7.84423828 C151.109253,9.21826172 151.402771,10.2885132 151.989807,11.0549927 C152.576843,11.8214722 153.38562,12.2047119 154.416138,12.2047119 Z M154.669922,11.043457 C153.265137,11.043457 152.562744,9.98217773 152.562744,7.85961914 C152.562744,5.69604492 153.26001,4.61425781 154.654541,4.61425781 C155.433838,4.61425781 156.001648,4.8616333 156.357971,5.35638428 C156.714294,5.85113525 156.892456,6.68041992 156.892456,7.84423828 L156.892456,7.84423828 L156.892456,8.1595459 C156.871948,9.17468262 156.691223,9.90911865 156.350281,10.362854 C156.009338,10.8165894 155.449219,11.043457 154.669922,11.043457 Z" id="firstgid" fill="#D19A66"></path>
                <path d="M167.774414,5.49865723 L167.774414,4.3527832 L160.676147,4.3527832 L160.676147,5.49865723 L167.774414,5.49865723 Z M167.774414,8.6517334 L167.774414,7.49816895 L160.676147,7.49816895 L160.676147,8.6517334 L167.774414,8.6517334 Z" id="=" fill="#ABB2BF"></path>
                <path d="M175.826294,4.66040039 C176.021118,3.39916992 176.277466,2.11486816 176.595337,0.807495117 L176.595337,0.807495117 L175.387939,0.807495117 C174.757324,2.20715332 174.303589,3.43505859 174.026733,4.49121094 L174.026733,4.49121094 L174.14209,4.66040039 L175.826294,4.66040039 Z M172.550171,4.66040039 C172.744995,3.39916992 173.001343,2.11486816 173.319214,0.807495117 L173.319214,0.807495117 L172.111816,0.807495117 C171.481201,2.20715332 171.027466,3.43505859 170.75061,4.49121094 L170.75061,4.49121094 L170.865967,4.66040039 L172.550171,4.66040039 Z M184.239624,12.0509033 L184.239624,0.807495117 L183.08606,0.807495117 L180.140625,3.10693359 L180.886597,4.05285645 L182.01709,3.12231445 C182.4375,2.76342773 182.747681,2.47375488 182.947632,2.2532959 C182.906616,3.4786377 182.886108,4.40405273 182.886108,5.02954102 L182.886108,12.0509033 L184.239624,12.0509033 Z M190.868774,4.66040039 C191.489136,3.29663086 191.940308,2.06872559 192.22229,0.97668457 L192.22229,0.97668457 L192.114624,0.807495117 L190.43042,0.807495117 C190.24585,2.0123291 189.986938,3.29663086 189.653687,4.66040039 L189.653687,4.66040039 L190.868774,4.66040039 Z M194.144897,4.66040039 C194.765259,3.29663086 195.216431,2.06872559 195.498413,0.97668457 L195.498413,0.97668457 L195.390747,0.807495117 L193.706543,0.807495117 C193.521973,2.0123291 193.263062,3.29663086 192.92981,4.66040039 L192.92981,4.66040039 L194.144897,4.66040039 Z" id="“1”" fill="#99C379"></path>
                <path d="M211.209961,12.2047119 C212.307129,12.2047119 213.15564,11.9855347 213.755493,11.5471802 C214.355347,11.1088257 214.655273,10.505127 214.655273,9.73608398 C214.655273,9.18237305 214.477112,8.71453857 214.120789,8.33258057 C213.764465,7.95062256 213.04541,7.56225586 211.963623,7.16748047 C211.030518,6.83422852 210.434509,6.57403564 210.175598,6.38690186 C209.916687,6.19976807 209.787231,5.9498291 209.787231,5.63708496 C209.787231,4.9552002 210.392212,4.61425781 211.602173,4.61425781 C212.304565,4.61425781 213.122314,4.79882812 214.05542,5.16796875 L214.05542,5.16796875 L214.516846,4.02209473 C213.640137,3.6427002 212.694214,3.45300293 211.679077,3.45300293 C210.669067,3.45300293 209.878235,3.65167236 209.30658,4.04901123 C208.734924,4.4463501 208.449097,4.99365234 208.449097,5.69091797 C208.449097,6.19848633 208.604187,6.63812256 208.914368,7.00982666 C209.224548,7.38153076 209.976929,7.79040527 211.171509,8.2364502 C212.078979,8.5645752 212.658325,8.83630371 212.909546,9.05163574 C213.160767,9.26696777 213.286377,9.52075195 213.286377,9.81298828 C213.286377,10.6435547 212.581421,11.0588379 211.171509,11.0588379 C210.264038,11.0588379 209.315552,10.8383789 208.32605,10.3974609 L208.32605,10.3974609 L208.32605,11.6740723 C208.977173,12.027832 209.938477,12.2047119 211.209961,12.2047119 Z M220.907593,12.2047119 C222.076538,12.2047119 223.012207,11.8125 223.7146,11.0280762 C224.416992,10.2436523 224.768188,9.17211914 224.768188,7.81347656 C224.768188,6.49584961 224.411865,5.43969727 223.699219,4.64501953 C222.986572,3.8503418 222.071411,3.45300293 220.953735,3.45300293 C219.774536,3.45300293 218.837585,3.84265137 218.142883,4.62194824 C217.448181,5.40124512 217.10083,6.46508789 217.10083,7.81347656 C217.10083,9.14648438 217.458435,10.2116089 218.173645,11.0088501 C218.888855,11.8060913 219.800171,12.2047119 220.907593,12.2047119 Z M220.938354,11.043457 C219.343872,11.043457 218.546631,9.96679688 218.546631,7.81347656 C218.546631,5.68066406 219.338745,4.61425781 220.922974,4.61425781 C222.522583,4.61425781 223.322388,5.68066406 223.322388,7.81347656 C223.322388,9.96679688 222.52771,11.043457 220.938354,11.043457 Z M229.905396,12.2047119 C231.079468,12.2047119 231.935669,11.7766113 232.473999,10.9204102 L232.473999,10.9204102 L232.550903,10.9204102 L232.758545,12.0509033 L233.889038,12.0509033 L233.889038,3.60681152 L232.48938,3.60681152 L232.48938,7.99035645 C232.48938,9.07727051 232.299683,9.85784912 231.920288,10.3320923 C231.540894,10.8063354 230.938477,11.043457 230.113037,11.043457 C228.903076,11.043457 228.298096,10.3769531 228.298096,9.04394531 L228.298096,9.04394531 L228.298096,3.60681152 L226.898438,3.60681152 L226.898438,9.12084961 C226.898438,11.1767578 227.900757,12.2047119 229.905396,12.2047119 Z M238.549438,12.0509033 L238.549438,7.49816895 C238.549438,6.60095215 238.776306,5.91522217 239.230042,5.440979 C239.683777,4.96673584 240.328491,4.72961426 241.164185,4.72961426 C241.682007,4.72961426 242.256226,4.8449707 242.886841,5.07568359 L242.886841,5.07568359 L243.263672,3.79907227 C242.638184,3.56835938 242.022949,3.45300293 241.417969,3.45300293 C240.766846,3.45300293 240.218262,3.58374023 239.772217,3.84521484 C239.326172,4.10668945 238.908325,4.54248047 238.518677,5.15258789 L238.518677,5.15258789 L238.457153,5.15258789 L238.287964,3.60681152 L237.14978,3.60681152 L237.14978,12.0509033 L238.549438,12.0509033 Z M250.054321,12.2047119 C251.054077,12.2047119 251.897461,12.0483398 252.584473,11.7355957 L252.584473,11.7355957 L252.584473,10.505127 C251.743652,10.822998 250.920776,10.9819336 250.115845,10.9819336 C248.265015,10.9819336 247.3396,9.94116211 247.3396,7.85961914 C247.3396,5.7421875 248.290649,4.68347168 250.192749,4.68347168 C250.797729,4.68347168 251.484741,4.82958984 252.253784,5.12182617 L252.253784,5.12182617 L252.730591,3.90673828 C251.920532,3.60424805 251.059204,3.45300293 250.146606,3.45300293 C248.798218,3.45300293 247.752319,3.82983398 247.008911,4.58349609 C246.265503,5.3371582 245.893799,6.43432617 245.893799,7.875 C245.893799,9.26953125 246.257812,10.3397827 246.98584,11.0857544 C247.713867,11.8317261 248.736694,12.2047119 250.054321,12.2047119 Z M259.190552,12.2047119 C260.205688,12.2047119 261.138794,12.0124512 261.989868,11.6279297 L261.989868,11.6279297 L261.989868,10.3974609 C261.092651,10.7871094 260.144165,10.9819336 259.144409,10.9819336 C257.421753,10.9819336 256.539917,10.0206299 256.498901,8.09802246 L256.498901,8.09802246 L262.451294,8.09802246 L262.451294,7.22900391 C262.451294,6.08569336 262.127014,5.17053223 261.478455,4.48352051 C260.829895,3.79650879 259.962158,3.45300293 258.875244,3.45300293 C257.711426,3.45300293 256.782166,3.85162354 256.087463,4.64886475 C255.392761,5.44610596 255.04541,6.52661133 255.04541,7.89038086 C255.04541,9.23364258 255.422241,10.2885132 256.175903,11.0549927 C256.929565,11.8214722 257.934448,12.2047119 259.190552,12.2047119 Z M260.936279,6.95983887 L256.529663,6.95983887 C256.662964,5.39611816 257.43457,4.61425781 258.844482,4.61425781 C260.239014,4.61425781 260.936279,5.39611816 260.936279,6.95983887 L260.936279,6.95983887 Z" id="source" fill="#D19A66"></path>
                <path d="M271.741333,5.49865723 L271.741333,4.3527832 L264.643066,4.3527832 L264.643066,5.49865723 L271.741333,5.49865723 Z M271.741333,8.6517334 L271.741333,7.49816895 L264.643066,7.49816895 L264.643066,8.6517334 L271.741333,8.6517334 Z" id="=" fill="#ABB2BF"></path>
                <path d="M279.793213,4.66040039 C279.988037,3.39916992 280.244385,2.11486816 280.562256,0.807495117 L280.562256,0.807495117 L279.354858,0.807495117 C278.724243,2.20715332 278.270508,3.43505859 277.993652,4.49121094 L277.993652,4.49121094 L278.109009,4.66040039 L279.793213,4.66040039 Z M276.51709,4.66040039 C276.711914,3.39916992 276.968262,2.11486816 277.286133,0.807495117 L277.286133,0.807495117 L276.078735,0.807495117 C275.44812,2.20715332 274.994385,3.43505859 274.717529,4.49121094 L274.717529,4.49121094 L274.832886,4.66040039 L276.51709,4.66040039 Z M287.860474,12.2047119 C288.860229,12.2047119 289.703613,12.0483398 290.390625,11.7355957 L290.390625,11.7355957 L290.390625,10.505127 C289.549805,10.822998 288.726929,10.9819336 287.921997,10.9819336 C286.071167,10.9819336 285.145752,9.94116211 285.145752,7.85961914 C285.145752,5.7421875 286.096802,4.68347168 287.998901,4.68347168 C288.603882,4.68347168 289.290894,4.82958984 290.059937,5.12182617 L290.059937,5.12182617 L290.536743,3.90673828 C289.726685,3.60424805 288.865356,3.45300293 287.952759,3.45300293 C286.60437,3.45300293 285.558472,3.82983398 284.815063,4.58349609 C284.071655,5.3371582 283.699951,6.43432617 283.699951,7.875 C283.699951,9.26953125 284.063965,10.3397827 284.791992,11.0857544 C285.52002,11.8317261 286.542847,12.2047119 287.860474,12.2047119 Z M294.458862,12.0509033 L294.458862,7.67504883 C294.458862,5.63452148 295.24585,4.61425781 296.819824,4.61425781 C298.040039,4.61425781 298.650146,5.28076172 298.650146,6.61376953 L298.650146,6.61376953 L298.650146,12.0509033 L300.049805,12.0509033 L300.049805,6.53686523 C300.049805,4.48095703 299.052612,3.45300293 297.058228,3.45300293 C295.863647,3.45300293 295.002319,3.88366699 294.474243,4.74499512 L294.474243,4.74499512 L294.397339,4.74499512 L294.458862,3.63757324 L294.458862,0.0845947266 L293.059204,0.0845947266 L293.059204,12.0509033 L294.458862,12.0509033 Z M304.994751,12.2047119 C305.651001,12.2047119 306.186768,12.1085815 306.602051,11.9163208 C307.017334,11.7240601 307.422363,11.3792725 307.817139,10.881958 L307.817139,10.881958 L307.878662,10.881958 L308.163208,12.0509033 L309.170654,12.0509033 L309.170654,6.2677002 C309.170654,5.2833252 308.910461,4.56811523 308.390076,4.12207031 C307.86969,3.67602539 307.027588,3.45300293 305.86377,3.45300293 C304.905029,3.45300293 303.923218,3.69909668 302.918335,4.19128418 L302.918335,4.19128418 L303.402832,5.24487305 C304.330811,4.82446289 305.171631,4.61425781 305.925293,4.61425781 C307.17627,4.61425781 307.801758,5.21923828 307.801758,6.42919922 L307.801758,6.42919922 L307.801758,6.95983887 L306.240601,7.01367188 C303.625854,7.09570312 302.318481,7.98779297 302.318481,9.68994141 C302.318481,10.4846191 302.555603,11.102417 303.029846,11.543335 C303.504089,11.9842529 304.159058,12.2047119 304.994751,12.2047119 Z M305.310059,11.0742188 C304.284668,11.0742188 303.771973,10.6179199 303.771973,9.70532227 C303.771973,9.14135742 303.982178,8.722229 304.402588,8.44793701 C304.822998,8.17364502 305.535645,8.01599121 306.540527,7.97497559 L306.540527,7.97497559 L307.786377,7.92114258 L307.786377,8.68249512 C307.786377,9.44128418 307.562073,10.0296021 307.113464,10.4474487 C306.664856,10.8652954 306.063721,11.0742188 305.310059,11.0742188 Z M314.161743,12.0509033 L314.161743,7.49816895 C314.161743,6.60095215 314.388611,5.91522217 314.842346,5.440979 C315.296082,4.96673584 315.940796,4.72961426 316.776489,4.72961426 C317.294312,4.72961426 317.86853,4.8449707 318.499146,5.07568359 L318.499146,5.07568359 L318.875977,3.79907227 C318.250488,3.56835938 317.635254,3.45300293 317.030273,3.45300293 C316.37915,3.45300293 315.830566,3.58374023 315.384521,3.84521484 C314.938477,4.10668945 314.52063,4.54248047 314.130981,5.15258789 L314.130981,5.15258789 L314.069458,5.15258789 L313.900269,3.60681152 L312.762085,3.60681152 L312.762085,12.0509033 L314.161743,12.0509033 Z M323.897827,12.2047119 C324.554077,12.2047119 325.089844,12.1085815 325.505127,11.9163208 C325.92041,11.7240601 326.325439,11.3792725 326.720215,10.881958 L326.720215,10.881958 L326.781738,10.881958 L327.066284,12.0509033 L328.07373,12.0509033 L328.07373,6.2677002 C328.07373,5.2833252 327.813538,4.56811523 327.293152,4.12207031 C326.772766,3.67602539 325.930664,3.45300293 324.766846,3.45300293 C323.808105,3.45300293 322.826294,3.69909668 321.821411,4.19128418 L321.821411,4.19128418 L322.305908,5.24487305 C323.233887,4.82446289 324.074707,4.61425781 324.828369,4.61425781 C326.079346,4.61425781 326.704834,5.21923828 326.704834,6.42919922 L326.704834,6.42919922 L326.704834,6.95983887 L325.143677,7.01367188 C322.528931,7.09570312 321.221558,7.98779297 321.221558,9.68994141 C321.221558,10.4846191 321.458679,11.102417 321.932922,11.543335 C322.407166,11.9842529 323.062134,12.2047119 323.897827,12.2047119 Z M324.213135,11.0742188 C323.187744,11.0742188 322.675049,10.6179199 322.675049,9.70532227 C322.675049,9.14135742 322.885254,8.722229 323.305664,8.44793701 C323.726074,8.17364502 324.438721,8.01599121 325.443604,7.97497559 L325.443604,7.97497559 L326.689453,7.92114258 L326.689453,8.68249512 C326.689453,9.44128418 326.465149,10.0296021 326.016541,10.4474487 C325.567932,10.8652954 324.966797,11.0742188 324.213135,11.0742188 Z M335.118164,12.2047119 C336.11792,12.2047119 336.961304,12.0483398 337.648315,11.7355957 L337.648315,11.7355957 L337.648315,10.505127 C336.807495,10.822998 335.984619,10.9819336 335.179688,10.9819336 C333.328857,10.9819336 332.403442,9.94116211 332.403442,7.85961914 C332.403442,5.7421875 333.354492,4.68347168 335.256592,4.68347168 C335.861572,4.68347168 336.548584,4.82958984 337.317627,5.12182617 L337.317627,5.12182617 L337.794434,3.90673828 C336.984375,3.60424805 336.123047,3.45300293 335.210449,3.45300293 C333.862061,3.45300293 332.816162,3.82983398 332.072754,4.58349609 C331.329346,5.3371582 330.957642,6.43432617 330.957642,7.875 C330.957642,9.26953125 331.321655,10.3397827 332.049683,11.0857544 C332.77771,11.8317261 333.800537,12.2047119 335.118164,12.2047119 Z M344.992676,12.2047119 C345.618164,12.2047119 346.26416,12.1226807 346.930664,11.9586182 L346.930664,11.9586182 L346.930664,10.8973389 C346.177002,11.0050049 345.561768,11.0588379 345.084961,11.0588379 C344.100586,11.0588379 343.608398,10.55896 343.608398,9.5592041 L343.608398,9.5592041 L343.608398,4.66040039 L346.976807,4.66040039 L346.976807,3.60681152 L343.608398,3.60681152 L343.608398,1.35351562 L342.800903,1.35351562 L342.20874,3.56066895 L340.155396,3.9375 L340.155396,4.66040039 L342.20874,4.66040039 L342.20874,9.5592041 C342.20874,11.322876 343.136719,12.2047119 344.992676,12.2047119 Z M353.705933,12.2047119 C354.721069,12.2047119 355.654175,12.0124512 356.505249,11.6279297 L356.505249,11.6279297 L356.505249,10.3974609 C355.608032,10.7871094 354.659546,10.9819336 353.65979,10.9819336 C351.937134,10.9819336 351.055298,10.0206299 351.014282,8.09802246 L351.014282,8.09802246 L356.966675,8.09802246 L356.966675,7.22900391 C356.966675,6.08569336 356.642395,5.17053223 355.993835,4.48352051 C355.345276,3.79650879 354.477539,3.45300293 353.390625,3.45300293 C352.226807,3.45300293 351.297546,3.85162354 350.602844,4.64886475 C349.908142,5.44610596 349.560791,6.52661133 349.560791,7.89038086 C349.560791,9.23364258 349.937622,10.2885132 350.691284,11.0549927 C351.444946,11.8214722 352.449829,12.2047119 353.705933,12.2047119 Z M355.45166,6.95983887 L351.045044,6.95983887 C351.178345,5.39611816 351.949951,4.61425781 353.359863,4.61425781 C354.754395,4.61425781 355.45166,5.39611816 355.45166,6.95983887 L355.45166,6.95983887 Z M361.419434,12.0509033 L361.419434,7.49816895 C361.419434,6.60095215 361.646301,5.91522217 362.100037,5.440979 C362.553772,4.96673584 363.198486,4.72961426 364.03418,4.72961426 C364.552002,4.72961426 365.126221,4.8449707 365.756836,5.07568359 L365.756836,5.07568359 L366.133667,3.79907227 C365.508179,3.56835938 364.892944,3.45300293 364.287964,3.45300293 C363.636841,3.45300293 363.088257,3.58374023 362.642212,3.84521484 C362.196167,4.10668945 361.77832,4.54248047 361.388672,5.15258789 L361.388672,5.15258789 L361.327148,5.15258789 L361.157959,3.60681152 L360.019775,3.60681152 L360.019775,12.0509033 L361.419434,12.0509033 Z M371.886108,12.2047119 C372.983276,12.2047119 373.831787,11.9855347 374.431641,11.5471802 C375.031494,11.1088257 375.331421,10.505127 375.331421,9.73608398 C375.331421,9.18237305 375.153259,8.71453857 374.796936,8.33258057 C374.440613,7.95062256 373.721558,7.56225586 372.639771,7.16748047 C371.706665,6.83422852 371.110657,6.57403564 370.851746,6.38690186 C370.592834,6.19976807 370.463379,5.9498291 370.463379,5.63708496 C370.463379,4.9552002 371.068359,4.61425781 372.27832,4.61425781 C372.980713,4.61425781 373.798462,4.79882812 374.731567,5.16796875 L374.731567,5.16796875 L375.192993,4.02209473 C374.316284,3.6427002 373.370361,3.45300293 372.355225,3.45300293 C371.345215,3.45300293 370.554382,3.65167236 369.982727,4.04901123 C369.411072,4.4463501 369.125244,4.99365234 369.125244,5.69091797 C369.125244,6.19848633 369.280334,6.63812256 369.590515,7.00982666 C369.900696,7.38153076 370.653076,7.79040527 371.847656,8.2364502 C372.755127,8.5645752 373.334473,8.83630371 373.585693,9.05163574 C373.836914,9.26696777 373.962524,9.52075195 373.962524,9.81298828 C373.962524,10.6435547 373.257568,11.0588379 371.847656,11.0588379 C370.940186,11.0588379 369.991699,10.8383789 369.002197,10.3974609 L369.002197,10.3974609 L369.002197,11.6740723 C369.65332,12.027832 370.614624,12.2047119 371.886108,12.2047119 Z M384.152344,8.47485352 L384.152344,7.18286133 L379.084351,7.18286133 L379.084351,8.47485352 L384.152344,8.47485352 Z M392.173462,12.0509033 L392.173462,0.807495117 L391.019897,0.807495117 L388.074463,3.10693359 L388.820435,4.05285645 L389.950928,3.12231445 C390.371338,2.76342773 390.681519,2.47375488 390.88147,2.2532959 C390.840454,3.4786377 390.819946,4.40405273 390.819946,5.02954102 L390.819946,5.02954102 L390.819946,12.0509033 L392.173462,12.0509033 Z M400.648315,12.2047119 C401.689087,12.2047119 402.518372,11.8676147 403.136169,11.1934204 C403.753967,10.5192261 404.062866,9.59765625 404.062866,8.42871094 C404.062866,7.37255859 403.779602,6.53942871 403.213074,5.92932129 C402.646545,5.31921387 401.863403,5.01416016 400.863647,5.01416016 C399.776733,5.01416016 398.989746,5.44995117 398.502686,6.3215332 L398.502686,6.3215332 L398.4104,6.3215332 C398.46167,4.75268555 398.775696,3.60681152 399.352478,2.88391113 C399.92926,2.16101074 400.79187,1.79956055 401.940308,1.79956055 C402.427368,1.79956055 402.852905,1.86108398 403.216919,1.98413086 L403.216919,1.98413086 L403.216919,0.792114258 C402.868286,0.694702148 402.427368,0.645996094 401.894165,0.645996094 C398.618042,0.645996094 396.97998,2.84545898 396.97998,7.24438477 C396.97998,8.82348633 397.311951,10.0449829 397.975891,10.9088745 C398.639832,11.7727661 399.53064,12.2047119 400.648315,12.2047119 Z M400.632935,11.0280762 C399.961304,11.0280762 399.417847,10.744812 399.002563,10.1782837 C398.58728,9.61175537 398.379639,8.93884277 398.379639,8.1595459 C398.379639,7.62634277 398.600098,7.15209961 399.041016,6.73681641 C399.481934,6.3215332 400.027954,6.1138916 400.679077,6.1138916 C401.3302,6.1138916 401.83136,6.31384277 402.182556,6.71374512 C402.533752,7.11364746 402.709351,7.68530273 402.709351,8.42871094 C402.709351,9.25927734 402.526062,9.90014648 402.159485,10.3513184 C401.792908,10.8024902 401.284058,11.0280762 400.632935,11.0280762 Z M407.577393,12.0509033 L409.969116,8.69787598 L412.353149,12.0509033 L413.937378,12.0509033 L410.76123,7.72119141 L413.79895,3.60681152 L412.207031,3.60681152 L409.969116,6.7598877 L407.738892,3.60681152 L406.146973,3.60681152 L409.169312,7.72119141 L405.985474,12.0509033 L407.577393,12.0509033 Z M420.528076,12.0509033 L420.528076,0.807495117 L419.374512,0.807495117 L416.429077,3.10693359 L417.175049,4.05285645 L418.305542,3.12231445 C418.725952,2.76342773 419.036133,2.47375488 419.236084,2.2532959 C419.195068,3.4786377 419.174561,4.40405273 419.174561,5.02954102 L419.174561,5.02954102 L419.174561,12.0509033 L420.528076,12.0509033 Z M429.00293,12.2047119 C430.043701,12.2047119 430.872986,11.8676147 431.490784,11.1934204 C432.108582,10.5192261 432.41748,9.59765625 432.41748,8.42871094 C432.41748,7.37255859 432.134216,6.53942871 431.567688,5.92932129 C431.00116,5.31921387 430.218018,5.01416016 429.218262,5.01416016 C428.131348,5.01416016 427.34436,5.44995117 426.8573,6.3215332 L426.8573,6.3215332 L426.765015,6.3215332 C426.816284,4.75268555 427.13031,3.60681152 427.707092,2.88391113 C428.283875,2.16101074 429.146484,1.79956055 430.294922,1.79956055 C430.781982,1.79956055 431.20752,1.86108398 431.571533,1.98413086 L431.571533,1.98413086 L431.571533,0.792114258 C431.2229,0.694702148 430.781982,0.645996094 430.248779,0.645996094 C426.972656,0.645996094 425.334595,2.84545898 425.334595,7.24438477 C425.334595,8.82348633 425.666565,10.0449829 426.330505,10.9088745 C426.994446,11.7727661 427.885254,12.2047119 429.00293,12.2047119 Z M428.987549,11.0280762 C428.315918,11.0280762 427.772461,10.744812 427.357178,10.1782837 C426.941895,9.61175537 426.734253,8.93884277 426.734253,8.1595459 C426.734253,7.62634277 426.954712,7.15209961 427.39563,6.73681641 C427.836548,6.3215332 428.382568,6.1138916 429.033691,6.1138916 C429.684814,6.1138916 430.185974,6.31384277 430.53717,6.71374512 C430.888367,7.11364746 431.063965,7.68530273 431.063965,8.42871094 C431.063965,9.25927734 430.880676,9.90014648 430.514099,10.3513184 C430.147522,10.8024902 429.638672,11.0280762 428.987549,11.0280762 Z M438.32373,12.2893066 C439.103027,12.2893066 439.492676,11.8637695 439.492676,11.0126953 C439.492676,10.1616211 439.103027,9.73608398 438.32373,9.73608398 C437.549561,9.73608398 437.162476,10.1616211 437.162476,11.0126953 C437.162476,11.8637695 437.549561,12.2893066 438.32373,12.2893066 Z M448.959595,12.2047119 C449.585083,12.2047119 450.231079,12.1226807 450.897583,11.9586182 L450.897583,11.9586182 L450.897583,10.8973389 C450.143921,11.0050049 449.528687,11.0588379 449.05188,11.0588379 C448.067505,11.0588379 447.575317,10.55896 447.575317,9.5592041 L447.575317,9.5592041 L447.575317,4.66040039 L450.943726,4.66040039 L450.943726,3.60681152 L447.575317,3.60681152 L447.575317,1.35351562 L446.767822,1.35351562 L446.175659,3.56066895 L444.122314,3.9375 L444.122314,4.66040039 L446.175659,4.66040039 L446.175659,9.5592041 C446.175659,11.322876 447.103638,12.2047119 448.959595,12.2047119 Z M456.949951,12.2047119 C458.047119,12.2047119 458.89563,11.9855347 459.495483,11.5471802 C460.095337,11.1088257 460.395264,10.505127 460.395264,9.73608398 C460.395264,9.18237305 460.217102,8.71453857 459.860779,8.33258057 C459.504456,7.95062256 458.7854,7.56225586 457.703613,7.16748047 C456.770508,6.83422852 456.1745,6.57403564 455.915588,6.38690186 C455.656677,6.19976807 455.527222,5.9498291 455.527222,5.63708496 C455.527222,4.9552002 456.132202,4.61425781 457.342163,4.61425781 C458.044556,4.61425781 458.862305,4.79882812 459.79541,5.16796875 L459.79541,5.16796875 L460.256836,4.02209473 C459.380127,3.6427002 458.434204,3.45300293 457.419067,3.45300293 C456.409058,3.45300293 455.618225,3.65167236 455.04657,4.04901123 C454.474915,4.4463501 454.189087,4.99365234 454.189087,5.69091797 C454.189087,6.19848633 454.344177,6.63812256 454.654358,7.00982666 C454.964539,7.38153076 455.716919,7.79040527 456.911499,8.2364502 C457.81897,8.5645752 458.398315,8.83630371 458.649536,9.05163574 C458.900757,9.26696777 459.026367,9.52075195 459.026367,9.81298828 C459.026367,10.6435547 458.321411,11.0588379 456.911499,11.0588379 C456.004028,11.0588379 455.055542,10.8383789 454.06604,10.3974609 L454.06604,10.3974609 L454.06604,11.6740723 C454.717163,12.027832 455.678467,12.2047119 456.949951,12.2047119 Z M464.286621,12.0509033 L466.678345,8.69787598 L469.062378,12.0509033 L470.646606,12.0509033 L467.470459,7.72119141 L470.508179,3.60681152 L468.91626,3.60681152 L466.678345,6.7598877 L464.44812,3.60681152 L462.856201,3.60681152 L465.87854,7.72119141 L462.694702,12.0509033 L464.286621,12.0509033 Z M474.414917,4.66040039 C475.035278,3.29663086 475.48645,2.06872559 475.768433,0.97668457 L475.768433,0.97668457 L475.660767,0.807495117 L473.976562,0.807495117 C473.791992,2.0123291 473.533081,3.29663086 473.199829,4.66040039 L473.199829,4.66040039 L474.414917,4.66040039 Z M477.69104,4.66040039 C478.311401,3.29663086 478.762573,2.06872559 479.044556,0.97668457 L479.044556,0.97668457 L478.93689,0.807495117 L477.252686,0.807495117 C477.068115,2.0123291 476.809204,3.29663086 476.475952,4.66040039 L476.475952,4.66040039 L477.69104,4.66040039 Z" id="“characters-16x16.tsx”" fill="#99C379"></path>
                <path d="M483.851074,12.0509033 L488.672974,0.807495117 L487.304077,0.807495117 L482.482178,12.0509033 L483.851074,12.0509033 Z M491.47998,10.3513184 L498.578247,6.88293457 L498.578247,6.09851074 L491.47998,2.63012695 L491.47998,3.8605957 L496.970947,6.49072266 L491.47998,9.12084961 L491.47998,10.3513184 Z" id="/&gt;" fill="#ABB2BF"></path>
            </g>
            <g id="&lt;tile-id=“79”&gt;" transform="translate(21.168945, 22.783691)">
                <polygon id="&lt;" fill="#ABB2BF" points="7.0982666 10.2667236 7.0982666 9.03625488 1.59960938 6.40612793 7.0982666 3.77600098 7.0982666 2.54553223 0 6.01391602 0 6.79833984"></polygon>
                <path d="M14.1888428,12.1201172 C14.8143311,12.1201172 15.4603271,12.0380859 16.1268311,11.8740234 L16.1268311,11.8740234 L16.1268311,10.8127441 C15.3731689,10.9204102 14.7579346,10.9742432 14.2811279,10.9742432 C13.2967529,10.9742432 12.8045654,10.4743652 12.8045654,9.47460938 L12.8045654,9.47460938 L12.8045654,4.57580566 L16.1729736,4.57580566 L16.1729736,3.5222168 L12.8045654,3.5222168 L12.8045654,1.2689209 L11.9970703,1.2689209 L11.4049072,3.47607422 L9.3515625,3.85290527 L9.3515625,4.57580566 L11.4049072,4.57580566 L11.4049072,9.47460938 C11.4049072,11.2382812 12.3328857,12.1201172 14.1888428,12.1201172 Z M22.6021729,1.80725098 C22.8226318,1.80725098 23.0136108,1.73419189 23.1751099,1.58807373 C23.3366089,1.44195557 23.4173584,1.22021484 23.4173584,0.922851562 C23.4173584,0.338378906 23.1456299,0.0461425781 22.6021729,0.0461425781 C22.0535889,0.0461425781 21.7792969,0.338378906 21.7792969,0.922851562 C21.7792969,1.51245117 22.0535889,1.80725098 22.6021729,1.80725098 Z M26.0013428,11.9663086 L26.0013428,11.0203857 L23.2943115,10.8665771 L23.2943115,3.5222168 L19.8259277,3.5222168 L19.8259277,4.46813965 L21.8946533,4.62963867 L21.8946533,10.8665771 L19.2491455,11.0203857 L19.2491455,11.9663086 L26.0013428,11.9663086 Z M35.3913574,11.9663086 L35.3913574,11.0203857 L32.6843262,10.8665771 L32.6843262,0 L29.2159424,0 L29.2159424,0.938232422 L31.2769775,1.09973145 L31.2769775,10.8665771 L28.6314697,11.0203857 L28.6314697,11.9663086 L35.3913574,11.9663086 Z M41.8051758,12.1201172 C42.8203125,12.1201172 43.753418,11.9278564 44.6044922,11.543335 L44.6044922,11.543335 L44.6044922,10.3128662 C43.7072754,10.7025146 42.7587891,10.8973389 41.7590332,10.8973389 C40.036377,10.8973389 39.154541,9.93603516 39.1135254,8.01342773 L39.1135254,8.01342773 L45.065918,8.01342773 L45.065918,7.14440918 C45.065918,6.00109863 44.7416382,5.0859375 44.0930786,4.39892578 C43.444519,3.71191406 42.5767822,3.3684082 41.4898682,3.3684082 C40.3260498,3.3684082 39.3967896,3.76702881 38.7020874,4.56427002 C38.0073853,5.36151123 37.6600342,6.4420166 37.6600342,7.80578613 C37.6600342,9.14904785 38.0368652,10.2039185 38.7905273,10.9703979 C39.5441895,11.7368774 40.5490723,12.1201172 41.8051758,12.1201172 Z M43.5509033,6.87524414 L39.1442871,6.87524414 C39.2775879,5.31152344 40.0491943,4.52966309 41.4591064,4.52966309 C42.8536377,4.52966309 43.5509033,5.31152344 43.5509033,6.87524414 L43.5509033,6.87524414 Z" id="tile" fill="#E06C76"></path>
                <path d="M60.4083252,1.80725098 C60.6287842,1.80725098 60.8197632,1.73419189 60.9812622,1.58807373 C61.1427612,1.44195557 61.2235107,1.22021484 61.2235107,0.922851562 C61.2235107,0.338378906 60.9517822,0.0461425781 60.4083252,0.0461425781 C59.8597412,0.0461425781 59.5854492,0.338378906 59.5854492,0.922851562 C59.5854492,1.51245117 59.8597412,1.80725098 60.4083252,1.80725098 Z M63.8074951,11.9663086 L63.8074951,11.0203857 L61.1004639,10.8665771 L61.1004639,3.5222168 L57.6320801,3.5222168 L57.6320801,4.46813965 L59.7008057,4.62963867 L59.7008057,10.8665771 L57.0552979,11.0203857 L57.0552979,11.9663086 L63.8074951,11.9663086 Z M69.3522949,12.1201172 C70.4238281,12.1201172 71.2492676,11.6920166 71.8286133,10.8358154 L71.8286133,10.8358154 L71.8901367,10.8358154 L72.0977783,11.9663086 L73.2282715,11.9663086 L73.2282715,0 L71.8286133,0 L71.8286133,3.35302734 C71.8286133,3.5222168 71.859375,3.9375 71.9208984,4.59887695 L71.9208984,4.59887695 L71.8286133,4.59887695 C71.2338867,3.77856445 70.4084473,3.3684082 69.3522949,3.3684082 C68.3269043,3.3684082 67.5194092,3.75421143 66.9298096,4.52581787 C66.34021,5.29742432 66.0454102,6.37536621 66.0454102,7.75964355 C66.0454102,9.13366699 66.3389282,10.2039185 66.9259644,10.9703979 C67.5130005,11.7368774 68.3217773,12.1201172 69.3522949,12.1201172 Z M69.6060791,10.9588623 C68.2012939,10.9588623 67.4989014,9.89758301 67.4989014,7.77502441 C67.4989014,5.6114502 68.196167,4.52966309 69.5906982,4.52966309 C70.3699951,4.52966309 70.9378052,4.77703857 71.2941284,5.27178955 C71.6504517,5.76654053 71.8286133,6.5958252 71.8286133,7.75964355 L71.8286133,7.75964355 L71.8286133,8.07495117 C71.8081055,9.09008789 71.6273804,9.82452393 71.286438,10.2782593 C70.9454956,10.7319946 70.385376,10.9588623 69.6060791,10.9588623 Z" id="id" fill="#D19A66"></path>
                <path d="M82.7105713,5.4140625 L82.7105713,4.26818848 L75.6123047,4.26818848 L75.6123047,5.4140625 L82.7105713,5.4140625 Z M82.7105713,8.56713867 L82.7105713,7.41357422 L75.6123047,7.41357422 L75.6123047,8.56713867 L82.7105713,8.56713867 Z" id="=" fill="#ABB2BF"></path>
                <path d="M90.7624512,4.57580566 C90.9572754,3.3145752 91.213623,2.03027344 91.5314941,0.722900391 L91.5314941,0.722900391 L90.3240967,0.722900391 C89.6934814,2.12255859 89.2397461,3.35046387 88.9628906,4.40661621 L88.9628906,4.40661621 L89.0782471,4.57580566 L90.7624512,4.57580566 Z M87.4863281,4.57580566 C87.6811523,3.3145752 87.9375,2.03027344 88.2553711,0.722900391 L88.2553711,0.722900391 L87.0479736,0.722900391 C86.4173584,2.12255859 85.963623,3.35046387 85.6867676,4.40661621 L85.6867676,4.40661621 L85.802124,4.57580566 L87.4863281,4.57580566 Z M97.4069824,11.9663086 L101.675171,1.8380127 L101.675171,0.722900391 L94.446167,0.722900391 L94.446167,1.99951172 L100.244751,1.99951172 L95.9150391,11.9663086 L97.4069824,11.9663086 Z M106.151001,12.1201172 C109.427124,12.1201172 111.065186,9.9206543 111.065186,5.52172852 C111.065186,3.96826172 110.735779,2.75317383 110.076965,1.87646484 C109.418152,0.999755859 108.52478,0.561401367 107.396851,0.561401367 C106.356079,0.561401367 105.526794,0.899780273 104.908997,1.57653809 C104.291199,2.2532959 103.9823,3.17614746 103.9823,4.34509277 C103.9823,5.41149902 104.265564,6.24719238 104.832092,6.85217285 C105.398621,7.45715332 106.179199,7.75964355 107.173828,7.75964355 C108.260742,7.75964355 109.050293,7.32385254 109.54248,6.45227051 L109.54248,6.45227051 L109.634766,6.45227051 C109.583496,8.02111816 109.26947,9.16699219 108.692688,9.88989258 C108.115906,10.612793 107.253296,10.9742432 106.104858,10.9742432 C105.59729,10.9742432 105.171753,10.9101562 104.828247,10.7819824 L104.828247,10.7819824 L104.828247,11.9816895 C105.171753,12.0739746 105.612671,12.1201172 106.151001,12.1201172 Z M107.366089,6.65991211 C106.714966,6.65991211 106.213806,6.45996094 105.86261,6.06005859 C105.511414,5.66015625 105.335815,5.08850098 105.335815,4.34509277 C105.335815,3.50427246 105.517822,2.86083984 105.881836,2.41479492 C106.24585,1.96875 106.755981,1.74572754 107.412231,1.74572754 C108.094116,1.74572754 108.640137,2.03027344 109.050293,2.59936523 C109.460449,3.16845703 109.665527,3.84008789 109.665527,4.61425781 C109.665527,5.14233398 109.445068,5.61529541 109.00415,6.03314209 C108.563232,6.45098877 108.017212,6.65991211 107.366089,6.65991211 Z M115.25647,4.57580566 C115.876831,3.21203613 116.328003,1.98413086 116.609985,0.892089844 L116.609985,0.892089844 L116.502319,0.722900391 L114.818115,0.722900391 C114.633545,1.92773438 114.374634,3.21203613 114.041382,4.57580566 L114.041382,4.57580566 L115.25647,4.57580566 Z M118.532593,4.57580566 C119.152954,3.21203613 119.604126,1.98413086 119.886108,0.892089844 L119.886108,0.892089844 L119.778442,0.722900391 L118.094238,0.722900391 C117.909668,1.92773438 117.650757,3.21203613 117.317505,4.57580566 L117.317505,4.57580566 L118.532593,4.57580566 Z" id="“79”" fill="#99C379"></path>
                <polygon id="&gt;" fill="#ABB2BF" points="122.869995 10.2667236 129.968262 6.79833984 129.968262 6.01391602 122.869995 2.54553223 122.869995 3.77600098 128.360962 6.40612793 122.869995 9.03625488"></polygon>
            </g>
            <g id="&lt;image-width=“16”-he" transform="translate(42.168945, 44.533691)">
                <polygon id="&lt;" fill="#ABB2BF" points="7.0982666 10.2667236 7.0982666 9.03625488 1.59960938 6.40612793 7.0982666 3.77600098 7.0982666 2.54553223 0 6.01391602 0 6.79833984"></polygon>
                <path d="M13.1506348,1.80725098 C13.3710938,1.80725098 13.5620728,1.73419189 13.7235718,1.58807373 C13.8850708,1.44195557 13.9658203,1.22021484 13.9658203,0.922851562 C13.9658203,0.338378906 13.6940918,0.0461425781 13.1506348,0.0461425781 C12.6020508,0.0461425781 12.3277588,0.338378906 12.3277588,0.922851562 C12.3277588,1.51245117 12.6020508,1.80725098 13.1506348,1.80725098 Z M16.5498047,11.9663086 L16.5498047,11.0203857 L13.8427734,10.8665771 L13.8427734,3.5222168 L10.3743896,3.5222168 L10.3743896,4.46813965 L12.4431152,4.62963867 L12.4431152,10.8665771 L9.79760742,11.0203857 L9.79760742,11.9663086 L16.5498047,11.9663086 Z M19.6875,11.9663086 L19.6875,7.5904541 C19.6875,6.3651123 19.7797852,5.54864502 19.9643555,5.14105225 C20.1489258,4.73345947 20.456543,4.52966309 20.887207,4.52966309 C21.5280762,4.52966309 21.8485107,5.19616699 21.8485107,6.5291748 L21.8485107,6.5291748 L21.8485107,11.9663086 L23.0866699,11.9663086 L23.0866699,7.3059082 C23.0866699,6.30615234 23.1879272,5.59350586 23.3904419,5.16796875 C23.5929565,4.74243164 23.9172363,4.52966309 24.3632812,4.52966309 C24.6811523,4.52966309 24.90802,4.67578125 25.0438843,4.96801758 C25.1797485,5.26025391 25.2476807,5.78063965 25.2476807,6.5291748 L25.2476807,6.5291748 L25.2476807,11.9663086 L26.4935303,11.9663086 L26.4935303,6.45227051 C26.4935303,5.34484863 26.3448486,4.55401611 26.0474854,4.07977295 C25.7501221,3.60552979 25.2733154,3.3684082 24.6170654,3.3684082 C23.8839111,3.3684082 23.3225098,3.83496094 22.9328613,4.76806641 L22.9328613,4.76806641 L22.8867188,4.76806641 C22.6303711,3.83496094 22.0843506,3.3684082 21.2486572,3.3684082 C20.5616455,3.3684082 20.0463867,3.79907227 19.7028809,4.66040039 L19.7028809,4.66040039 L19.6259766,4.66040039 L19.418335,3.5222168 L18.4416504,3.5222168 L18.4416504,11.9663086 L19.6875,11.9663086 Z M30.9001465,12.1201172 C31.5563965,12.1201172 32.0921631,12.0239868 32.5074463,11.8317261 C32.9227295,11.6394653 33.3277588,11.2946777 33.7225342,10.7973633 L33.7225342,10.7973633 L33.7840576,10.7973633 L34.0686035,11.9663086 L35.0760498,11.9663086 L35.0760498,6.18310547 C35.0760498,5.19873047 34.8158569,4.48352051 34.2954712,4.03747559 C33.7750854,3.59143066 32.9329834,3.3684082 31.769165,3.3684082 C30.8104248,3.3684082 29.8286133,3.61450195 28.8237305,4.10668945 L28.8237305,4.10668945 L29.3082275,5.16027832 C30.2362061,4.73986816 31.0770264,4.52966309 31.8306885,4.52966309 C33.081665,4.52966309 33.7071533,5.13464355 33.7071533,6.34460449 L33.7071533,6.34460449 L33.7071533,6.87524414 L32.1459961,6.92907715 C29.53125,7.0111084 28.223877,7.90319824 28.223877,9.60534668 C28.223877,10.4000244 28.4609985,11.0178223 28.9352417,11.4587402 C29.4094849,11.8996582 30.0644531,12.1201172 30.9001465,12.1201172 Z M31.2154541,10.989624 C30.1900635,10.989624 29.6773682,10.5333252 29.6773682,9.62072754 C29.6773682,9.0567627 29.8875732,8.63763428 30.3079834,8.36334229 C30.7283936,8.08905029 31.44104,7.93139648 32.4459229,7.89038086 L32.4459229,7.89038086 L33.6917725,7.83654785 L33.6917725,8.59790039 C33.6917725,9.35668945 33.4674683,9.94500732 33.0188599,10.362854 C32.5702515,10.7807007 31.9691162,10.989624 31.2154541,10.989624 Z M40.8438721,15.75 C43.7406006,15.75 45.1889648,14.7835693 45.1889648,12.850708 C45.1889648,12.1175537 44.953125,11.5535889 44.4814453,11.1588135 C44.0097656,10.7640381 43.3278809,10.5666504 42.435791,10.5666504 L42.435791,10.5666504 L40.9976807,10.5666504 C40.1722412,10.5666504 39.7595215,10.3513184 39.7595215,9.9206543 C39.7595215,9.52587891 40.0158691,9.18493652 40.5285645,8.89782715 C40.6875,8.92858887 40.907959,8.94396973 41.1899414,8.94396973 C42.1640625,8.94396973 42.9241333,8.69915771 43.4701538,8.20953369 C44.0161743,7.71990967 44.2891846,7.06237793 44.2891846,6.23693848 C44.2891846,5.58068848 44.1225586,5.03466797 43.7893066,4.59887695 L43.7893066,4.59887695 L45.2966309,4.39123535 L45.2966309,3.5222168 L42.3896484,3.5222168 C42.0615234,3.41967773 41.677002,3.3684082 41.236084,3.3684082 C40.2260742,3.3684082 39.4480591,3.62091064 38.9020386,4.12591553 C38.3560181,4.63092041 38.0830078,5.34997559 38.0830078,6.28308105 C38.0830078,6.80090332 38.2137451,7.2789917 38.4752197,7.71734619 C38.7366943,8.15570068 39.0955811,8.46972656 39.5518799,8.65942383 C38.8699951,9.06958008 38.5290527,9.56176758 38.5290527,10.1359863 C38.5290527,10.6845703 38.7751465,11.0793457 39.267334,11.3203125 C38.0368652,11.6176758 37.4216309,12.3098145 37.4216309,13.3967285 C37.4216309,14.1401367 37.7125854,14.7182007 38.2944946,15.1309204 C38.8764038,15.5436401 39.7261963,15.75 40.8438721,15.75 Z M41.2053223,7.98266602 C40.0415039,7.98266602 39.4595947,7.40075684 39.4595947,6.23693848 C39.4595947,4.99621582 40.036377,4.37585449 41.1899414,4.37585449 C42.3435059,4.37585449 42.9202881,4.98852539 42.9202881,6.21386719 C42.9202881,7.39306641 42.3486328,7.98266602 41.2053223,7.98266602 Z M40.8284912,14.6887207 C39.4390869,14.6887207 38.7443848,14.2426758 38.7443848,13.3505859 C38.7443848,12.3354492 39.3339844,11.8278809 40.5131836,11.8278809 L40.5131836,11.8278809 L41.9589844,11.8278809 C42.7177734,11.8278809 43.2253418,11.9060669 43.4816895,12.062439 C43.7380371,12.218811 43.8662109,12.522583 43.8662109,12.9737549 C43.8662109,14.1170654 42.8536377,14.6887207 40.8284912,14.6887207 Z M51.2567139,12.1201172 C52.2718506,12.1201172 53.2049561,11.9278564 54.0560303,11.543335 L54.0560303,11.543335 L54.0560303,10.3128662 C53.1588135,10.7025146 52.2103271,10.8973389 51.2105713,10.8973389 C49.487915,10.8973389 48.6060791,9.93603516 48.5650635,8.01342773 L48.5650635,8.01342773 L54.5174561,8.01342773 L54.5174561,7.14440918 C54.5174561,6.00109863 54.1931763,5.0859375 53.5446167,4.39892578 C52.8960571,3.71191406 52.0283203,3.3684082 50.9414062,3.3684082 C49.7775879,3.3684082 48.8483276,3.76702881 48.1536255,4.56427002 C47.4589233,5.36151123 47.1115723,6.4420166 47.1115723,7.80578613 C47.1115723,9.14904785 47.4884033,10.2039185 48.2420654,10.9703979 C48.9957275,11.7368774 50.0006104,12.1201172 51.2567139,12.1201172 Z M53.0024414,6.87524414 L48.5958252,6.87524414 C48.729126,5.31152344 49.5007324,4.52966309 50.9106445,4.52966309 C52.3051758,4.52966309 53.0024414,5.31152344 53.0024414,6.87524414 L53.0024414,6.87524414 Z" id="image" fill="#E06C76"></path>
                <path d="M68.1295166,11.9663086 L69.1677246,7.41357422 L69.6676025,4.8449707 L69.7137451,4.8449707 L70.2366943,7.3828125 L71.2441406,11.9663086 L72.7437744,11.9663086 L74.4741211,3.5222168 L73.2590332,3.5222168 L72.4746094,7.69812012 C72.3259277,8.47229004 72.1721191,9.47973633 72.0131836,10.720459 L72.0131836,10.720459 L71.967041,10.720459 C71.8439941,9.88476562 71.6722412,8.96704102 71.4517822,7.96728516 L71.4517822,7.96728516 L70.4750977,3.5222168 L68.9908447,3.5222168 L67.9680176,7.96728516 C67.7783203,8.85424805 67.6040039,9.77197266 67.4450684,10.720459 L67.4450684,10.720459 L67.3989258,10.720459 C67.2810059,9.65917969 67.1348877,8.6517334 66.9605713,7.69812012 L66.9605713,7.69812012 L66.2069092,3.5222168 L64.9610596,3.5222168 L66.6760254,11.9663086 L68.1295166,11.9663086 Z M79.3114014,1.80725098 C79.5318604,1.80725098 79.7228394,1.73419189 79.8843384,1.58807373 C80.0458374,1.44195557 80.1265869,1.22021484 80.1265869,0.922851562 C80.1265869,0.338378906 79.8548584,0.0461425781 79.3114014,0.0461425781 C78.7628174,0.0461425781 78.4885254,0.338378906 78.4885254,0.922851562 C78.4885254,1.51245117 78.7628174,1.80725098 79.3114014,1.80725098 Z M82.7105713,11.9663086 L82.7105713,11.0203857 L80.00354,10.8665771 L80.00354,3.5222168 L76.5351562,3.5222168 L76.5351562,4.46813965 L78.6038818,4.62963867 L78.6038818,10.8665771 L75.958374,11.0203857 L75.958374,11.9663086 L82.7105713,11.9663086 Z M88.2553711,12.1201172 C89.3269043,12.1201172 90.1523438,11.6920166 90.7316895,10.8358154 L90.7316895,10.8358154 L90.7932129,10.8358154 L91.0008545,11.9663086 L92.1313477,11.9663086 L92.1313477,0 L90.7316895,0 L90.7316895,3.35302734 C90.7316895,3.5222168 90.7624512,3.9375 90.8239746,4.59887695 L90.8239746,4.59887695 L90.7316895,4.59887695 C90.1369629,3.77856445 89.3115234,3.3684082 88.2553711,3.3684082 C87.2299805,3.3684082 86.4224854,3.75421143 85.8328857,4.52581787 C85.2432861,5.29742432 84.9484863,6.37536621 84.9484863,7.75964355 C84.9484863,9.13366699 85.2420044,10.2039185 85.8290405,10.9703979 C86.4160767,11.7368774 87.2248535,12.1201172 88.2553711,12.1201172 Z M88.5091553,10.9588623 C87.1043701,10.9588623 86.4019775,9.89758301 86.4019775,7.77502441 C86.4019775,5.6114502 87.0992432,4.52966309 88.4937744,4.52966309 C89.2730713,4.52966309 89.8408813,4.77703857 90.1972046,5.27178955 C90.5535278,5.76654053 90.7316895,6.5958252 90.7316895,7.75964355 L90.7316895,7.75964355 L90.7316895,8.07495117 C90.7111816,9.09008789 90.5304565,9.82452393 90.1895142,10.2782593 C89.8485718,10.7319946 89.2884521,10.9588623 88.5091553,10.9588623 Z M99.2526855,12.1201172 C99.8781738,12.1201172 100.52417,12.0380859 101.190674,11.8740234 L101.190674,11.8740234 L101.190674,10.8127441 C100.437012,10.9204102 99.8217773,10.9742432 99.3449707,10.9742432 C98.3605957,10.9742432 97.8684082,10.4743652 97.8684082,9.47460938 L97.8684082,9.47460938 L97.8684082,4.57580566 L101.236816,4.57580566 L101.236816,3.5222168 L97.8684082,3.5222168 L97.8684082,1.2689209 L97.0609131,1.2689209 L96.46875,3.47607422 L94.4154053,3.85290527 L94.4154053,4.57580566 L96.46875,4.57580566 L96.46875,9.47460938 C96.46875,11.2382812 97.3967285,12.1201172 99.2526855,12.1201172 Z M105.428101,11.9663086 L105.428101,7.5904541 C105.428101,5.54992676 106.215088,4.52966309 107.789062,4.52966309 C109.009277,4.52966309 109.619385,5.19616699 109.619385,6.5291748 L109.619385,6.5291748 L109.619385,11.9663086 L111.019043,11.9663086 L111.019043,6.45227051 C111.019043,4.3963623 110.021851,3.3684082 108.027466,3.3684082 C106.832886,3.3684082 105.971558,3.79907227 105.443481,4.66040039 L105.443481,4.66040039 L105.366577,4.66040039 L105.428101,3.55297852 L105.428101,0 L104.028442,0 L104.028442,11.9663086 L105.428101,11.9663086 Z" id="width" fill="#D19A66"></path>
                <path d="M120.516724,5.4140625 L120.516724,4.26818848 L113.418457,4.26818848 L113.418457,5.4140625 L120.516724,5.4140625 Z M120.516724,8.56713867 L120.516724,7.41357422 L113.418457,7.41357422 L113.418457,8.56713867 L120.516724,8.56713867 Z" id="=" fill="#ABB2BF"></path>
                <path d="M128.568604,4.57580566 C128.763428,3.3145752 129.019775,2.03027344 129.337646,0.722900391 L129.337646,0.722900391 L128.130249,0.722900391 C127.499634,2.12255859 127.045898,3.35046387 126.769043,4.40661621 L126.769043,4.40661621 L126.884399,4.57580566 L128.568604,4.57580566 Z M125.29248,4.57580566 C125.487305,3.3145752 125.743652,2.03027344 126.061523,0.722900391 L126.061523,0.722900391 L124.854126,0.722900391 C124.223511,2.12255859 123.769775,3.35046387 123.49292,4.40661621 L123.49292,4.40661621 L123.608276,4.57580566 L125.29248,4.57580566 Z M136.981934,11.9663086 L136.981934,0.722900391 L135.828369,0.722900391 L132.882935,3.02233887 L133.628906,3.96826172 L134.759399,3.03771973 C135.17981,2.67883301 135.48999,2.38916016 135.689941,2.16870117 C135.648926,3.39404297 135.628418,4.31945801 135.628418,4.94494629 L135.628418,11.9663086 L136.981934,11.9663086 Z M145.456787,12.1201172 C146.497559,12.1201172 147.326843,11.78302 147.944641,11.1088257 C148.562439,10.4346313 148.871338,9.51306152 148.871338,8.34411621 C148.871338,7.28796387 148.588074,6.45483398 148.021545,5.84472656 C147.455017,5.23461914 146.671875,4.92956543 145.672119,4.92956543 C144.585205,4.92956543 143.798218,5.36535645 143.311157,6.23693848 L143.311157,6.23693848 L143.218872,6.23693848 C143.270142,4.66809082 143.584167,3.5222168 144.16095,2.79931641 C144.737732,2.07641602 145.600342,1.71496582 146.748779,1.71496582 C147.23584,1.71496582 147.661377,1.77648926 148.025391,1.89953613 L148.025391,1.89953613 L148.025391,0.707519531 C147.676758,0.610107422 147.23584,0.561401367 146.702637,0.561401367 C143.426514,0.561401367 141.788452,2.76086426 141.788452,7.15979004 C141.788452,8.7388916 142.120422,9.96038818 142.784363,10.8242798 C143.448303,11.6881714 144.339111,12.1201172 145.456787,12.1201172 Z M145.441406,10.9434814 C144.769775,10.9434814 144.226318,10.6602173 143.811035,10.093689 C143.395752,9.52716064 143.18811,8.85424805 143.18811,8.07495117 C143.18811,7.54174805 143.408569,7.06750488 143.849487,6.65222168 C144.290405,6.23693848 144.836426,6.02929688 145.487549,6.02929688 C146.138672,6.02929688 146.639832,6.22924805 146.991028,6.62915039 C147.342224,7.02905273 147.517822,7.60070801 147.517822,8.34411621 C147.517822,9.17468262 147.334534,9.81555176 146.967957,10.2667236 C146.601379,10.7178955 146.092529,10.9434814 145.441406,10.9434814 Z M153.062622,4.57580566 C153.682983,3.21203613 154.134155,1.98413086 154.416138,0.892089844 L154.416138,0.892089844 L154.308472,0.722900391 L152.624268,0.722900391 C152.439697,1.92773438 152.180786,3.21203613 151.847534,4.57580566 L151.847534,4.57580566 L153.062622,4.57580566 Z M156.338745,4.57580566 C156.959106,3.21203613 157.410278,1.98413086 157.692261,0.892089844 L157.692261,0.892089844 L157.584595,0.722900391 L155.900391,0.722900391 C155.71582,1.92773438 155.456909,3.21203613 155.123657,4.57580566 L155.123657,4.57580566 L156.338745,4.57580566 Z" id="“16”" fill="#99C379"></path>
                <path d="M171.588867,11.9663086 L171.588867,7.5904541 C171.588867,5.54992676 172.375854,4.52966309 173.949829,4.52966309 C175.170044,4.52966309 175.780151,5.19616699 175.780151,6.5291748 L175.780151,6.5291748 L175.780151,11.9663086 L177.17981,11.9663086 L177.17981,6.45227051 C177.17981,4.3963623 176.182617,3.3684082 174.188232,3.3684082 C172.993652,3.3684082 172.132324,3.79907227 171.604248,4.66040039 L171.604248,4.66040039 L171.527344,4.66040039 L171.588867,3.55297852 L171.588867,0 L170.189209,0 L170.189209,11.9663086 L171.588867,11.9663086 Z M183.578247,12.1201172 C184.593384,12.1201172 185.526489,11.9278564 186.377563,11.543335 L186.377563,11.543335 L186.377563,10.3128662 C185.480347,10.7025146 184.53186,10.8973389 183.532104,10.8973389 C181.809448,10.8973389 180.927612,9.93603516 180.886597,8.01342773 L180.886597,8.01342773 L186.838989,8.01342773 L186.838989,7.14440918 C186.838989,6.00109863 186.514709,5.0859375 185.86615,4.39892578 C185.21759,3.71191406 184.349854,3.3684082 183.262939,3.3684082 C182.099121,3.3684082 181.169861,3.76702881 180.475159,4.56427002 C179.780457,5.36151123 179.433105,6.4420166 179.433105,7.80578613 C179.433105,9.14904785 179.809937,10.2039185 180.563599,10.9703979 C181.317261,11.7368774 182.322144,12.1201172 183.578247,12.1201172 Z M185.323975,6.87524414 L180.917358,6.87524414 C181.050659,5.31152344 181.822266,4.52966309 183.232178,4.52966309 C184.626709,4.52966309 185.323975,5.31152344 185.323975,6.87524414 L185.323975,6.87524414 Z M192.729858,1.80725098 C192.950317,1.80725098 193.141296,1.73419189 193.302795,1.58807373 C193.464294,1.44195557 193.545044,1.22021484 193.545044,0.922851562 C193.545044,0.338378906 193.273315,0.0461425781 192.729858,0.0461425781 C192.181274,0.0461425781 191.906982,0.338378906 191.906982,0.922851562 C191.906982,1.51245117 192.181274,1.80725098 192.729858,1.80725098 Z M196.129028,11.9663086 L196.129028,11.0203857 L193.421997,10.8665771 L193.421997,3.5222168 L189.953613,3.5222168 L189.953613,4.46813965 L192.022339,4.62963867 L192.022339,10.8665771 L189.376831,11.0203857 L189.376831,11.9663086 L196.129028,11.9663086 Z M201.52002,15.75 C204.416748,15.75 205.865112,14.7835693 205.865112,12.850708 C205.865112,12.1175537 205.629272,11.5535889 205.157593,11.1588135 C204.685913,10.7640381 204.004028,10.5666504 203.111938,10.5666504 L203.111938,10.5666504 L201.673828,10.5666504 C200.848389,10.5666504 200.435669,10.3513184 200.435669,9.9206543 C200.435669,9.52587891 200.692017,9.18493652 201.204712,8.89782715 C201.363647,8.92858887 201.584106,8.94396973 201.866089,8.94396973 C202.84021,8.94396973 203.600281,8.69915771 204.146301,8.20953369 C204.692322,7.71990967 204.965332,7.06237793 204.965332,6.23693848 C204.965332,5.58068848 204.798706,5.03466797 204.465454,4.59887695 L204.465454,4.59887695 L205.972778,4.39123535 L205.972778,3.5222168 L203.065796,3.5222168 C202.737671,3.41967773 202.353149,3.3684082 201.912231,3.3684082 C200.902222,3.3684082 200.124207,3.62091064 199.578186,4.12591553 C199.032166,4.63092041 198.759155,5.34997559 198.759155,6.28308105 C198.759155,6.80090332 198.889893,7.2789917 199.151367,7.71734619 C199.412842,8.15570068 199.771729,8.46972656 200.228027,8.65942383 C199.546143,9.06958008 199.2052,9.56176758 199.2052,10.1359863 C199.2052,10.6845703 199.451294,11.0793457 199.943481,11.3203125 C198.713013,11.6176758 198.097778,12.3098145 198.097778,13.3967285 C198.097778,14.1401367 198.388733,14.7182007 198.970642,15.1309204 C199.552551,15.5436401 200.402344,15.75 201.52002,15.75 Z M201.88147,7.98266602 C200.717651,7.98266602 200.135742,7.40075684 200.135742,6.23693848 C200.135742,4.99621582 200.712524,4.37585449 201.866089,4.37585449 C203.019653,4.37585449 203.596436,4.98852539 203.596436,6.21386719 C203.596436,7.39306641 203.02478,7.98266602 201.88147,7.98266602 Z M201.504639,14.6887207 C200.115234,14.6887207 199.420532,14.2426758 199.420532,13.3505859 C199.420532,12.3354492 200.010132,11.8278809 201.189331,11.8278809 L201.189331,11.8278809 L202.635132,11.8278809 C203.393921,11.8278809 203.901489,11.9060669 204.157837,12.062439 C204.414185,12.218811 204.542358,12.522583 204.542358,12.9737549 C204.542358,14.1170654 203.529785,14.6887207 201.504639,14.6887207 Z M209.39502,11.9663086 L209.39502,7.5904541 C209.39502,5.54992676 210.182007,4.52966309 211.755981,4.52966309 C212.976196,4.52966309 213.586304,5.19616699 213.586304,6.5291748 L213.586304,6.5291748 L213.586304,11.9663086 L214.985962,11.9663086 L214.985962,6.45227051 C214.985962,4.3963623 213.98877,3.3684082 211.994385,3.3684082 C210.799805,3.3684082 209.938477,3.79907227 209.4104,4.66040039 L209.4104,4.66040039 L209.333496,4.66040039 L209.39502,3.55297852 L209.39502,0 L207.995361,0 L207.995361,11.9663086 L209.39502,11.9663086 Z M222.122681,12.1201172 C222.748169,12.1201172 223.394165,12.0380859 224.060669,11.8740234 L224.060669,11.8740234 L224.060669,10.8127441 C223.307007,10.9204102 222.691772,10.9742432 222.214966,10.9742432 C221.230591,10.9742432 220.738403,10.4743652 220.738403,9.47460938 L220.738403,9.47460938 L220.738403,4.57580566 L224.106812,4.57580566 L224.106812,3.5222168 L220.738403,3.5222168 L220.738403,1.2689209 L219.930908,1.2689209 L219.338745,3.47607422 L217.2854,3.85290527 L217.2854,4.57580566 L219.338745,4.57580566 L219.338745,9.47460938 C219.338745,11.2382812 220.266724,12.1201172 222.122681,12.1201172 Z" id="height" fill="#D19A66"></path>
                <path d="M233.935181,5.4140625 L233.935181,4.26818848 L226.836914,4.26818848 L226.836914,5.4140625 L233.935181,5.4140625 Z M233.935181,8.56713867 L233.935181,7.41357422 L226.836914,7.41357422 L226.836914,8.56713867 L233.935181,8.56713867 Z" id="=" fill="#ABB2BF"></path>
                <path d="M241.987061,4.57580566 C242.181885,3.3145752 242.438232,2.03027344 242.756104,0.722900391 L242.756104,0.722900391 L241.548706,0.722900391 C240.918091,2.12255859 240.464355,3.35046387 240.1875,4.40661621 L240.1875,4.40661621 L240.302856,4.57580566 L241.987061,4.57580566 Z M238.710938,4.57580566 C238.905762,3.3145752 239.162109,2.03027344 239.47998,0.722900391 L239.47998,0.722900391 L238.272583,0.722900391 C237.641968,2.12255859 237.188232,3.35046387 236.911377,4.40661621 L236.911377,4.40661621 L237.026733,4.57580566 L238.710938,4.57580566 Z M250.400391,11.9663086 L250.400391,0.722900391 L249.246826,0.722900391 L246.301392,3.02233887 L247.047363,3.96826172 L248.177856,3.03771973 C248.598267,2.67883301 248.908447,2.38916016 249.108398,2.16870117 C249.067383,3.39404297 249.046875,4.31945801 249.046875,4.94494629 L249.046875,4.94494629 L249.046875,11.9663086 L250.400391,11.9663086 Z M258.875244,12.1201172 C259.916016,12.1201172 260.7453,11.78302 261.363098,11.1088257 C261.980896,10.4346313 262.289795,9.51306152 262.289795,8.34411621 C262.289795,7.28796387 262.006531,6.45483398 261.440002,5.84472656 C260.873474,5.23461914 260.090332,4.92956543 259.090576,4.92956543 C258.003662,4.92956543 257.216675,5.36535645 256.729614,6.23693848 L256.729614,6.23693848 L256.637329,6.23693848 C256.688599,4.66809082 257.002625,3.5222168 257.579407,2.79931641 C258.156189,2.07641602 259.018799,1.71496582 260.167236,1.71496582 C260.654297,1.71496582 261.079834,1.77648926 261.443848,1.89953613 L261.443848,1.89953613 L261.443848,0.707519531 C261.095215,0.610107422 260.654297,0.561401367 260.121094,0.561401367 C256.844971,0.561401367 255.206909,2.76086426 255.206909,7.15979004 C255.206909,8.7388916 255.538879,9.96038818 256.20282,10.8242798 C256.86676,11.6881714 257.757568,12.1201172 258.875244,12.1201172 Z M258.859863,10.9434814 C258.188232,10.9434814 257.644775,10.6602173 257.229492,10.093689 C256.814209,9.52716064 256.606567,8.85424805 256.606567,8.07495117 C256.606567,7.54174805 256.827026,7.06750488 257.267944,6.65222168 C257.708862,6.23693848 258.254883,6.02929688 258.906006,6.02929688 C259.557129,6.02929688 260.058289,6.22924805 260.409485,6.62915039 C260.760681,7.02905273 260.936279,7.60070801 260.936279,8.34411621 C260.936279,9.17468262 260.752991,9.81555176 260.386414,10.2667236 C260.019836,10.7178955 259.510986,10.9434814 258.859863,10.9434814 Z M266.481079,4.57580566 C267.10144,3.21203613 267.552612,1.98413086 267.834595,0.892089844 L267.834595,0.892089844 L267.726929,0.722900391 L266.042725,0.722900391 C265.858154,1.92773438 265.599243,3.21203613 265.265991,4.57580566 L265.265991,4.57580566 L266.481079,4.57580566 Z M269.757202,4.57580566 C270.377563,3.21203613 270.828735,1.98413086 271.110718,0.892089844 L271.110718,0.892089844 L271.003052,0.722900391 L269.318848,0.722900391 C269.134277,1.92773438 268.875366,3.21203613 268.542114,4.57580566 L268.542114,4.57580566 L269.757202,4.57580566 Z" id="“16”" fill="#99C379"></path>
                <polygon id="&gt;" fill="#ABB2BF" points="274.094604 10.2667236 281.192871 6.79833984 281.192871 6.01391602 274.094604 2.54553223 274.094604 3.77600098 279.585571 6.40612793 274.094604 9.03625488"></polygon>
            </g>
            <g id="&lt;animation&gt;" transform="translate(42.168945, 66.329834)">
                <polygon id="&lt;" fill="#ABB2BF" points="7.0982666 10.2205811 7.0982666 8.9901123 1.59960938 6.35998535 7.0982666 3.7298584 7.0982666 2.49938965 0 5.96777344 0 6.75219727"></polygon>
                <path d="M11.9970703,12.0739746 C12.6533203,12.0739746 13.1890869,11.9778442 13.6043701,11.7855835 C14.0196533,11.5933228 14.4246826,11.2485352 14.819458,10.7512207 L14.819458,10.7512207 L14.8809814,10.7512207 L15.1655273,11.920166 L16.1729736,11.920166 L16.1729736,6.13696289 C16.1729736,5.15258789 15.9127808,4.43737793 15.392395,3.99133301 C14.8720093,3.54528809 14.0299072,3.32226562 12.8660889,3.32226562 C11.9073486,3.32226562 10.9255371,3.56835938 9.9206543,4.06054688 L9.9206543,4.06054688 L10.4051514,5.11413574 C11.3331299,4.69372559 12.1739502,4.48352051 12.9276123,4.48352051 C14.1785889,4.48352051 14.8040771,5.08850098 14.8040771,6.29846191 L14.8040771,6.29846191 L14.8040771,6.82910156 L13.2429199,6.88293457 C10.6281738,6.96496582 9.32080078,7.85705566 9.32080078,9.5592041 C9.32080078,10.3538818 9.55792236,10.9716797 10.0321655,11.4125977 C10.5064087,11.8535156 11.161377,12.0739746 11.9970703,12.0739746 Z M12.3123779,10.9434814 C11.2869873,10.9434814 10.774292,10.4871826 10.774292,9.57458496 C10.774292,9.01062012 10.9844971,8.5914917 11.4049072,8.31719971 C11.8253174,8.04290771 12.5379639,7.88525391 13.5428467,7.84423828 L13.5428467,7.84423828 L14.7886963,7.79040527 L14.7886963,8.55175781 C14.7886963,9.31054688 14.5643921,9.89886475 14.1157837,10.3167114 C13.6671753,10.7345581 13.06604,10.9434814 12.3123779,10.9434814 Z M20.3642578,11.920166 L20.3642578,7.54431152 C20.3642578,5.50378418 21.1512451,4.48352051 22.7252197,4.48352051 C23.9454346,4.48352051 24.555542,5.15002441 24.555542,6.48303223 L24.555542,6.48303223 L24.555542,11.920166 L25.9552002,11.920166 L25.9552002,6.40612793 C25.9552002,4.35021973 24.9580078,3.32226562 22.963623,3.32226562 C21.769043,3.32226562 20.9077148,3.75292969 20.3796387,4.61425781 L20.3796387,4.61425781 L20.3027344,4.61425781 L20.0950928,3.47607422 L18.9645996,3.47607422 L18.9645996,11.920166 L20.3642578,11.920166 Z M32.0537109,1.7611084 C32.2741699,1.7611084 32.4651489,1.68804932 32.6266479,1.54193115 C32.788147,1.39581299 32.8688965,1.17407227 32.8688965,0.876708984 C32.8688965,0.292236328 32.597168,0 32.0537109,0 C31.505127,0 31.230835,0.292236328 31.230835,0.876708984 C31.230835,1.46630859 31.505127,1.7611084 32.0537109,1.7611084 Z M35.4528809,11.920166 L35.4528809,10.9742432 L32.7458496,10.8204346 L32.7458496,3.47607422 L29.2774658,3.47607422 L29.2774658,4.42199707 L31.3461914,4.58349609 L31.3461914,10.8204346 L28.7006836,10.9742432 L28.7006836,11.920166 L35.4528809,11.920166 Z M38.5905762,11.920166 L38.5905762,7.54431152 C38.5905762,6.31896973 38.6828613,5.50250244 38.8674316,5.09490967 C39.052002,4.68731689 39.3596191,4.48352051 39.7902832,4.48352051 C40.4311523,4.48352051 40.7515869,5.15002441 40.7515869,6.48303223 L40.7515869,6.48303223 L40.7515869,11.920166 L41.9897461,11.920166 L41.9897461,7.25976562 C41.9897461,6.26000977 42.0910034,5.54736328 42.2935181,5.12182617 C42.4960327,4.69628906 42.8203125,4.48352051 43.2663574,4.48352051 C43.5842285,4.48352051 43.8110962,4.62963867 43.9469604,4.921875 C44.0828247,5.21411133 44.1507568,5.73449707 44.1507568,6.48303223 L44.1507568,6.48303223 L44.1507568,11.920166 L45.3966064,11.920166 L45.3966064,6.40612793 C45.3966064,5.29870605 45.2479248,4.50787354 44.9505615,4.03363037 C44.6531982,3.55938721 44.1763916,3.32226562 43.5201416,3.32226562 C42.7869873,3.32226562 42.2255859,3.78881836 41.8359375,4.72192383 L41.8359375,4.72192383 L41.7897949,4.72192383 C41.5334473,3.78881836 40.9874268,3.32226562 40.1517334,3.32226562 C39.4647217,3.32226562 38.9494629,3.75292969 38.605957,4.61425781 L38.605957,4.61425781 L38.5290527,4.61425781 L38.3214111,3.47607422 L37.3447266,3.47607422 L37.3447266,11.920166 L38.5905762,11.920166 Z M49.8032227,12.0739746 C50.4594727,12.0739746 50.9952393,11.9778442 51.4105225,11.7855835 C51.8258057,11.5933228 52.230835,11.2485352 52.6256104,10.7512207 L52.6256104,10.7512207 L52.6871338,10.7512207 L52.9716797,11.920166 L53.979126,11.920166 L53.979126,6.13696289 C53.979126,5.15258789 53.7189331,4.43737793 53.1985474,3.99133301 C52.6781616,3.54528809 51.8360596,3.32226562 50.6722412,3.32226562 C49.713501,3.32226562 48.7316895,3.56835938 47.7268066,4.06054688 L47.7268066,4.06054688 L48.2113037,5.11413574 C49.1392822,4.69372559 49.9801025,4.48352051 50.7337646,4.48352051 C51.9847412,4.48352051 52.6102295,5.08850098 52.6102295,6.29846191 L52.6102295,6.29846191 L52.6102295,6.82910156 L51.0490723,6.88293457 C48.4343262,6.96496582 47.1269531,7.85705566 47.1269531,9.5592041 C47.1269531,10.3538818 47.3640747,10.9716797 47.8383179,11.4125977 C48.312561,11.8535156 48.9675293,12.0739746 49.8032227,12.0739746 Z M50.1185303,10.9434814 C49.0931396,10.9434814 48.5804443,10.4871826 48.5804443,9.57458496 C48.5804443,9.01062012 48.7906494,8.5914917 49.2110596,8.31719971 C49.6314697,8.04290771 50.3441162,7.88525391 51.348999,7.84423828 L51.348999,7.84423828 L52.5948486,7.79040527 L52.5948486,8.55175781 C52.5948486,9.31054688 52.3705444,9.89886475 51.921936,10.3167114 C51.4733276,10.7345581 50.8721924,10.9434814 50.1185303,10.9434814 Z M61.4465332,12.0739746 C62.0720215,12.0739746 62.7180176,11.9919434 63.3845215,11.8278809 L63.3845215,11.8278809 L63.3845215,10.7666016 C62.6308594,10.8742676 62.015625,10.9281006 61.5388184,10.9281006 C60.5544434,10.9281006 60.0622559,10.4282227 60.0622559,9.4284668 L60.0622559,9.4284668 L60.0622559,4.52966309 L63.4306641,4.52966309 L63.4306641,3.47607422 L60.0622559,3.47607422 L60.0622559,1.22277832 L59.2547607,1.22277832 L58.6625977,3.42993164 L56.6092529,3.8067627 L56.6092529,4.52966309 L58.6625977,4.52966309 L58.6625977,9.4284668 C58.6625977,11.1921387 59.5905762,12.0739746 61.4465332,12.0739746 Z M69.8598633,1.7611084 C70.0803223,1.7611084 70.2713013,1.68804932 70.4328003,1.54193115 C70.5942993,1.39581299 70.6750488,1.17407227 70.6750488,0.876708984 C70.6750488,0.292236328 70.4033203,0 69.8598633,0 C69.3112793,0 69.0369873,0.292236328 69.0369873,0.876708984 C69.0369873,1.46630859 69.3112793,1.7611084 69.8598633,1.7611084 Z M73.2590332,11.920166 L73.2590332,10.9742432 L70.552002,10.8204346 L70.552002,3.47607422 L67.0836182,3.47607422 L67.0836182,4.42199707 L69.1523438,4.58349609 L69.1523438,10.8204346 L66.5068359,10.9742432 L66.5068359,11.920166 L73.2590332,11.920166 Z M79.1345215,12.0739746 C80.3034668,12.0739746 81.2391357,11.6817627 81.9415283,10.8973389 C82.6439209,10.112915 82.9951172,9.04138184 82.9951172,7.68273926 C82.9951172,6.3651123 82.6387939,5.30895996 81.9261475,4.51428223 C81.213501,3.71960449 80.2983398,3.32226562 79.1806641,3.32226562 C78.0014648,3.32226562 77.0645142,3.71191406 76.369812,4.49121094 C75.6751099,5.27050781 75.3277588,6.33435059 75.3277588,7.68273926 C75.3277588,9.01574707 75.6853638,10.0808716 76.4005737,10.8781128 C77.1157837,11.675354 78.0270996,12.0739746 79.1345215,12.0739746 Z M79.1652832,10.9127197 C77.5708008,10.9127197 76.7735596,9.83605957 76.7735596,7.68273926 C76.7735596,5.54992676 77.5656738,4.48352051 79.1499023,4.48352051 C80.7495117,4.48352051 81.5493164,5.54992676 81.5493164,7.68273926 C81.5493164,9.83605957 80.7546387,10.9127197 79.1652832,10.9127197 Z M86.5250244,11.920166 L86.5250244,7.54431152 C86.5250244,5.50378418 87.3120117,4.48352051 88.8859863,4.48352051 C90.1062012,4.48352051 90.7163086,5.15002441 90.7163086,6.48303223 L90.7163086,6.48303223 L90.7163086,11.920166 L92.1159668,11.920166 L92.1159668,6.40612793 C92.1159668,4.35021973 91.1187744,3.32226562 89.1243896,3.32226562 C87.9298096,3.32226562 87.0684814,3.75292969 86.5404053,4.61425781 L86.5404053,4.61425781 L86.463501,4.61425781 L86.2558594,3.47607422 L85.1253662,3.47607422 L85.1253662,11.920166 L86.5250244,11.920166 Z" id="animation" fill="#E06C76"></path>
                <polygon id="&gt;" fill="#ABB2BF" points="94.5153809 10.2205811 101.613647 6.75219727 101.613647 5.96777344 94.5153809 2.49938965 94.5153809 3.7298584 100.006348 6.35998535 94.5153809 8.9901123"></polygon>
            </g>
        </g>
    </g>
</svg>