<?xml version="1.0" encoding="UTF-8"?>
<svg width="426px" height="112px" viewBox="0 0 426 112" version="1.1" xmlns="http://www.w3.org/2000/svg" xmlns:xlink="http://www.w3.org/1999/xlink">
    <title>demo-load-external</title>
    <defs>
        <linearGradient x1="50%" y1="0%" x2="50%" y2="100%" id="linearGradient-1">
            <stop stop-color="#2E425A" offset="0%"></stop>
            <stop stop-color="#2E4256" offset="100%"></stop>
        </linearGradient>
        <rect id="path-2" x="0" y="0" width="1440" height="22"></rect>
        <filter x="-1.1%" y="-63.6%" width="102.2%" height="245.5%" filterUnits="objectBoundingBox" id="filter-3">
            <feOffset dx="0" dy="1" in="SourceAlpha" result="shadowOffsetOuter1"></feOffset>
            <feColorMatrix values="0 0 0 0 0.0129942602   0 0 0 0 0.0128230132   0 0 0 0 0.0128230132  0 0 0 1 0" type="matrix" in="shadowOffsetOuter1" result="shadowMatrixOuter1"></feColorMatrix>
            <feOffset dx="0" dy="2" in="SourceAlpha" result="shadowOffsetOuter2"></feOffset>
            <feGaussianBlur stdDeviation="5" in="shadowOffsetOuter2" result="shadowBlurOuter2"></feGaussianBlur>
            <feColorMatrix values="0 0 0 0 0   0 0 0 0 0   0 0 0 0 0  0 0 0 0.1 0" type="matrix" in="shadowBlurOuter2" result="shadowMatrixOuter2"></feColorMatrix>
            <feMerge>
                <feMergeNode in="shadowMatrixOuter1"></feMergeNode>
                <feMergeNode in="shadowMatrixOuter2"></feMergeNode>
            </feMerge>
        </filter>
        <path d="M5.00097066,0 C2.23901083,0 0,2.22884957 0,4.99322906 L0,95.0067709 C0,97.7644552 2.23260645,100 5.00097066,100 L534.999029,100 C537.760989,100 540,97.7711504 540,95.0067709 L540,4.99322906 C540,2.2355448 537.767394,0 534.999029,0 L5.00097066,0 Z" id="path-4"></path>
        <filter x="-10.7%" y="-33.0%" width="121.5%" height="216.0%" filterUnits="objectBoundingBox" id="filter-5">
            <feMorphology radius="0.5" operator="dilate" in="SourceAlpha" result="shadowSpreadOuter1"></feMorphology>
            <feOffset dx="0" dy="25" in="shadowSpreadOuter1" result="shadowOffsetOuter1"></feOffset>
            <feGaussianBlur stdDeviation="15" in="shadowOffsetOuter1" result="shadowBlurOuter1"></feGaussianBlur>
            <feComposite in="shadowBlurOuter1" in2="SourceAlpha" operator="out" result="shadowBlurOuter1"></feComposite>
            <feColorMatrix values="0 0 0 0 0   0 0 0 0 0   0 0 0 0 0  0 0 0 0.35 0" type="matrix" in="shadowBlurOuter1" result="shadowMatrixOuter1"></feColorMatrix>
            <feMorphology radius="0.5" operator="dilate" in="SourceAlpha" result="shadowSpreadOuter2"></feMorphology>
            <feOffset dx="0" dy="2" in="shadowSpreadOuter2" result="shadowOffsetOuter2"></feOffset>
            <feGaussianBlur stdDeviation="2" in="shadowOffsetOuter2" result="shadowBlurOuter2"></feGaussianBlur>
            <feComposite in="shadowBlurOuter2" in2="SourceAlpha" operator="out" result="shadowBlurOuter2"></feComposite>
            <feColorMatrix values="0 0 0 0 0   0 0 0 0 0   0 0 0 0 0  0 0 0 0.5 0" type="matrix" in="shadowBlurOuter2" result="shadowMatrixOuter2"></feColorMatrix>
            <feMerge>
                <feMergeNode in="shadowMatrixOuter1"></feMergeNode>
                <feMergeNode in="shadowMatrixOuter2"></feMergeNode>
            </feMerge>
        </filter>
        <filter x="-5.7%" y="-6.0%" width="111.5%" height="162.0%" filterUnits="objectBoundingBox" id="filter-6">
            <feGaussianBlur stdDeviation="0.25" in="SourceAlpha" result="shadowBlurInner1"></feGaussianBlur>
            <feOffset dx="0" dy="0.5" in="shadowBlurInner1" result="shadowOffsetInner1"></feOffset>
            <feComposite in="shadowOffsetInner1" in2="SourceAlpha" operator="arithmetic" k2="-1" k3="1" result="shadowInnerInner1"></feComposite>
            <feColorMatrix values="0 0 0 0 1   0 0 0 0 1   0 0 0 0 1  0 0 0 0.5 0" type="matrix" in="shadowInnerInner1"></feColorMatrix>
        </filter>
        <linearGradient x1="50%" y1="0%" x2="50%" y2="100%" id="linearGradient-7">
            <stop stop-color="#504F4D" offset="0%"></stop>
            <stop stop-color="#42413F" offset="100%"></stop>
        </linearGradient>
        <path d="M4.50613629,0 C2.01746594,0 0,2.01067476 0,4.50511602 L0,22 L540,22 L540,4.00955791 C540,1.79514022 538.202423,0 536.001918,0 L4.50613629,0 Z" id="path-8"></path>
        <filter x="-0.1%" y="-2.3%" width="100.2%" height="104.5%" filterUnits="objectBoundingBox" id="filter-9">
            <feOffset dx="0" dy="-0.5" in="SourceAlpha" result="shadowOffsetInner1"></feOffset>
            <feComposite in="shadowOffsetInner1" in2="SourceAlpha" operator="arithmetic" k2="-1" k3="1" result="shadowInnerInner1"></feComposite>
            <feColorMatrix values="0 0 0 0 0   0 0 0 0 0   0 0 0 0 0  0 0 0 1 0" type="matrix" in="shadowInnerInner1" result="shadowMatrixInner1"></feColorMatrix>
            <feGaussianBlur stdDeviation="0.25" in="SourceAlpha" result="shadowBlurInner2"></feGaussianBlur>
            <feOffset dx="0" dy="0.5" in="shadowBlurInner2" result="shadowOffsetInner2"></feOffset>
            <feComposite in="shadowOffsetInner2" in2="SourceAlpha" operator="arithmetic" k2="-1" k3="1" result="shadowInnerInner2"></feComposite>
            <feColorMatrix values="0 0 0 0 1   0 0 0 0 1   0 0 0 0 1  0 0 0 0.5 0" type="matrix" in="shadowInnerInner2" result="shadowMatrixInner2"></feColorMatrix>
            <feMerge>
                <feMergeNode in="shadowMatrixInner1"></feMergeNode>
                <feMergeNode in="shadowMatrixInner2"></feMergeNode>
            </feMerge>
        </filter>
        <path d="M0,0 L220,0 L220,81 C220,83.7614237 217.761424,86 215,86 L5,86 C2.23857625,86 3.38176876e-16,83.7614237 0,81 L0,0 L0,0 Z" id="path-10"></path>
        <filter x="-8.2%" y="-15.2%" width="116.5%" height="142.1%" filterUnits="objectBoundingBox" id="filter-11">
            <feMorphology radius="0.6" operator="dilate" in="SourceAlpha" result="shadowSpreadOuter1"></feMorphology>
            <feOffset dx="0" dy="5" in="shadowSpreadOuter1" result="shadowOffsetOuter1"></feOffset>
            <feGaussianBlur stdDeviation="5" in="shadowOffsetOuter1" result="shadowBlurOuter1"></feGaussianBlur>
            <feComposite in="shadowBlurOuter1" in2="SourceAlpha" operator="out" result="shadowBlurOuter1"></feComposite>
            <feColorMatrix values="0 0 0 0 0   0 0 0 0 0   0 0 0 0 0  0 0 0 0.299488741 0" type="matrix" in="shadowBlurOuter1"></feColorMatrix>
        </filter>
    </defs>
    <g id="demo-load-external" stroke="none" stroke-width="1" fill="none" fill-rule="evenodd">
        <g id="Menubar-/-Menubar-(Light)">
            <g id="Menu-Bar">
                <g id="Menubar-Background">
                    <use fill="black" fill-opacity="1" filter="url(#filter-3)" xlink:href="#path-2"></use>
                    <use fill="url(#linearGradient-1)" fill-rule="evenodd" xlink:href="#path-2"></use>
                </g>
                <text id="Development" opacity="0.800000012" style="mix-blend-mode: hard-light;" font-family="SFProText-Regular, SF Pro Text, -apple-system" font-size="14" font-weight="normal" letter-spacing="-0.150000006" fill="#FFFFFF">
                    <tspan x="386" y="16">Development</tspan>
                </text>
                <text id="Window" opacity="0.800000012" style="mix-blend-mode: hard-light;" font-family="SFProText-Regular, SF Pro Text, -apple-system" font-size="14" font-weight="normal" letter-spacing="-0.150000006" fill="#FFFFFF">
                    <tspan x="326" y="16">Debug</tspan>
                </text>
                <text id="Go" opacity="0.800000012" style="mix-blend-mode: hard-light;" font-family="SFProText-Regular, SF Pro Text, -apple-system" font-size="14" font-weight="normal" letter-spacing="-0.150000006" fill="#FFFFFF">
                    <tspan x="257" y="16">Camera</tspan>
                </text>
                <text id="View" opacity="0.800000012" style="mix-blend-mode: hard-light;" font-family="SFProText-Regular, SF Pro Text, -apple-system" font-size="14" font-weight="normal" letter-spacing="-0.150000006" fill="#FFFFFF">
                    <tspan x="209" y="16">Map</tspan>
                </text>
                <text id="Edit" opacity="0.800000012" style="mix-blend-mode: hard-light;" font-family="SFProText-Regular, SF Pro Text, -apple-system" font-size="14" font-weight="normal" letter-spacing="-0.150000006" fill="#FFFFFF">
                    <tspan x="168" y="16">File</tspan>
                </text>
                <text id="AppName" opacity="0.800000012" style="mix-blend-mode: hard-light;" font-family="SFProText-Bold, SF Pro Text, -apple-system" font-size="14" font-weight="bold" letter-spacing="-0.150000006" fill="#FFFFFF">
                    <tspan x="55" y="16">SKTiled Demo</tspan>
                </text>
                <path d="M33.7275392,14.4688577 C33.4941375,15.0278532 33.217866,15.5424055 32.8977722,16.0154776 C32.4614539,16.6603964 32.1042064,17.1068027 31.8288876,17.3546964 C31.4020959,17.7615977 30.944819,17.9699865 30.4551517,17.981838 C30.1036201,17.981838 29.6796864,17.8781374 29.1862084,17.6677734 C28.6911109,17.458397 28.2361205,17.3546964 27.8200938,17.3546964 C27.3837755,17.3546964 26.9158288,17.458397 26.4153012,17.6677734 C25.9140114,17.8781374 25.5101788,17.9877637 25.2014217,17.9986276 C24.7318555,18.0193677 24.2638136,17.8050532 23.796629,17.3546964 C23.4984464,17.0850749 23.12548,16.6228667 22.6786824,15.9680717 C22.1993038,15.2688335 21.8051883,14.4579938 21.4964312,13.5335773 C21.1657629,12.535089 21,11.5682046 21,10.6321342 C21,9.55987028 21.2234941,8.63505872 21.6711491,7.8600698 C22.0229664,7.2375701 22.4910084,6.74652321 23.0767991,6.38604028 C23.6625898,6.02555735 24.2955372,5.84185919 24.9771655,5.83010646 C25.3501319,5.83010646 25.8392276,5.94970779 26.4470248,6.18476241 C27.0531071,6.42060713 27.4422688,6.54020846 27.6128902,6.54020846 C27.7404514,6.54020846 28.1727686,6.40036083 28.90565,6.12155444 C29.5987102,5.86299436 30.1836436,5.75593587 30.6628316,5.79810743 C31.9613073,5.90674612 32.9368313,6.43739675 33.5855928,7.39341724 C32.4243002,8.12287667 31.8498461,9.14457419 31.861278,10.4552506 C31.8717573,11.476158 32.2290048,12.3257126 32.9311153,13.0002601 C33.2493038,13.3133371 33.6046461,13.5553051 34,13.7271517 C33.9142606,13.9849217 33.8237579,14.2318278 33.7275392,14.4688577 L33.7275392,14.4688577 Z M30.7495237,2.32008909 C30.7495237,3.12027231 30.4675363,3.86740035 29.9054668,4.55893501 C29.2271728,5.38103362 28.4067419,5.85608099 27.5170526,5.78112029 C27.505716,5.68512319 27.4991426,5.58408921 27.4991426,5.47791958 C27.4991426,4.70974526 27.8217133,3.88764665 28.3945479,3.21546944 C28.6805364,2.87513404 29.0442621,2.59215 29.4853437,2.36640868 C29.9254727,2.14403515 30.3417851,2.02105615 30.7333284,2 C30.7447604,2.10696961 30.7495237,2.21394909 30.7495237,2.32007921 L30.7495237,2.32008909 Z" id="Apple-Menu" fill="#FFFFFF" opacity="0.800000012" style="mix-blend-mode: hard-light;"></path>
            </g>
        </g>
        <g id="Windows-/-Standard-Window-with-Titlebar-(Dark)" transform="translate(0.000000, 22.000000)">
            <g id="Window">
                <g id="Window-Frame">
                    <use fill="black" fill-opacity="1" filter="url(#filter-5)" xlink:href="#path-4"></use>
                    <use fill="#444341" fill-rule="evenodd" xlink:href="#path-4"></use>
                    <use fill="black" fill-opacity="1" filter="url(#filter-6)" xlink:href="#path-4"></use>
                    <path stroke-opacity="0.2" stroke="#000000" stroke-width="0.5" d="M5.00097066,-0.25 C3.55013125,-0.25 2.23678406,0.335853077 1.28646517,1.28470085 C0.337147798,2.23254866 -0.25,3.54266086 -0.25,4.99322906 L-0.25,95.0067709 C-0.25,96.4555211 0.336826067,97.7670173 1.28728004,98.7159999 C2.23650337,99.6637538 3.54846867,100.25 5.00097066,100.25 L534.999029,100.25 C536.449869,100.25 537.763216,99.6641469 538.713535,98.7152991 C539.662852,97.7674513 540.25,96.4573391 540.25,95.0067709 L540.25,4.99322906 C540.25,3.5444789 539.663174,2.23298275 538.71272,1.28400009 C537.763497,0.336246187 536.451531,-0.25 534.999029,-0.25 L5.00097066,-0.25 Z"></path>
                </g>
                <g id="Titlebars-/-22px-(Dark)">
                    <g id="Titlebar---22px">
                        <g id="Titlebar-Background">
                            <use fill="url(#linearGradient-7)" fill-rule="evenodd" xlink:href="#path-8"></use>
                            <use fill="black" fill-opacity="1" filter="url(#filter-9)" xlink:href="#path-8"></use>
                        </g>
                        <text id="Window-Title" font-family="SFProText-Regular, SF Pro Text, -apple-system" font-size="13" font-weight="normal" letter-spacing="-0.0799999982" fill="#B5B4B3">
                            <tspan x="227.290547" y="15.5">SKTiled Demo</tspan>
                        </text>
                        <g id="Windows-/-Traffic-Lights-/-Default" transform="translate(8.000000, 5.000000)">
                            <g id="Traffic-Lights">
                                <circle id="Traffic-Light---Zoom" stroke="#1BAC2C" stroke-width="0.5" fill="#2ACB42" cx="46" cy="6" r="5.75"></circle>
                                <circle id="Traffic-Light---Minimise" stroke="#DFA023" stroke-width="0.5" fill="#FFC12F" cx="26" cy="6" r="5.75"></circle>
                                <circle id="Traffic-Light---Close" stroke="#E24640" stroke-width="0.5" fill="#FF6157" cx="6" cy="6" r="5.75"></circle>
                            </g>
                        </g>
                    </g>
                </g>
            </g>
        </g>
        <g id="Menu-/-Application" transform="translate(160.500000, 22.000000)">
            <g id="Menu-/-_Resources-/-Application-Background-(Dark)">
                <g id="Windows-/-Frames-/-Menubar-Menu-Frame">
                    <use fill="black" fill-opacity="1" filter="url(#filter-11)" xlink:href="#path-10"></use>
                    <path stroke="#5A5D5D" stroke-width="0.6" d="M220.3,-0.3 L-0.3,-0.3 L-0.3,81 C-0.3,82.4635546 0.293222706,83.7885546 1.25233406,84.7476659 C2.21144541,85.7067773 3.53644541,86.3 5,86.3 L215,86.3 C216.463555,86.3 217.788555,85.7067773 218.747666,84.7476659 C219.706777,83.7885546 220.3,82.4635546 220.3,81 L220.3,-0.3 Z" fill="#353839" fill-rule="evenodd"></path>
                </g>
            </g>
            <g id="Menu-/-Application-/-Item-(Dark,-with-Shortcut)" transform="translate(0.000000, 62.500000)" fill="#FFFFFF" fill-opacity="0.8" font-size="14" font-weight="normal" letter-spacing="-0.150000006">
                <text id="Shortcut" font-family="LucidaGrande, Lucida Grande">
                    <tspan x="189.447461" y="15">⌘R</tspan>
                </text>
                <text id="Item" font-family="SFProText-Regular, SF Pro Text, -apple-system">
                    <tspan x="21" y="14">Reload tile map...</tspan>
                </text>
            </g>
            <g id="Menu-/-Divider-(Dark)" transform="translate(0.000000, 27.000000)" fill="#565E5E">
                <rect id="Divider" x="0" y="0" width="220" height="2"></rect>
            </g>
            <g id="Menu-/-Application-/-Item-(Dark,-with-Arrow)" transform="translate(0.000000, 32.500000)" fill="#FFFFFF" fill-opacity="0.8">
                <g id="Icons-/-Menu-/-Arrow-(Dark)" transform="translate(199.000000, 4.000000)" fill-rule="evenodd">
                    <polygon id="Arrow" points="0 10.5 7.49400542e-16 0.5 9 5.5"></polygon>
                </g>
                <text id="Item" font-family="SFProText-Regular, SF Pro Text, -apple-system" font-size="14" font-weight="normal" letter-spacing="-0.150000006">
                    <tspan x="21" y="14">Recent files...</tspan>
                </text>
            </g>
            <g id="Menu-/-Divider-(Dark)" transform="translate(0.000000, 55.000000)" fill="#565E5E">
                <rect id="Divider" x="0" y="0" width="220" height="2"></rect>
            </g>
            <g id="Menu-/-Application-/-Selected-Item-(with-Shortcut)" transform="translate(0.000000, 3.000000)">
                <rect id="Highlight" fill="#3F95FD" fill-rule="evenodd" x="0" y="0" width="220" height="19"></rect>
                <text id="Shortcut" font-family="SFProText-Regular, SF Pro Text, -apple-system" font-size="14" font-weight="normal" letter-spacing="-0.150000006" fill="#FFFFFF">
                    <tspan x="188.633984" y="14">⌘O</tspan>
                </text>
                <text id="Item" font-family="SFProText-Regular, SF Pro Text, -apple-system" font-size="14" font-weight="normal" letter-spacing="-0.150000006" fill="#FFFFFF">
                    <tspan x="21" y="14">Load tile map...</tspan>
                </text>
            </g>
        </g>
        <g id="Menu-/-Menu-Bar-/-Selected" transform="translate(160.000000, 0.000000)">
            <rect id="Highlight" fill="#3F95FD" fill-rule="evenodd" x="0" y="0" width="40" height="22"></rect>
            <text id="File" opacity="0.800000012" style="mix-blend-mode: hard-light;" font-family="SFProText-Regular, SF Pro Text, -apple-system" font-size="14" font-weight="normal" letter-spacing="-0.150000006" fill="#FFFFFF">
                <tspan x="9" y="16">Fil</tspan>
                <tspan x="23.534375" y="16">e</tspan>
            </text>
        </g>
    </g>
</svg>
