<?xml version="1.0" encoding="UTF-8"?>
<svg width="860px" height="96px" viewBox="0 0 860 96" version="1.1" xmlns="http://www.w3.org/2000/svg" xmlns:xlink="http://www.w3.org/1999/xlink">
    <title>doc-banner-centered</title>
    <defs>
        <linearGradient x1="50%" y1="4.52666905%" x2="50%" y2="127.982156%" id="linearGradient-1">
            <stop stop-color="#FF6A6A" offset="0%"></stop>
            <stop stop-color="#B13535" offset="100%"></stop>
        </linearGradient>
        <filter x="-4.2%" y="-17.4%" width="108.4%" height="134.8%" filterUnits="objectBoundingBox" id="filter-2">
            <feOffset dx="0" dy="2" in="SourceAlpha" result="shadowOffsetOuter1"></feOffset>
            <feGaussianBlur stdDeviation="2" in="shadowOffsetOuter1" result="shadowBlurOuter1"></feGaussianBlur>
            <feColorMatrix values="0 0 0 0 0   0 0 0 0 0   0 0 0 0 0  0 0 0 0.299360795 0" type="matrix" in="shadowBlurOuter1" result="shadowMatrixOuter1"></feColorMatrix>
            <feMerge>
                <feMergeNode in="shadowMatrixOuter1"></feMergeNode>
                <feMergeNode in="SourceGraphic"></feMergeNode>
            </feMerge>
        </filter>
    </defs>
    <g id="doc-banner-centered" stroke="none" stroke-width="1" fill="none" fill-rule="evenodd">
        <rect id="Background" fill="url(#linearGradient-1)" x="1" y="0" width="855" height="96" rx="14"></rect>
        <g id="Logo-Group" transform="translate(254.000000, 11.000000)">
            <g id="Logo">
                <g id="Group" transform="translate(0.000000, 22.000000)">
                    <g id="tile-lighter" transform="translate(0.250000, 0.250000)">
                        <polygon id="left-side" fill="#A1A7DD" points="0 15.5 24.5 31 24.5 36 0 20.5"></polygon>
                        <polygon id="right-side" fill="#666EB8" points="24.5 31 49 15.5 49 20.5 24.5 36"></polygon>
                        <polygon id="top" fill="#848CDF" points="24.5 0 0 15.5 24.5 31 49 15.5"></polygon>
                        <path d="M0.211269709,15.6336604 L24.2887303,30.8663396 C24.4202646,30.9495551 24.5,31.0943527 24.5,31.25 C24.5,31.3260315 24.4383643,31.3876671 24.3623329,31.3876671 C24.3362746,31.3876671 24.3107515,31.3802714 24.2887303,31.3663396 L0.211269709,16.1336604 C0.0797354372,16.0504449 1.90613015e-17,15.9056473 0,15.75 C-9.31116749e-18,15.6739685 0.0616356703,15.6123329 0.137667123,15.6123329 C0.163725352,15.6123329 0.189248451,15.6197286 0.211269709,15.6336604 Z" id="left-rim" fill="#9EA5E8"></path>
                        <path d="M24.7112697,30.8663396 L48.7887303,15.6336604 C48.8529829,15.5930108 48.9380229,15.6121448 48.9786724,15.6763974 C48.9926043,15.6984187 49,15.7239418 49,15.75 C49,15.9056473 48.9202646,16.0504449 48.7887303,16.1336604 L24.7112697,31.3663396 C24.6470171,31.4069892 24.5619771,31.3878552 24.5213276,31.3236026 C24.5073957,31.3015813 24.5,31.2760582 24.5,31.25 C24.5,31.0943527 24.5797354,30.9495551 24.7112697,30.8663396 Z" id="right-rim" fill="#9EA5E8"></path>
                        <rect id="front-rim" fill="#A5ADFE" x="24.25" y="31" width="1" height="5" rx="0.5"></rect>
                    </g>
                </g>
                <g id="Group" transform="translate(49.250000, 22.000000)">
                    <g id="tile-lighter" transform="translate(0.250000, 0.250000)">
                        <polygon id="left-side" fill="#A1A7DD" points="0 15.5 24.5 31 24.5 36 0 20.5"></polygon>
                        <polygon id="right-side" fill="#666EB8" points="24.5 31 49 15.5 49 20.5 24.5 36"></polygon>
                        <polygon id="top" fill="#848CDF" points="24.5 0 0 15.5 24.5 31 49 15.5"></polygon>
                        <path d="M0.211269709,15.6336604 L24.2887303,30.8663396 C24.4202646,30.9495551 24.5,31.0943527 24.5,31.25 C24.5,31.3260315 24.4383643,31.3876671 24.3623329,31.3876671 C24.3362746,31.3876671 24.3107515,31.3802714 24.2887303,31.3663396 L0.211269709,16.1336604 C0.0797354372,16.0504449 1.90613015e-17,15.9056473 0,15.75 C-9.31116749e-18,15.6739685 0.0616356703,15.6123329 0.137667123,15.6123329 C0.163725352,15.6123329 0.189248451,15.6197286 0.211269709,15.6336604 Z" id="left-rim" fill="#9EA5E8"></path>
                        <path d="M24.7112697,30.8663396 L48.7887303,15.6336604 C48.8529829,15.5930108 48.9380229,15.6121448 48.9786724,15.6763974 C48.9926043,15.6984187 49,15.7239418 49,15.75 C49,15.9056473 48.9202646,16.0504449 48.7887303,16.1336604 L24.7112697,31.3663396 C24.6470171,31.4069892 24.5619771,31.3878552 24.5213276,31.3236026 C24.5073957,31.3015813 24.5,31.2760582 24.5,31.25 C24.5,31.0943527 24.5797354,30.9495551 24.7112697,30.8663396 Z" id="right-rim" fill="#9EA5E8"></path>
                        <rect id="front-rim" fill="#A5ADFE" x="24.25" y="31" width="1" height="5" rx="0.5"></rect>
                    </g>
                </g>
                <g id="tile" transform="translate(25.000000, 38.000000)">
                    <polygon id="left-side" fill="#7A83DA" points="0 15.5 24.5 31 24.5 36 0 20.5"></polygon>
                    <polygon id="right-side" fill="#4D55A8" points="24.5 31 49 15.5 49 20.5 24.5 36"></polygon>
                    <polygon id="top" fill="#5F6AD3" points="24.5 0 0 15.5 24.5 31 49 15.5"></polygon>
                    <path d="M0.211269709,15.6336604 L24.2887303,30.8663396 C24.4202646,30.9495551 24.5,31.0943527 24.5,31.25 C24.5,31.3260315 24.4383643,31.3876671 24.3623329,31.3876671 C24.3362746,31.3876671 24.3107515,31.3802714 24.2887303,31.3663396 L0.211269709,16.1336604 C0.0797354372,16.0504449 1.90613015e-17,15.9056473 0,15.75 C-9.31116749e-18,15.6739685 0.0616356703,15.6123329 0.137667123,15.6123329 C0.163725352,15.6123329 0.189248451,15.6197286 0.211269709,15.6336604 Z" id="left-rim" fill="#9EA5E8"></path>
                    <path d="M24.7112697,30.8663396 L48.7887303,15.6336604 C48.8529829,15.5930108 48.9380229,15.6121448 48.9786724,15.6763974 C48.9926043,15.6984187 49,15.7239418 49,15.75 C49,15.9056473 48.9202646,16.0504449 48.7887303,16.1336604 L24.7112697,31.3663396 C24.6470171,31.4069892 24.5619771,31.3878552 24.5213276,31.3236026 C24.5073957,31.3015813 24.5,31.2760582 24.5,31.25 C24.5,31.0943527 24.5797354,30.9495551 24.7112697,30.8663396 Z" id="right-rim" fill="#9EA5E8"></path>
                    <rect id="front-rim" fill="#A5ADFE" x="24.25" y="31" width="1" height="5" rx="0.5"></rect>
                </g>
                <g id="tile" transform="translate(25.000000, 0.000000)">
                    <polygon id="left-side" fill="#7A83DA" points="0 15.5 24.5 31 24.5 36 0 20.5"></polygon>
                    <polygon id="right-side" fill="#4D55A8" points="24.5 31 49 15.5 49 20.5 24.5 36"></polygon>
                    <polygon id="top" fill="#5F6AD3" points="24.5 0 0 15.5 24.5 31 49 15.5"></polygon>
                    <path d="M0.211269709,15.6336604 L24.2887303,30.8663396 C24.4202646,30.9495551 24.5,31.0943527 24.5,31.25 C24.5,31.3260315 24.4383643,31.3876671 24.3623329,31.3876671 C24.3362746,31.3876671 24.3107515,31.3802714 24.2887303,31.3663396 L0.211269709,16.1336604 C0.0797354372,16.0504449 1.90613015e-17,15.9056473 0,15.75 C-9.31116749e-18,15.6739685 0.0616356703,15.6123329 0.137667123,15.6123329 C0.163725352,15.6123329 0.189248451,15.6197286 0.211269709,15.6336604 Z" id="left-rim" fill="#9EA5E8"></path>
                    <path d="M24.7112697,30.8663396 L48.7887303,15.6336604 C48.8529829,15.5930108 48.9380229,15.6121448 48.9786724,15.6763974 C48.9926043,15.6984187 49,15.7239418 49,15.75 C49,15.9056473 48.9202646,16.0504449 48.7887303,16.1336604 L24.7112697,31.3663396 C24.6470171,31.4069892 24.5619771,31.3878552 24.5213276,31.3236026 C24.5073957,31.3015813 24.5,31.2760582 24.5,31.25 C24.5,31.0943527 24.5797354,30.9495551 24.7112697,30.8663396 Z" id="right-rim" fill="#9EA5E8"></path>
                    <rect id="front-rim" fill="#A5ADFE" x="24.25" y="31" width="1" height="5" rx="0.5"></rect>
                </g>
            </g>
            <g id="Group" transform="translate(58.000000, 3.000000)" fill-rule="nonzero">
                <g id="Flattened" filter="url(#filter-2)" transform="translate(3.000000, 0.000000)">
                    <path d="M238.5265,55 L245.2585,37.345 L240.9355,37.345 L236.4145,50.776 L231.7945,37.345 L227.3065,37.378 L234.1045,55 L238.5265,55 Z M254.3665,55 L254.3665,31.9 L245.0935,31.9 L245.0935,35.794 L249.9445,35.794 L249.9445,55 L254.3665,55 Z M261.3625,55.297 C262.0225,55.297 262.567,55.0715 262.996,54.6205 C263.425,54.1695 263.6395,53.592 263.6395,52.888 C263.6395,52.206 263.425,51.645 262.996,51.205 C262.567,50.765 262.0225,50.545 261.3625,50.545 C260.7245,50.545 260.191,50.765 259.762,51.205 C259.333,51.645 259.1185,52.206 259.1185,52.888 C259.1185,53.57 259.333,54.142 259.762,54.604 C260.191,55.066 260.7245,55.297 261.3625,55.297 Z M274.0015,55.198 C275.8495,55.198 277.4665,54.8845 278.8525,54.2575 C280.2385,53.6305 281.3055,52.7615 282.0535,51.6505 C282.8015,50.5395 283.1755,49.258 283.1755,47.806 C283.1755,46.024 282.543,44.583 281.278,43.483 C280.013,42.383 278.3135,41.734 276.1795,41.536 L276.1795,41.536 L274.9585,41.404 L282.0205,34.639 L282.0205,31.9 L266.5765,31.9 L266.6095,35.662 L276.3445,35.662 L270.1405,41.668 L270.1405,44.341 L273.6385,44.341 C275.3105,44.341 276.5975,44.6435 277.4995,45.2485 C278.4015,45.8535 278.8525,46.728 278.8525,47.872 C278.8525,48.994 278.396,49.885 277.483,50.545 C276.57,51.205 275.3105,51.535 273.7045,51.535 C272.5385,51.535 271.3945,51.3315 270.2725,50.9245 C269.1505,50.5175 268.1275,49.929 267.2035,49.159 L267.2035,49.159 L265.4545,52.591 C266.5325,53.383 267.836,54.0155 269.365,54.4885 C270.894,54.9615 272.4395,55.198 274.0015,55.198 Z" id="v1.3" fill="#FFA5A5"></path>
                    <path d="M20.147,55.627 C23.149,55.627 25.8755,55.152 28.3265,54.202 C30.7775,53.252 32.706,51.8365 34.112,49.9555 C35.518,48.0745 36.221,45.804 36.221,43.144 C36.221,40.484 35.575,38.3275 34.283,36.6745 C32.991,35.0215 31.4425,33.796 29.6375,32.998 C27.8325,32.2 25.543,31.402 22.769,30.604 C20.907,30.034 19.501,29.5685 18.551,29.2075 C17.601,28.8465 16.803,28.3715 16.157,27.7825 C15.511,27.1935 15.188,26.462 15.188,25.588 C15.188,24.676 15.5585,23.9825 16.2995,23.5075 C17.0405,23.0325 18.057,22.795 19.349,22.795 C20.983,22.795 23.0065,23.194 25.4195,23.992 C27.8325,24.79 30.103,25.816 32.231,27.07 L32.231,27.07 L36.164,18.748 C34.036,17.38 31.566,16.2875 28.754,15.4705 C25.942,14.6535 23.092,14.245 20.204,14.245 C17.012,14.245 14.2095,14.7485 11.7965,15.7555 C9.3835,16.7625 7.5215,18.197 6.2105,20.059 C4.8995,21.921 4.244,24.087 4.244,26.557 C4.244,29.179 4.8805,31.2785 6.1535,32.8555 C7.4265,34.4325 8.956,35.6105 10.742,36.3895 C12.528,37.1685 14.789,37.938 17.525,38.698 C19.349,39.192 20.7645,39.6195 21.7715,39.9805 C22.7785,40.3415 23.6145,40.826 24.2795,41.434 C24.9445,42.042 25.277,42.802 25.277,43.714 C25.277,44.816 24.8305,45.652 23.9375,46.222 C23.0445,46.792 21.819,47.077 20.261,47.077 C18.133,47.077 15.6915,46.507 12.9365,45.367 C10.1815,44.227 7.797,42.764 5.783,40.978 L5.783,40.978 L1.736,49.129 C4.13,51.143 6.9705,52.7295 10.2575,53.8885 C13.5445,55.0475 16.841,55.627 20.147,55.627 Z M51.953,55 L51.953,45.082 L56.969,39.496 L67.457,55 L79.94,55 L64.208,31.516 L79.028,15.043 L66.944,15.043 L51.953,32.371 L51.953,15.043 L41.522,15.043 L41.522,55 L51.953,55 Z M103.025,55 L103.025,23.65 L114.995,23.65 L114.995,15.043 L80.738,15.043 L80.738,23.65 L92.594,23.65 L92.594,55 L103.025,55 Z M124.172,20.8 C125.73,20.8 127.0125,20.287 128.0195,19.261 C129.0265,18.235 129.53,16.943 129.53,15.385 C129.53,13.789 129.0265,12.4875 128.0195,11.4805 C127.0125,10.4735 125.73,9.97 124.172,9.97 C122.614,9.97 121.3315,10.4735 120.3245,11.4805 C119.3175,12.4875 118.814,13.789 118.814,15.385 C118.814,16.943 119.3175,18.235 120.3245,19.261 C121.3315,20.287 122.614,20.8 124.172,20.8 Z M129.302,55 L129.302,24.163 L119.213,24.163 L119.213,55 L129.302,55 Z M147.485,55 L147.485,12.706 L137.339,12.706 L137.339,55 L147.485,55 Z M169.316,55.342 C172.166,55.342 174.7215,54.8765 176.9825,53.9455 C179.2435,53.0145 181.172,51.656 182.768,49.87 L182.768,49.87 L177.467,44.569 C176.441,45.595 175.3105,46.374 174.0755,46.906 C172.8405,47.438 171.558,47.704 170.228,47.704 C168.48,47.704 166.998,47.2385 165.782,46.3075 C164.566,45.3765 163.711,44.037 163.217,42.289 L163.217,42.289 L184.649,42.289 C184.687,41.871 184.706,41.263 184.706,40.465 C184.706,35.297 183.357,31.231 180.659,28.267 C177.961,25.303 174.104,23.821 169.088,23.821 C165.896,23.821 163.084,24.4765 160.652,25.7875 C158.22,27.0985 156.339,28.9605 155.009,31.3735 C153.679,33.7865 153.014,36.57 153.014,39.724 C153.014,42.84 153.6695,45.576 154.9805,47.932 C156.2915,50.288 158.182,52.112 160.652,53.404 C163.122,54.696 166.01,55.342 169.316,55.342 Z M174.845,36.874 L162.989,36.874 C163.331,35.05 164.0435,33.606 165.1265,32.542 C166.2095,31.478 167.549,30.946 169.145,30.946 C170.855,30.946 172.2325,31.4875 173.2775,32.5705 C174.3225,33.6535 174.845,35.088 174.845,36.874 L174.845,36.874 Z M201.749,55.399 C203.687,55.399 205.4255,55.0285 206.9645,54.2875 C208.5035,53.5465 209.805,52.454 210.869,51.01 L210.869,51.01 L210.869,55 L221.015,55 L221.015,12.706 L210.869,12.706 L210.869,28.21 C209.767,26.804 208.4275,25.721 206.8505,24.961 C205.2735,24.201 203.497,23.821 201.521,23.821 C198.709,23.821 196.239,24.467 194.111,25.759 C191.983,27.051 190.33,28.875 189.152,31.231 C187.974,33.587 187.385,36.323 187.385,39.439 C187.385,42.593 187.9835,45.3765 189.1805,47.7895 C190.3775,50.2025 192.059,52.074 194.225,53.404 C196.391,54.734 198.899,55.399 201.749,55.399 Z M204.257,47.419 C202.281,47.419 200.6755,46.7065 199.4405,45.2815 C198.2055,43.8565 197.588,42.004 197.588,39.724 C197.588,37.444 198.2055,35.5915 199.4405,34.1665 C200.6755,32.7415 202.281,32.029 204.257,32.029 C206.233,32.029 207.829,32.732 209.045,34.138 C210.261,35.544 210.869,37.406 210.869,39.724 C210.869,42.004 210.261,43.8565 209.045,45.2815 C207.829,46.7065 206.233,47.419 204.257,47.419 Z" id="SKTiled" fill="#FFFFFF"></path>
                </g>
            </g>
        </g>
    </g>
</svg>