<?xml version="1.0" encoding="UTF-8"?>
<svg width="40px" height="22px" viewBox="0 0 40 22" version="1.1" xmlns="http://www.w3.org/2000/svg" xmlns:xlink="http://www.w3.org/1999/xlink">
    <title>new-feature</title>
    <defs>
        <path d="M14.5187717,14.113623 C14.9704319,14.113623 15.2227105,13.8678955 15.2227105,13.420752 L15.2227105,8.85666504 C15.2227105,8.38535156 14.9622938,8.12351074 14.5147027,8.12351074 C14.0711806,8.12351074 13.8066949,8.38535156 13.8066949,8.85666504 L13.8066949,11.5918945 L13.7741428,11.5918945 L11.528049,8.53439941 C11.3042535,8.24436035 11.100803,8.12351074 10.8159722,8.12351074 C10.352105,8.12351074 10.0916884,8.36923828 10.0916884,8.82443848 L10.0916884,13.3804687 C10.0916884,13.8517822 10.352105,14.113623 10.7996962,14.113623 C11.2432183,14.113623 11.507704,13.8517822 11.507704,13.3804687 L11.507704,10.6130127 L11.5402561,10.6130127 L13.8026259,13.7027344 C14.0182834,13.9968018 14.2176649,14.113623 14.5187717,14.113623 Z M18.140191,14.1297363 C19.0231662,14.1297363 19.7393121,13.8195557 20.0322808,13.3039307 C20.097385,13.1991943 20.1299371,13.0904297 20.1299371,12.981665 C20.1299371,12.6674561 19.8817274,12.4821533 19.5887587,12.4821533 C19.4097222,12.4821533 19.2917209,12.5304932 19.1411675,12.6714844 C18.8197157,12.99375 18.547092,13.1186279 18.152398,13.1186279 C17.6315647,13.1186279 17.2775608,12.7560791 17.2775608,12.2243408 L17.2775608,12.1437744 L19.6864149,12.1437744 C20.0607639,12.1437744 20.2682834,11.9423584 20.2682834,11.5798096 C20.2682834,10.3954834 19.4015842,9.53342285 18.0832248,9.53342285 C16.7323134,9.53342285 15.8778212,10.4317383 15.8778212,11.8537354 C15.8778212,13.2797607 16.7201063,14.1297363 18.140191,14.1297363 Z M18.9092339,11.3300537 L17.2979058,11.3300537 C17.3345269,10.8708252 17.6641168,10.5485596 18.1117079,10.5485596 C18.5633681,10.5485596 18.8848199,10.8547119 18.9092339,11.3300537 Z M25.3952365,14.1176514 C25.9120009,14.1176514 26.1805556,13.8799805 26.335178,13.3482422 L27.132704,10.5968994 C27.1856011,10.40354 27.2140842,10.2826904 27.2140842,10.1457275 C27.2140842,9.79526367 26.9333225,9.54550781 26.5386285,9.54550781 C26.1805556,9.54550781 25.9404839,9.77109375 25.8672418,10.1457275 L25.3179253,12.7359375 L25.2894423,12.7359375 L24.7238498,10.2061523 C24.6343316,9.77512207 24.3495009,9.54550781 23.9181858,9.54550781 C23.4828016,9.54550781 23.1979709,9.77512207 23.1125217,10.202124 L22.5509983,12.7359375 L22.5225152,12.7359375 L21.9731988,10.1578125 C21.8958876,9.77109375 21.651747,9.54550781 21.293674,9.54550781 C20.890842,9.54550781 20.5978733,9.79929199 20.5978733,10.1537842 C20.5978733,10.2947754 20.6263563,10.415625 20.6833225,10.6130127 L21.4808485,13.3562988 C21.6314019,13.8799805 21.8958876,14.1176514 22.4004449,14.1176514 C22.9294162,14.1176514 23.210178,13.8880371 23.3281793,13.3562988 L23.8734266,11.0722412 L23.9019097,11.0722412 L24.4512261,13.3442139 C24.5732964,13.8840088 24.8540582,14.1176514 25.3952365,14.1176514 Z M28.7887912,12.1800293 C29.1997613,12.1800293 29.4113498,11.9383301 29.4235569,11.5234131 L29.496799,9.01779785 C29.5008681,8.95334473 29.5049371,8.88083496 29.5049371,8.8284668 C29.5049371,8.38132324 29.2404514,8.11948242 28.7928602,8.11948242 C28.3412001,8.11948242 28.0726454,8.38132324 28.0726454,8.8284668 C28.0726454,8.88083496 28.0767144,8.95334473 28.0767144,9.01779785 L28.1540256,11.5234131 C28.1662326,11.9383301 28.3737522,12.1800293 28.7887912,12.1800293 Z M28.7887912,14.1579346 C29.2119683,14.1579346 29.5578342,13.8396973 29.5578342,13.4328369 C29.5578342,13.0300049 29.2119683,12.7117676 28.7887912,12.7117676 C28.3615451,12.7117676 28.0156793,13.0300049 28.0156793,13.4328369 C28.0156793,13.8396973 28.3615451,14.1579346 28.7887912,14.1579346 Z" id="path-1"></path>
        <filter x="-10.3%" y="-16.6%" width="120.5%" height="166.2%" filterUnits="objectBoundingBox" id="filter-2">
            <feOffset dx="0" dy="1" in="SourceAlpha" result="shadowOffsetOuter1"></feOffset>
            <feGaussianBlur stdDeviation="0.5" in="shadowOffsetOuter1" result="shadowBlurOuter1"></feGaussianBlur>
            <feColorMatrix values="0 0 0 0 0   0 0 0 0 0   0 0 0 0 0  0 0 0 0.5 0" type="matrix" in="shadowBlurOuter1"></feColorMatrix>
        </filter>
    </defs>
    <g id="new-feature" stroke="none" stroke-width="1" fill="none" fill-rule="evenodd">
        <g id="Other-/-New-Callout2">
            <rect id="Background0" stroke="#DB8787" stroke-width="1.375" fill="#DE6363" x="3.1875" y="3.7125" width="33.625" height="14.575" rx="5.225"></rect>
            <g id="New!" fill-rule="nonzero">
                <use fill="black" fill-opacity="1" filter="url(#filter-2)" xlink:href="#path-1"></use>
                <use fill="#FFFFFF" xlink:href="#path-1"></use>
            </g>
        </g>
    </g>
</svg>