<?xml version="1.0" encoding="UTF-8"?>
<svg width="820px" height="320px" viewBox="0 0 820 320" version="1.1" xmlns="http://www.w3.org/2000/svg" xmlns:xlink="http://www.w3.org/1999/xlink">
    <title>scene-hierarchy</title>
    <defs>
        <filter x="-9.1%" y="-18.5%" width="118.1%" height="137.1%" filterUnits="objectBoundingBox" id="filter-1">
            <feOffset dx="0" dy="2" in="SourceAlpha" result="shadowOffsetOuter1"></feOffset>
            <feGaussianBlur stdDeviation="1.5" in="shadowOffsetOuter1" result="shadowBlurOuter1"></feGaussianBlur>
            <feColorMatrix values="0 0 0 0 0   0 0 0 0 0   0 0 0 0 0  0 0 0 0.185478584 0" type="matrix" in="shadowBlurOuter1" result="shadowMatrixOuter1"></feColorMatrix>
            <feMerge>
                <feMergeNode in="shadowMatrixOuter1"></feMergeNode>
                <feMergeNode in="SourceGraphic"></feMergeNode>
            </feMerge>
        </filter>
        <filter x="-9.0%" y="-18.5%" width="117.2%" height="135.5%" filterUnits="objectBoundingBox" id="filter-2">
            <feOffset dx="0" dy="2" in="SourceAlpha" result="shadowOffsetOuter1"></feOffset>
            <feGaussianBlur stdDeviation="1.5" in="shadowOffsetOuter1" result="shadowBlurOuter1"></feGaussianBlur>
            <feColorMatrix values="0 0 0 0 0   0 0 0 0 0   0 0 0 0 0  0 0 0 0.185478584 0" type="matrix" in="shadowBlurOuter1" result="shadowMatrixOuter1"></feColorMatrix>
            <feMerge>
                <feMergeNode in="shadowMatrixOuter1"></feMergeNode>
                <feMergeNode in="SourceGraphic"></feMergeNode>
            </feMerge>
        </filter>
        <filter x="-9.0%" y="-18.5%" width="117.2%" height="135.5%" filterUnits="objectBoundingBox" id="filter-3">
            <feOffset dx="0" dy="2" in="SourceAlpha" result="shadowOffsetOuter1"></feOffset>
            <feGaussianBlur stdDeviation="1.5" in="shadowOffsetOuter1" result="shadowBlurOuter1"></feGaussianBlur>
            <feColorMatrix values="0 0 0 0 0   0 0 0 0 0   0 0 0 0 0  0 0 0 0.185478584 0" type="matrix" in="shadowBlurOuter1" result="shadowMatrixOuter1"></feColorMatrix>
            <feMerge>
                <feMergeNode in="shadowMatrixOuter1"></feMergeNode>
                <feMergeNode in="SourceGraphic"></feMergeNode>
            </feMerge>
        </filter>
        <filter x="-9.0%" y="-18.5%" width="117.2%" height="135.5%" filterUnits="objectBoundingBox" id="filter-4">
            <feOffset dx="0" dy="2" in="SourceAlpha" result="shadowOffsetOuter1"></feOffset>
            <feGaussianBlur stdDeviation="1.5" in="shadowOffsetOuter1" result="shadowBlurOuter1"></feGaussianBlur>
            <feColorMatrix values="0 0 0 0 0   0 0 0 0 0   0 0 0 0 0  0 0 0 0.185478584 0" type="matrix" in="shadowBlurOuter1" result="shadowMatrixOuter1"></feColorMatrix>
            <feMerge>
                <feMergeNode in="shadowMatrixOuter1"></feMergeNode>
                <feMergeNode in="SourceGraphic"></feMergeNode>
            </feMerge>
        </filter>
        <filter x="-9.0%" y="-18.5%" width="117.2%" height="137.1%" filterUnits="objectBoundingBox" id="filter-5">
            <feOffset dx="0" dy="2" in="SourceAlpha" result="shadowOffsetOuter1"></feOffset>
            <feGaussianBlur stdDeviation="1.5" in="shadowOffsetOuter1" result="shadowBlurOuter1"></feGaussianBlur>
            <feColorMatrix values="0 0 0 0 0   0 0 0 0 0   0 0 0 0 0  0 0 0 0.185478584 0" type="matrix" in="shadowBlurOuter1" result="shadowMatrixOuter1"></feColorMatrix>
            <feMerge>
                <feMergeNode in="shadowMatrixOuter1"></feMergeNode>
                <feMergeNode in="SourceGraphic"></feMergeNode>
            </feMerge>
        </filter>
        <filter x="-9.0%" y="-18.5%" width="117.2%" height="137.1%" filterUnits="objectBoundingBox" id="filter-6">
            <feOffset dx="0" dy="2" in="SourceAlpha" result="shadowOffsetOuter1"></feOffset>
            <feGaussianBlur stdDeviation="1.5" in="shadowOffsetOuter1" result="shadowBlurOuter1"></feGaussianBlur>
            <feColorMatrix values="0 0 0 0 0   0 0 0 0 0   0 0 0 0 0  0 0 0 0.185478584 0" type="matrix" in="shadowBlurOuter1" result="shadowMatrixOuter1"></feColorMatrix>
            <feMerge>
                <feMergeNode in="shadowMatrixOuter1"></feMergeNode>
                <feMergeNode in="SourceGraphic"></feMergeNode>
            </feMerge>
        </filter>
        <filter x="-9.0%" y="-18.5%" width="117.2%" height="137.1%" filterUnits="objectBoundingBox" id="filter-7">
            <feOffset dx="0" dy="2" in="SourceAlpha" result="shadowOffsetOuter1"></feOffset>
            <feGaussianBlur stdDeviation="1.5" in="shadowOffsetOuter1" result="shadowBlurOuter1"></feGaussianBlur>
            <feColorMatrix values="0 0 0 0 0   0 0 0 0 0   0 0 0 0 0  0 0 0 0.185478584 0" type="matrix" in="shadowBlurOuter1" result="shadowMatrixOuter1"></feColorMatrix>
            <feMerge>
                <feMergeNode in="shadowMatrixOuter1"></feMergeNode>
                <feMergeNode in="SourceGraphic"></feMergeNode>
            </feMerge>
        </filter>
    </defs>
    <g id="scene-hierarchy" stroke="none" stroke-width="1" fill="none" fill-rule="evenodd">
        <g transform="translate(7.000000, 6.000000)">
            <g id="Connections" transform="translate(127.177246, 30.111206)" fill="#666A6B" fill-rule="nonzero">
                <path id="Path" d="M77.4746364,-5.62137093 L77.5654324,-5.57622748 L86.5654324,-0.24667231 C86.9809961,-0.00058683737 87.0106792,0.575432198 86.6544818,0.868651036 L86.5654324,0.931017904 L77.5654324,6.26057308 C77.2402223,6.4531537 76.8204699,6.3456362 76.6278893,6.02042603 C76.452816,5.72478042 76.5257577,5.35100076 76.7848019,5.1407955 L76.8680363,5.08288287 L83.719,1.026 L40.94,1.026 L40.9406672,64.6706587 C40.9406672,65.0142529 40.6874507,65.2987052 40.3574492,65.3475842 L40.2563216,65.3550043 L0.222070145,65.3550043 C-0.15588349,65.3550043 -0.462275449,65.0486123 -0.462275449,64.6706587 C-0.462275449,64.3270645 -0.209058954,64.0426121 0.120942569,63.9937332 L0.222070145,63.9863131 L39.571,63.986 L39.571976,0.342172797 C39.571976,-0.0014214168 39.8251925,-0.28587375 40.1551941,-0.334752734 L40.2563216,-0.342172797 L83.719,-0.342 L76.8680363,-4.39853727 C76.5723907,-4.57361056 76.4566564,-4.9364291 76.5827458,-5.24528444 L76.6278893,-5.33608043 C76.8029626,-5.63172604 77.1657811,-5.74746035 77.4746364,-5.62137093 Z"></path>
                <path id="Path" d="M40.0341831,64.3284859 C40.3777773,64.3284859 40.6622296,64.5817024 40.7111086,64.9117039 L40.7185287,65.0128315 L40.718,126.946 L83.718,126.946 L76.8680363,122.889743 C76.5723907,122.71467 76.4566564,122.351851 76.5827458,122.042996 L76.6278893,121.9522 C76.8029626,121.656555 77.1657811,121.54082 77.4746364,121.66691 L77.5654324,121.712053 L86.5654324,127.041608 C86.9809961,127.287694 87.0106792,127.863713 86.6544818,128.156932 L86.5654324,128.219298 L77.5654324,133.548854 C77.2402223,133.741434 76.8204699,133.633917 76.6278893,133.308707 C76.452816,133.013061 76.5257577,132.639281 76.7848019,132.429076 L76.8680363,132.371163 L83.718,128.314 L40.0341831,128.314799 C39.6905888,128.314799 39.4061365,128.061582 39.3572575,127.731581 L39.3498375,127.630453 L39.349,65.697 L0.59,65.697 L0.574093291,65.7276376 C0.469486794,65.8884686 0.29912849,66.0026024 0.101127576,66.0319298 L4.37631112e-14,66.0393499 C-0.343594214,66.0393499 -0.628046547,65.7861334 -0.676925531,65.4561319 L-0.684345595,65.3550043 L-0.684345595,65.0128315 C-0.684345595,64.6692373 -0.431129099,64.3847849 -0.101127576,64.3359059 L4.37631112e-14,64.3284859 L40.0341831,64.3284859 Z"></path>
                <path id="Path" d="M306.935581,121.303634 L307.523375,121.654101 L316.507318,127.01068 L316.503778,128.188364 L307.487802,133.490848 L306.897912,133.837775 L306.204058,132.657994 L306.793948,132.311067 L313.655,128.275 L307.158135,128.255779 L212.940458,127.972623 L212.256116,127.970566 L212.260229,126.601881 L212.944572,126.603938 L307.162248,126.887094 L313.66,126.906 L306.822443,122.82969 L306.234649,122.479223 L306.935581,121.303634 Z"></path>
                <path id="Path" d="M388.120922,86.4398653 C388.416568,86.6149386 388.532302,86.9777572 388.406213,87.2866125 L388.361069,87.3774085 L383.031514,96.3774085 C382.785429,96.7929721 382.20941,96.8226552 381.916191,96.4664578 L381.853824,96.3774085 L376.524269,87.3774085 C376.331688,87.0521983 376.439206,86.6324459 376.764416,86.4398653 C377.060061,86.264792 377.433841,86.3377337 377.644046,86.596778 L377.701959,86.6800124 L381.758,93.53 L381.758323,92.0444825 C381.758323,91.6665289 382.064715,91.3601369 382.442669,91.3601369 C382.786263,91.3601369 383.070715,91.6133534 383.119594,91.943355 L383.127015,92.0444825 L383.127,93.528 L387.183379,86.6800124 C387.37596,86.3548022 387.795712,86.2472847 388.120922,86.4398653 Z M382.442669,84.5166812 C382.786263,84.5166812 383.070715,84.7698976 383.119594,85.0998992 L383.127015,85.2010267 L383.127015,88.6227546 C383.127015,89.0007083 382.820623,89.3071002 382.442669,89.3071002 C382.099075,89.3071002 381.814622,89.0538837 381.765743,88.7238822 L381.758323,88.6227546 L381.758323,85.2010267 C381.758323,84.8230731 382.064715,84.5166812 382.442669,84.5166812 Z M382.442669,77.6732254 C382.786263,77.6732254 383.070715,77.9264419 383.119594,78.2564434 L383.127015,78.357571 L383.127015,81.7792989 C383.127015,82.1572525 382.820623,82.4636444 382.442669,82.4636444 C382.099075,82.4636444 381.814622,82.210428 381.765743,81.8804264 L381.758323,81.7792989 L381.758323,78.357571 C381.758323,77.9796173 382.064715,77.6732254 382.442669,77.6732254 Z M382.442669,70.8297696 C382.786263,70.8297696 383.070715,71.0829861 383.119594,71.4129876 L383.127015,71.5141152 L383.127015,74.9358431 C383.127015,75.3137967 382.820623,75.6201887 382.442669,75.6201887 C382.099075,75.6201887 381.814622,75.3669722 381.765743,75.0369706 L381.758323,74.9358431 L381.758323,71.5141152 C381.758323,71.1361615 382.064715,70.8297696 382.442669,70.8297696 Z M382.442669,63.9863138 C382.786263,63.9863138 383.070715,64.2395303 383.119594,64.5695318 L383.127015,64.6706594 L383.127015,68.0923873 C383.127015,68.4703409 382.820623,68.7767329 382.442669,68.7767329 C382.099075,68.7767329 381.814622,68.5235164 381.765743,68.1935148 L381.758323,68.0923873 L381.758323,64.6706594 C381.758323,64.2927057 382.064715,63.9863138 382.442669,63.9863138 Z M382.442669,57.142858 C382.786263,57.142858 383.070715,57.3960745 383.119594,57.726076 L383.127015,57.8272036 L383.127015,61.2489315 C383.127015,61.6268851 382.820623,61.9332771 382.442669,61.9332771 C382.099075,61.9332771 381.814622,61.6800606 381.765743,61.3500591 L381.758323,61.2489315 L381.758323,57.8272036 C381.758323,57.4492499 382.064715,57.142858 382.442669,57.142858 Z M382.442669,50.2994022 C382.786263,50.2994022 383.070715,50.5526187 383.119594,50.8826202 L383.127015,50.9837478 L383.127015,54.4054757 C383.127015,54.7834293 382.820623,55.0898213 382.442669,55.0898213 C382.099075,55.0898213 381.814622,54.8366048 381.765743,54.5066033 L381.758323,54.4054757 L381.758323,50.9837478 C381.758323,50.6057942 382.064715,50.2994022 382.442669,50.2994022 Z M382.442669,43.4559464 C382.786263,43.4559464 383.070715,43.7091629 383.119594,44.0391644 L383.127015,44.140292 L383.127015,47.5620199 C383.127015,47.9399735 382.820623,48.2463655 382.442669,48.2463655 C382.099075,48.2463655 381.814622,47.993149 381.765743,47.6631475 L381.758323,47.5620199 L381.758323,44.140292 C381.758323,43.7623384 382.064715,43.4559464 382.442669,43.4559464 Z M382.442669,36.6124906 C382.786263,36.6124906 383.070715,36.8657071 383.119594,37.1957086 L383.127015,37.2968362 L383.127015,40.7185641 C383.127015,41.0965177 382.820623,41.4029097 382.442669,41.4029097 C382.099075,41.4029097 381.814622,41.1496932 381.765743,40.8196917 L381.758323,40.7185641 L381.758323,37.2968362 C381.758323,36.9188826 382.064715,36.6124906 382.442669,36.6124906 Z M382.442669,29.7690348 C382.786263,29.7690348 383.070715,30.0222513 383.119594,30.3522528 L383.127015,30.4533804 L383.127015,33.8751083 C383.127015,34.2530619 382.820623,34.5594539 382.442669,34.5594539 C382.099075,34.5594539 381.814622,34.3062374 381.765743,33.9762359 L381.758323,33.8751083 L381.758323,30.4533804 C381.758323,30.0754268 382.064715,29.7690348 382.442669,29.7690348 Z M382.442669,22.925579 C382.786263,22.925579 383.070715,23.1787955 383.119594,23.508797 L383.127015,23.6099246 L383.127015,27.0316525 C383.127015,27.4096062 382.820623,27.7159981 382.442669,27.7159981 C382.099075,27.7159981 381.814622,27.4627816 381.765743,27.1327801 L381.758323,27.0316525 L381.758323,23.6099246 C381.758323,23.231971 382.064715,22.925579 382.442669,22.925579 Z M382.442669,16.0821232 C382.786263,16.0821232 383.070715,16.3353397 383.119594,16.6653413 L383.127015,16.7664688 L383.127015,20.1881967 C383.127015,20.5661504 382.820623,20.8725423 382.442669,20.8725423 C382.099075,20.8725423 381.814622,20.6193258 381.765743,20.2893243 L381.758323,20.1881967 L381.758323,16.7664688 C381.758323,16.3885152 382.064715,16.0821232 382.442669,16.0821232 Z M382.442669,9.23866745 C382.786263,9.23866745 383.070715,9.49188394 383.119594,9.82188547 L383.127015,9.92301304 L383.127015,13.3447409 C383.127015,13.7226946 382.820623,14.0290865 382.442669,14.0290865 C382.099075,14.0290865 381.814622,13.77587 381.765743,13.4458685 L381.758323,13.3447409 L381.758323,9.92301304 C381.758323,9.54505941 382.064715,9.23866745 382.442669,9.23866745 Z M382.442669,2.39521166 C382.786263,2.39521166 383.070715,2.64842815 383.119594,2.97842968 L383.127015,3.07955725 L383.127015,6.50128515 C383.127015,6.87923878 382.820623,7.18563074 382.442669,7.18563074 C382.099075,7.18563074 381.814622,6.93241425 381.765743,6.60241272 L381.758323,6.50128515 L381.758323,3.07955725 C381.758323,2.70160362 382.064715,2.39521166 382.442669,2.39521166 Z M382.100498,-0.684345595 C382.478452,-0.684345595 382.784844,-0.377953635 382.784844,0 C382.784844,0.343594214 382.531627,0.628046547 382.201626,0.676925531 L382.100498,0.684345595 L378.67877,0.684345595 C378.300817,0.684345595 377.994425,0.377953635 377.994425,0 C377.994425,-0.343594214 378.247641,-0.628046547 378.577643,-0.676925531 L378.67877,-0.684345595 L382.100498,-0.684345595 Z M375.257043,-0.684345595 C375.634996,-0.684345595 375.941388,-0.377953635 375.941388,0 C375.941388,0.343594214 375.688172,0.628046547 375.35817,0.676925531 L375.257043,0.684345595 L371.835315,0.684345595 C371.457361,0.684345595 371.150969,0.377953635 371.150969,0 C371.150969,-0.343594214 371.404186,-0.628046547 371.734187,-0.676925531 L371.835315,-0.684345595 L375.257043,-0.684345595 Z M368.413587,-0.684345595 C368.79154,-0.684345595 369.097932,-0.377953635 369.097932,0 C369.097932,0.343594214 368.844716,0.628046547 368.514714,0.676925531 L368.413587,0.684345595 L364.991859,0.684345595 C364.613905,0.684345595 364.307513,0.377953635 364.307513,0 C364.307513,-0.343594214 364.56073,-0.628046547 364.890731,-0.676925531 L364.991859,-0.684345595 L368.413587,-0.684345595 Z M361.570131,-0.684345595 C361.948085,-0.684345595 362.254477,-0.377953635 362.254477,0 C362.254477,0.343594214 362.00126,0.628046547 361.671259,0.676925531 L361.570131,0.684345595 L358.148403,0.684345595 C357.770449,0.684345595 357.464057,0.377953635 357.464057,0 C357.464057,-0.343594214 357.717274,-0.628046547 358.047275,-0.676925531 L358.148403,-0.684345595 L361.570131,-0.684345595 Z M354.726675,-0.684345595 C355.104629,-0.684345595 355.411021,-0.377953635 355.411021,0 C355.411021,0.343594214 355.157804,0.628046547 354.827803,0.676925531 L354.726675,0.684345595 L351.304947,0.684345595 C350.926994,0.684345595 350.620602,0.377953635 350.620602,0 C350.620602,-0.343594214 350.873818,-0.628046547 351.20382,-0.676925531 L351.304947,-0.684345595 L354.726675,-0.684345595 Z M347.883219,-0.684345595 C348.261173,-0.684345595 348.567565,-0.377953635 348.567565,0 C348.567565,0.343594214 348.314348,0.628046547 347.984347,0.676925531 L347.883219,0.684345595 L344.461491,0.684345595 C344.083538,0.684345595 343.777146,0.377953635 343.777146,0 C343.777146,-0.343594214 344.030362,-0.628046547 344.360364,-0.676925531 L344.461491,-0.684345595 L347.883219,-0.684345595 Z M341.039764,-0.684345595 C341.417717,-0.684345595 341.724109,-0.377953635 341.724109,0 C341.724109,0.343594214 341.470893,0.628046547 341.140891,0.676925531 L341.039764,0.684345595 L337.618036,0.684345595 C337.240082,0.684345595 336.93369,0.377953635 336.93369,0 C336.93369,-0.343594214 337.186907,-0.628046547 337.516908,-0.676925531 L337.618036,-0.684345595 L341.039764,-0.684345595 Z M334.196308,-0.684345595 C334.574261,-0.684345595 334.880653,-0.377953635 334.880653,0 C334.880653,0.343594214 334.627437,0.628046547 334.297435,0.676925531 L334.196308,0.684345595 L330.77458,0.684345595 C330.396626,0.684345595 330.090234,0.377953635 330.090234,0 C330.090234,-0.343594214 330.343451,-0.628046547 330.673452,-0.676925531 L330.77458,-0.684345595 L334.196308,-0.684345595 Z M327.352852,-0.684345595 C327.730806,-0.684345595 328.037198,-0.377953635 328.037198,0 C328.037198,0.343594214 327.783981,0.628046547 327.45398,0.676925531 L327.352852,0.684345595 L323.931124,0.684345595 C323.55317,0.684345595 323.246778,0.377953635 323.246778,0 C323.246778,-0.343594214 323.499995,-0.628046547 323.829996,-0.676925531 L323.931124,-0.684345595 L327.352852,-0.684345595 Z M320.509396,-0.684345595 C320.88735,-0.684345595 321.193742,-0.377953635 321.193742,0 C321.193742,0.343594214 320.940525,0.628046547 320.610524,0.676925531 L320.509396,0.684345595 L317.087668,0.684345595 C316.709715,0.684345595 316.403323,0.377953635 316.403323,0 C316.403323,-0.343594214 316.656539,-0.628046547 316.986541,-0.676925531 L317.087668,-0.684345595 L320.509396,-0.684345595 Z M313.66594,-0.684345595 C314.043894,-0.684345595 314.350286,-0.377953635 314.350286,0 C314.350286,0.343594214 314.097069,0.628046547 313.767068,0.676925531 L313.66594,0.684345595 L310.244212,0.684345595 C309.866259,0.684345595 309.559867,0.377953635 309.559867,0 C309.559867,-0.343594214 309.813083,-0.628046547 310.143085,-0.676925531 L310.244212,-0.684345595 L313.66594,-0.684345595 Z M306.822485,-0.684345595 C307.200438,-0.684345595 307.50683,-0.377953635 307.50683,0 C307.50683,0.343594214 307.253614,0.628046547 306.923612,0.676925531 L306.822485,0.684345595 L303.400757,0.684345595 C303.022803,0.684345595 302.716411,0.377953635 302.716411,0 C302.716411,-0.343594214 302.969628,-0.628046547 303.299629,-0.676925531 L303.400757,-0.684345595 L306.822485,-0.684345595 Z M299.979029,-0.684345595 C300.356982,-0.684345595 300.663374,-0.377953635 300.663374,0 C300.663374,0.343594214 300.410158,0.628046547 300.080156,0.676925531 L299.979029,0.684345595 L296.557301,0.684345595 C296.179347,0.684345595 295.872955,0.377953635 295.872955,0 C295.872955,-0.343594214 296.126172,-0.628046547 296.456173,-0.676925531 L296.557301,-0.684345595 L299.979029,-0.684345595 Z M293.135573,-0.684345595 C293.513527,-0.684345595 293.819919,-0.377953635 293.819919,0 C293.819919,0.343594214 293.566702,0.628046547 293.236701,0.676925531 L293.135573,0.684345595 L289.713845,0.684345595 C289.335891,0.684345595 289.0295,0.377953635 289.0295,0 C289.0295,-0.343594214 289.282716,-0.628046547 289.612718,-0.676925531 L289.713845,-0.684345595 L293.135573,-0.684345595 Z M286.292117,-0.684345595 C286.670071,-0.684345595 286.976463,-0.377953635 286.976463,0 C286.976463,0.343594214 286.723246,0.628046547 286.393245,0.676925531 L286.292117,0.684345595 L282.870389,0.684345595 C282.492436,0.684345595 282.186044,0.377953635 282.186044,0 C282.186044,-0.343594214 282.43926,-0.628046547 282.769262,-0.676925531 L282.870389,-0.684345595 L286.292117,-0.684345595 Z M279.448661,-0.684345595 C279.826615,-0.684345595 280.133007,-0.377953635 280.133007,0 C280.133007,0.343594214 279.879791,0.628046547 279.549789,0.676925531 L279.448661,0.684345595 L276.026934,0.684345595 C275.64898,0.684345595 275.342588,0.377953635 275.342588,0 C275.342588,-0.343594214 275.595804,-0.628046547 275.925806,-0.676925531 L276.026934,-0.684345595 L279.448661,-0.684345595 Z M272.605206,-0.684345595 C272.983159,-0.684345595 273.289551,-0.377953635 273.289551,0 C273.289551,0.343594214 273.036335,0.628046547 272.706333,0.676925531 L272.605206,0.684345595 L269.183478,0.684345595 C268.805524,0.684345595 268.499132,0.377953635 268.499132,0 C268.499132,-0.343594214 268.752349,-0.628046547 269.08235,-0.676925531 L269.183478,-0.684345595 L272.605206,-0.684345595 Z M265.76175,-0.684345595 C266.139703,-0.684345595 266.446095,-0.377953635 266.446095,0 C266.446095,0.343594214 266.192879,0.628046547 265.862877,0.676925531 L265.76175,0.684345595 L262.340022,0.684345595 C261.962068,0.684345595 261.655676,0.377953635 261.655676,0 C261.655676,-0.343594214 261.908893,-0.628046547 262.238894,-0.676925531 L262.340022,-0.684345595 L265.76175,-0.684345595 Z M258.918294,-0.684345595 C259.296248,-0.684345595 259.60264,-0.377953635 259.60264,0 C259.60264,0.343594214 259.349423,0.628046547 259.019422,0.676925531 L258.918294,0.684345595 L255.496566,0.684345595 C255.118613,0.684345595 254.812221,0.377953635 254.812221,0 C254.812221,-0.343594214 255.065437,-0.628046547 255.395439,-0.676925531 L255.496566,-0.684345595 L258.918294,-0.684345595 Z M252.074838,-0.684345595 C252.452792,-0.684345595 252.759184,-0.377953635 252.759184,0 C252.759184,0.343594214 252.505967,0.628046547 252.175966,0.676925531 L252.074838,0.684345595 L248.65311,0.684345595 C248.275157,0.684345595 247.968765,0.377953635 247.968765,0 C247.968765,-0.343594214 248.221981,-0.628046547 248.551983,-0.676925531 L248.65311,-0.684345595 L252.074838,-0.684345595 Z M245.231382,-0.684345595 C245.609336,-0.684345595 245.915728,-0.377953635 245.915728,0 C245.915728,0.343594214 245.662512,0.628046547 245.33251,0.676925531 L245.231382,0.684345595 L241.809655,0.684345595 C241.431701,0.684345595 241.125309,0.377953635 241.125309,0 C241.125309,-0.343594214 241.378525,-0.628046547 241.708527,-0.676925531 L241.809655,-0.684345595 L245.231382,-0.684345595 Z M238.387927,-0.684345595 C238.76588,-0.684345595 239.072272,-0.377953635 239.072272,0 C239.072272,0.343594214 238.819056,0.628046547 238.489054,0.676925531 L238.387927,0.684345595 L234.966199,0.684345595 C234.588245,0.684345595 234.281853,0.377953635 234.281853,0 C234.281853,-0.343594214 234.53507,-0.628046547 234.865071,-0.676925531 L234.966199,-0.684345595 L238.387927,-0.684345595 Z M231.544471,-0.684345595 C231.922425,-0.684345595 232.228816,-0.377953635 232.228816,0 C232.228816,0.343594214 231.9756,0.628046547 231.645598,0.676925531 L231.544471,0.684345595 L228.122743,0.684345595 C227.744789,0.684345595 227.438397,0.377953635 227.438397,0 C227.438397,-0.343594214 227.691614,-0.628046547 228.021615,-0.676925531 L228.122743,-0.684345595 L231.544471,-0.684345595 Z M224.701015,-0.684345595 C225.078969,-0.684345595 225.385361,-0.377953635 225.385361,0 C225.385361,0.343594214 225.132144,0.628046547 224.802143,0.676925531 L224.701015,0.684345595 L221.279287,0.684345595 C220.901334,0.684345595 220.594942,0.377953635 220.594942,0 C220.594942,-0.343594214 220.848158,-0.628046547 221.17816,-0.676925531 L221.279287,-0.684345595 L224.701015,-0.684345595 Z M217.857559,-0.684345595 C218.235513,-0.684345595 218.541905,-0.377953635 218.541905,0 C218.541905,0.343594214 218.288688,0.628046547 217.958687,0.676925531 L217.857559,0.684345595 L214.435831,0.684345595 C214.057878,0.684345595 213.751486,0.377953635 213.751486,0 C213.751486,-0.343594214 214.004702,-0.628046547 214.334704,-0.676925531 L214.435831,-0.684345595 L217.857559,-0.684345595 Z"></path>
                <path id="Path" d="M537.354876,6.95064617 L537.445672,6.99578962 L546.445672,12.3253448 C546.861236,12.5714303 546.890919,13.1474493 546.534721,13.4406681 L546.445672,13.503035 L537.445672,18.8325902 C537.120462,19.0251708 536.700709,18.9176533 536.508129,18.5924431 C536.333056,18.2967975 536.405997,17.9230179 536.665041,17.7128126 L536.748276,17.6549 L543.598,13.598 L483.861,13.598 L483.861591,129.231548 C483.861591,129.57942 483.602111,129.866397 483.266561,129.910125 L483.173299,129.915883 L442.878688,129.683479 C442.50074,129.681299 442.196121,129.373145 442.198301,128.995198 C442.200282,128.651609 442.455135,128.368622 442.785413,128.321647 L442.886582,128.31481 L482.492,128.543 L482.4929,12.9141899 C482.4929,12.5705957 482.746116,12.2861434 483.076118,12.2372644 L483.177246,12.2298443 L543.596,12.229 L536.748276,8.17347984 C536.45263,7.99840655 536.336896,7.63558801 536.462985,7.32673267 L536.508129,7.23593668 C536.683202,6.94029107 537.046021,6.82455676 537.354876,6.95064617 Z"></path>
                <path id="Path" d="M483.370094,128.425834 C483.713688,128.425834 483.998141,128.679051 484.04702,129.009052 L484.05444,129.11018 L484.054,241.662 L543.598,241.662 L536.748276,237.605979 C536.45263,237.430906 536.336896,237.068088 536.462985,236.759232 L536.508129,236.668436 C536.683202,236.372791 537.046021,236.257056 537.354876,236.383146 L537.445672,236.428289 L546.445672,241.757844 C546.861236,242.00393 546.890919,242.579949 546.534721,242.873168 L546.445672,242.935535 L537.445672,248.26509 C537.120462,248.45767 536.700709,248.350153 536.508129,248.024943 C536.333056,247.729297 536.405997,247.355517 536.665041,247.145312 L536.748276,247.0874 L543.596,243.031 L483.370094,243.031035 C483.0265,243.031035 482.742048,242.777819 482.693169,242.447817 L482.685749,242.346689 L482.685,129.794 L443.926,129.794 L443.90997,129.824986 C443.805364,129.985817 443.635005,130.099951 443.437004,130.129278 L443.335877,130.136698 C442.992283,130.136698 442.70783,129.883482 442.658951,129.55348 L442.651531,129.452352 L442.651531,129.11018 C442.651531,128.766585 442.904748,128.482133 443.234749,128.433254 L443.335877,128.425834 L483.370094,128.425834 Z"></path>
                <path id="Path" d="M537.354814,123.735327 L537.44561,123.780469 L546.445666,129.109931 C546.861232,129.356012 546.890921,129.932031 546.534727,130.225253 L546.445678,130.287621 L537.445734,135.61727 C537.120525,135.809854 536.700772,135.702341 536.508188,135.377132 C536.333112,135.081489 536.406049,134.707708 536.665091,134.4975 L536.748325,134.439587 L543.596,130.383 L537.096993,130.383219 L443.583343,130.384192 C443.20539,130.384196 442.898995,130.077807 442.898991,129.699853 C442.898987,129.356259 443.152201,129.071804 443.482202,129.022922 L443.583329,129.0155 L537.096978,129.014527 L543.598,129.014 L536.748227,124.958167 C536.452579,124.783096 536.336841,124.420279 536.462927,124.111422 L536.50807,124.020626 C536.68314,123.724979 537.045957,123.60924 537.354814,123.735327 Z"></path>
            </g>
            <g id="Scene" filter="url(#filter-1)" transform="translate(0.000000, 64.328486)">
                <g id="Graphic_15">
                    <path d="M1.36869119,0.342172797 L125.577417,0.342172797 C126.333345,0.342172797 126.946108,0.954935843 126.946108,1.71086399 L126.946108,59.8802395 C126.946108,60.6361677 126.333345,61.2489307 125.577417,61.2489307 L1.36869119,61.2489307 C0.612763045,61.2489307 0,60.6361677 0,59.8802395 L0,1.71086399 C0,0.954935843 0.612763045,0.342172797 1.36869119,0.342172797 Z" id="Path" fill="#F6F8F7" fill-rule="nonzero"></path>
                    <path d="M1.36869119,0.342172797 L125.577417,0.342172797 C126.333345,0.342172797 126.946108,0.954935843 126.946108,1.71086399 L126.946108,59.8802395 C126.946108,60.6361677 126.333345,61.2489307 125.577417,61.2489307 L1.36869119,61.2489307 C0.612763045,61.2489307 0,60.6361677 0,59.8802395 L0,1.71086399 C0,0.954935843 0.612763045,0.342172797 1.36869119,0.342172797 Z" id="Path" stroke="#494949" stroke-width="1.36869119" stroke-linecap="round" stroke-linejoin="round"></path>
                </g>
                <g id="Graphic_14" transform="translate(0.000000, 20.530368)" stroke="#494949" stroke-linecap="round" stroke-linejoin="round" stroke-width="1.36869119">
                    <path d="M1.36869119,0.114080411 L125.577417,0.114080411 C126.333345,0.114080411 126.946108,0.726843456 126.946108,1.4827716 L126.946108,39.3498717 C126.946108,40.1057998 126.333345,40.7185629 125.577417,40.7185629 L1.36869119,40.7185629 C0.612763045,40.7185629 0,40.1057998 0,39.3498717 L0,1.4827716 C0,0.726843456 0.612763045,0.114080411 1.36869119,0.114080411 Z" id="Path"></path>
                </g>
                <g id="Graphic_13">
                    <path d="M1.36869119,0.342172797 L125.577417,0.342172797 C126.333345,0.342172797 126.946108,0.954935843 126.946108,1.71086399 L126.946108,19.2757571 C126.946108,20.0316168 126.333345,20.6444482 125.577417,20.6444482 L1.36869119,20.6444482 C0.612763045,20.6444482 0,20.0316168 0,19.2757571 L0,1.71086399 C0,0.954935843 0.612763045,0.342172797 1.36869119,0.342172797 Z" id="Path" stroke="#494949" stroke-width="1.36869119" stroke-linecap="round" stroke-linejoin="round"></path>
                    <g id="Group" transform="translate(52.010265, 4.489170)" fill="#494949" fill-rule="nonzero" font-family="PTSans-Bold, PT Sans" font-size="8.89649273" font-weight="bold">
                        <text id="Scene">
                            <tspan x="0.311035073" y="8">Scene</tspan>
                        </text>
                    </g>
                </g>
            </g>
            <g id="Camera" filter="url(#filter-2)" transform="translate(212.831480, 0.000000)">
                <g id="Graphic_19">
                    <path d="M1.71086399,0 L125.919589,0 C126.675518,0 127.288281,0.612763045 127.288281,1.36869119 L127.288281,59.5380667 C127.288281,60.2939949 126.675518,60.9067579 125.919589,60.9067579 L1.71086399,60.9067579 C0.954935843,60.9067579 0.342172797,60.2939949 0.342172797,59.5380667 L0.342172797,1.36869119 C0.342172797,0.612763045 0.954935843,0 1.71086399,0 Z" id="Path" fill="#F6F8F7" fill-rule="nonzero"></path>
                    <path d="M1.71086399,0 L125.919589,0 C126.675518,0 127.288281,0.612763045 127.288281,1.36869119 L127.288281,59.5380667 C127.288281,60.2939949 126.675518,60.9067579 125.919589,60.9067579 L1.71086399,60.9067579 C0.954935843,60.9067579 0.342172797,60.2939949 0.342172797,59.5380667 L0.342172797,1.36869119 C0.342172797,0.612763045 0.954935843,0 1.71086399,0 Z" id="Path" stroke="#494949" stroke-width="1.36869119" stroke-linecap="round" stroke-linejoin="round"></path>
                </g>
                <g id="Graphic_18" transform="translate(0.000000, 19.846022)" stroke="#494949" stroke-linecap="round" stroke-linejoin="round" stroke-width="1.36869119">
                    <path d="M1.71086399,0.456253208 L125.919589,0.456253208 C126.675518,0.456253208 127.288281,1.06901625 127.288281,1.8249444 L127.288281,39.6920445 C127.288281,40.4479726 126.675518,41.0607357 125.919589,41.0607357 L1.71086399,41.0607357 C0.954935843,41.0607357 0.342172797,40.4479726 0.342172797,39.6920445 L0.342172797,1.8249444 C0.342172797,1.06901625 0.954935843,0.456253208 1.71086399,0.456253208 Z" id="Path"></path>
                </g>
                <g id="Graphic_17">
                    <path d="M1.71086399,0 L125.919589,0 C126.675518,0 127.288281,0.612763045 127.288281,1.36869119 L127.288281,18.9335843 C127.288281,19.6894713 126.675518,20.3022754 125.919589,20.3022754 L1.71086399,20.3022754 C0.954935843,20.3022754 0.342172797,19.6894713 0.342172797,18.9335843 L0.342172797,1.36869119 C0.342172797,0.612763045 0.954935843,0 1.71086399,0 Z" id="Path" stroke="#494949" stroke-width="1.36869119" stroke-linecap="round" stroke-linejoin="round"></path>
                    <g id="Group" transform="translate(48.930710, 4.146997)" fill="#494949" fill-rule="nonzero" font-family="PTSans-Bold, PT Sans" font-size="8.89649273" font-weight="bold">
                        <text id="Camera">
                            <tspan x="0.632335329" y="8">Camera</tspan>
                        </text>
                    </g>
                </g>
            </g>
            <g id="World" filter="url(#filter-3)" transform="translate(212.831480, 127.288281)">
                <g id="Graphic_23">
                    <path d="M1.71086399,0 L125.919589,0 C126.675518,0 127.288281,0.612763045 127.288281,1.36869119 L127.288281,59.5380667 C127.288281,60.2939949 126.675518,60.9067579 125.919589,60.9067579 L1.71086399,60.9067579 C0.954935843,60.9067579 0.342172797,60.2939949 0.342172797,59.5380667 L0.342172797,1.36869119 C0.342172797,0.612763045 0.954935843,0 1.71086399,0 Z" id="Path" fill="#F6F8F7" fill-rule="nonzero"></path>
                    <path d="M1.71086399,0 L125.919589,0 C126.675518,0 127.288281,0.612763045 127.288281,1.36869119 L127.288281,59.5380667 C127.288281,60.2939949 126.675518,60.9067579 125.919589,60.9067579 L1.71086399,60.9067579 C0.954935843,60.9067579 0.342172797,60.2939949 0.342172797,59.5380667 L0.342172797,1.36869119 C0.342172797,0.612763045 0.954935843,0 1.71086399,0 Z" id="Path" stroke="#494949" stroke-width="1.36869119" stroke-linecap="round" stroke-linejoin="round"></path>
                </g>
                <g id="Graphic_22" transform="translate(0.000000, 19.846022)" stroke="#494949" stroke-linecap="round" stroke-linejoin="round" stroke-width="1.36869119">
                    <path d="M1.71086399,0.456253208 L125.919589,0.456253208 C126.675518,0.456253208 127.288281,1.06901625 127.288281,1.8249444 L127.288281,39.6920445 C127.288281,40.4479726 126.675518,41.0607357 125.919589,41.0607357 L1.71086399,41.0607357 C0.954935843,41.0607357 0.342172797,40.4479726 0.342172797,39.6920445 L0.342172797,1.8249444 C0.342172797,1.06901625 0.954935843,0.456253208 1.71086399,0.456253208 Z" id="Path"></path>
                </g>
                <g id="Graphic_21">
                    <path d="M1.71086399,0 L125.919589,0 C126.675518,0 127.288281,0.612763045 127.288281,1.36869119 L127.288281,18.9335843 C127.288281,19.689444 126.675518,20.3022754 125.919589,20.3022754 L1.71086399,20.3022754 C0.954935843,20.3022754 0.342172797,19.689444 0.342172797,18.9335843 L0.342172797,1.36869119 C0.342172797,0.612763045 0.954935843,0 1.71086399,0 Z" id="Path" stroke="#494949" stroke-width="1.36869119" stroke-linecap="round" stroke-linejoin="round"></path>
                    <g id="Group" transform="translate(52.352438, 4.146997)" fill="#494949" fill-rule="nonzero" font-family="PTSans-Bold, PT Sans" font-size="8.89649273" font-weight="bold">
                        <text id="World">
                            <tspan x="0.208725406" y="8">World</tspan>
                        </text>
                    </g>
                </g>
            </g>
            <g id="Tilemap" filter="url(#filter-4)" transform="translate(442.771600, 127.288281)">
                <g id="Graphic_27">
                    <path d="M1.71086399,0 L125.919589,0 C126.675518,0 127.288281,0.612763045 127.288281,1.36869119 L127.288281,59.5380667 C127.288281,60.2939949 126.675518,60.9067579 125.919589,60.9067579 L1.71086399,60.9067579 C0.954935843,60.9067579 0.342172797,60.2939949 0.342172797,59.5380667 L0.342172797,1.36869119 C0.342172797,0.612763045 0.954935843,0 1.71086399,0 Z" id="Path" fill="#F6F8F7" fill-rule="nonzero"></path>
                    <path d="M1.71086399,0 L125.919589,0 C126.675518,0 127.288281,0.612763045 127.288281,1.36869119 L127.288281,59.5380667 C127.288281,60.2939949 126.675518,60.9067579 125.919589,60.9067579 L1.71086399,60.9067579 C0.954935843,60.9067579 0.342172797,60.2939949 0.342172797,59.5380667 L0.342172797,1.36869119 C0.342172797,0.612763045 0.954935843,0 1.71086399,0 Z" id="Path" stroke="#494949" stroke-width="1.36869119" stroke-linecap="round" stroke-linejoin="round"></path>
                </g>
                <g id="Graphic_26" transform="translate(0.000000, 19.846022)" stroke="#494949" stroke-linecap="round" stroke-linejoin="round" stroke-width="1.36869119">
                    <path d="M1.71086399,0.456253208 L125.919589,0.456253208 C126.675518,0.456253208 127.288281,1.06901625 127.288281,1.8249444 L127.288281,39.6920445 C127.288281,40.4479726 126.675518,41.0607357 125.919589,41.0607357 L1.71086399,41.0607357 C0.954935843,41.0607357 0.342172797,40.4479726 0.342172797,39.6920445 L0.342172797,1.8249444 C0.342172797,1.06901625 0.954935843,0.456253208 1.71086399,0.456253208 Z" id="Path"></path>
                </g>
                <g id="Graphic_25">
                    <path d="M1.71086399,0 L125.919589,0 C126.675518,0 127.288281,0.612763045 127.288281,1.36869119 L127.288281,18.9335843 C127.288281,19.689444 126.675518,20.3022754 125.919589,20.3022754 L1.71086399,20.3022754 C0.954935843,20.3022754 0.342172797,19.689444 0.342172797,18.9335843 L0.342172797,1.36869119 C0.342172797,0.612763045 0.954935843,0 1.71086399,0 Z" id="Path" stroke="#494949" stroke-width="1.36869119" stroke-linecap="round" stroke-linejoin="round"></path>
                    <g id="Group" transform="translate(48.246364, 4.146997)" fill="#494949" fill-rule="nonzero" font-family="PTSans-Bold, PT Sans" font-size="8.89649273" font-weight="bold">
                        <text id="Tilemap">
                            <tspan x="0.0889649273" y="8">Tilemap</tspan>
                        </text>
                    </g>
                </g>
            </g>
            <g id="Layer-3" filter="url(#filter-5)" transform="translate(672.711719, 241.573995)">
                <g id="Graphic_43">
                    <path d="M1.71086399,0.430521814 L125.919589,0.430521814 C126.675518,0.430521814 127.288281,1.04335329 127.288281,1.799213 L127.288281,59.9685885 C127.288281,60.7245167 126.675518,61.3372797 125.919589,61.3372797 L1.71086399,61.3372797 C0.954935843,61.3372797 0.342172797,60.7245167 0.342172797,59.9685885 L0.342172797,1.799213 C0.342172797,1.04335329 0.954935843,0.430521814 1.71086399,0.430521814 Z" id="Path" fill="#F6F8F7" fill-rule="nonzero"></path>
                    <path d="M1.71086399,0.430521814 L125.919589,0.430521814 C126.675518,0.430521814 127.288281,1.04335329 127.288281,1.799213 L127.288281,59.9685885 C127.288281,60.7245167 126.675518,61.3372797 125.919589,61.3372797 L1.71086399,61.3372797 C0.954935843,61.3372797 0.342172797,60.7245167 0.342172797,59.9685885 L0.342172797,1.799213 C0.342172797,1.04335329 0.954935843,0.430521814 1.71086399,0.430521814 Z" id="Path" stroke="#494949" stroke-width="1.36869119" stroke-linecap="round" stroke-linejoin="round"></path>
                </g>
                <g id="Graphic_42" transform="translate(0.000000, 20.530368)" stroke="#494949" stroke-linecap="round" stroke-linejoin="round" stroke-width="1.36869119">
                    <path d="M1.71086399,0.202429427 L125.919589,0.202429427 C126.675518,0.202429427 127.288281,0.815192472 127.288281,1.57112062 L127.288281,39.4382207 C127.288281,40.1941488 126.675518,40.8069119 125.919589,40.8069119 L1.71086399,40.8069119 C0.954935843,40.8069119 0.342172797,40.1941488 0.342172797,39.4382207 L0.342172797,1.57112062 C0.342172797,0.815192472 0.954935843,0.202429427 1.71086399,0.202429427 Z" id="Path"></path>
                </g>
                <g id="Graphic_41">
                    <path d="M1.71086399,0.430521814 L125.919589,0.430521814 C126.675518,0.430521814 127.288281,1.04335329 127.288281,1.799213 L127.288281,19.3641061 C127.288281,20.1200342 126.675518,20.7327973 125.919589,20.7327973 L1.71086399,20.7327973 C0.954935843,20.7327973 0.342172797,20.1200342 0.342172797,19.3641061 L0.342172797,1.799213 C0.342172797,1.04335329 0.954935843,0.430521814 1.71086399,0.430521814 Z" id="Path" stroke="#494949" stroke-width="1.36869119" stroke-linecap="round" stroke-linejoin="round"></path>
                    <g id="Group" transform="translate(53.036784, 4.577588)" fill="#494949" fill-rule="nonzero" font-family="PTSans-Bold, PT Sans" font-size="8.89649273" font-weight="bold">
                        <text id="Layer">
                            <tspan x="0.369546621" y="8">Layer</tspan>
                        </text>
                    </g>
                </g>
            </g>
            <g id="Layer-2" filter="url(#filter-6)" transform="translate(672.711719, 125.919589)">
                <g id="Graphic_39">
                    <path d="M1.71086399,0.253823781 L125.919589,0.253823781 C126.675518,0.253823781 127.288281,0.866586826 127.288281,1.62251497 L127.288281,59.7918905 C127.288281,60.5477502 126.675518,61.1605817 125.919589,61.1605817 L1.71086399,61.1605817 C0.954935843,61.1605817 0.342172797,60.5477502 0.342172797,59.7918905 L0.342172797,1.62251497 C0.342172797,0.866586826 0.954935843,0.253823781 1.71086399,0.253823781 Z" id="Path" fill="#F6F8F7" fill-rule="nonzero"></path>
                    <path d="M1.71086399,0.253823781 L125.919589,0.253823781 C126.675518,0.253823781 127.288281,0.866586826 127.288281,1.62251497 L127.288281,59.7918905 C127.288281,60.5477502 126.675518,61.1605817 125.919589,61.1605817 L1.71086399,61.1605817 C0.954935843,61.1605817 0.342172797,60.5477502 0.342172797,59.7918905 L0.342172797,1.62251497 C0.342172797,0.866586826 0.954935843,0.253823781 1.71086399,0.253823781 Z" id="Path" stroke="#494949" stroke-width="1.36869119" stroke-linecap="round" stroke-linejoin="round"></path>
                </g>
                <g id="Graphic_38" transform="translate(0.000000, 20.530368)" stroke="#494949" stroke-linecap="round" stroke-linejoin="round" stroke-width="1.36869119">
                    <path d="M1.71086399,0.0256629598 L125.919589,0.0256629598 C126.675518,0.0256629598 127.288281,0.63849444 127.288281,1.39435415 L127.288281,39.2615227 C127.288281,40.0173824 126.675518,40.6302139 125.919589,40.6302139 L1.71086399,40.6302139 C0.954935843,40.6302139 0.342172797,40.0173824 0.342172797,39.2615227 L0.342172797,1.39435415 C0.342172797,0.63849444 0.954935843,0.0256629598 1.71086399,0.0256629598 Z" id="Path"></path>
                </g>
                <g id="Graphic_37">
                    <path d="M1.71086399,0.253823781 L125.919589,0.253823781 C126.675518,0.253823781 127.288281,0.866586826 127.288281,1.62251497 L127.288281,19.1873396 C127.288281,19.9432678 126.675518,20.5560308 125.919589,20.5560308 L1.71086399,20.5560308 C0.954935843,20.5560308 0.342172797,19.9432678 0.342172797,19.1873396 L0.342172797,1.62251497 C0.342172797,0.866586826 0.954935843,0.253823781 1.71086399,0.253823781 Z" id="Path" stroke="#494949" stroke-width="1.36869119" stroke-linecap="round" stroke-linejoin="round"></path>
                    <g id="Group" transform="translate(53.036784, 4.400821)" fill="#494949" fill-rule="nonzero" font-family="PTSans-Bold, PT Sans" font-size="8.89649273" font-weight="bold">
                        <text id="Layer">
                            <tspan x="0.369546621" y="8">Layer</tspan>
                        </text>
                    </g>
                </g>
            </g>
            <g id="Layer-1" filter="url(#filter-7)" transform="translate(672.711719, 12.318221)">
                <g id="Graphic_35">
                    <path d="M1.71086399,0.253796407 L125.919589,0.253796407 C126.675518,0.253796407 127.288281,0.866586826 127.288281,1.6224876 L127.288281,59.7918631 C127.288281,60.5477502 126.675518,61.1605543 125.919589,61.1605543 L1.71086399,61.1605543 C0.954935843,61.1605543 0.342172797,60.5477502 0.342172797,59.7918631 L0.342172797,1.6224876 C0.342172797,0.866586826 0.954935843,0.253796407 1.71086399,0.253796407 Z" id="Path" fill="#F6F8F7" fill-rule="nonzero"></path>
                    <path d="M1.71086399,0.253796407 L125.919589,0.253796407 C126.675518,0.253796407 127.288281,0.866586826 127.288281,1.6224876 L127.288281,59.7918631 C127.288281,60.5477502 126.675518,61.1605543 125.919589,61.1605543 L1.71086399,61.1605543 C0.954935843,61.1605543 0.342172797,60.5477502 0.342172797,59.7918631 L0.342172797,1.6224876 C0.342172797,0.866586826 0.954935843,0.253796407 1.71086399,0.253796407 Z" id="Path" stroke="#494949" stroke-width="1.36869119" stroke-linecap="round" stroke-linejoin="round"></path>
                </g>
                <g id="Graphic_34" transform="translate(0.000000, 20.530368)" stroke="#494949" stroke-linecap="round" stroke-linejoin="round" stroke-width="1.36869119">
                    <path d="M1.71086399,0.0256629598 L125.919589,0.0256629598 C126.675518,0.0256629598 127.288281,0.638467066 127.288281,1.39435415 L127.288281,39.2614953 C127.288281,40.0173824 126.675518,40.6301865 125.919589,40.6301865 L1.71086399,40.6301865 C0.954935843,40.6301865 0.342172797,40.0173824 0.342172797,39.2614953 L0.342172797,1.39435415 C0.342172797,0.638467066 0.954935843,0.0256629598 1.71086399,0.0256629598 Z" id="Path"></path>
                </g>
                <g id="Graphic_33">
                    <path d="M1.71086399,0.253796407 L125.919589,0.253796407 C126.675518,0.253796407 127.288281,0.866586826 127.288281,1.6224876 L127.288281,19.1873396 C127.288281,19.9432678 126.675518,20.5560308 125.919589,20.5560308 L1.71086399,20.5560308 C0.954935843,20.5560308 0.342172797,19.9432678 0.342172797,19.1873396 L0.342172797,1.6224876 C0.342172797,0.866586826 0.954935843,0.253796407 1.71086399,0.253796407 Z" id="Path" stroke="#494949" stroke-width="1.36869119" stroke-linecap="round" stroke-linejoin="round"></path>
                    <g id="Group" transform="translate(53.036784, 4.400821)" fill="#494949" fill-rule="nonzero" font-family="PTSans-Bold, PT Sans" font-size="8.89649273" font-weight="bold">
                        <text id="Layer">
                            <tspan x="0.369546621" y="8">Layer</tspan>
                        </text>
                    </g>
                </g>
            </g>
        </g>
    </g>
</svg>