<?xml version="1.0" encoding="UTF-8"?>
<svg width="714px" height="141px" viewBox="0 0 714 141" version="1.1" xmlns="http://www.w3.org/2000/svg" xmlns:xlink="http://www.w3.org/1999/xlink">
    <title>tilemap-orientations</title>
    <g id="tilemap-orientations" stroke="none" stroke-width="1" fill="none" fill-rule="evenodd">
        <g id="Group" transform="translate(10.000000, 11.000000)" stroke="#FF0F0F" stroke-dasharray="4,2">
            <g>
                <path d="M4,4 L100,4 L100,100 L4,100 L4,4 Z" id="Frame"></path>
                <g id="Vert" transform="translate(19.913096, 4.000000)">
                    <line x1="0.5" y1="0" x2="0.5" y2="96" id="VLine0"></line>
                    <line x1="16.5" y1="0" x2="16.5" y2="96" id="VLine1"></line>
                    <line x1="32.5" y1="0" x2="32.5" y2="96" id="VLine2"></line>
                    <line x1="48.5" y1="0" x2="48.5" y2="96" id="VLine3"></line>
                    <line x1="64.5" y1="0" x2="64.5" y2="96" id="VLine4"></line>
                </g>
                <g id="Horiz" transform="translate(52.413096, 52.000000) rotate(90.000000) translate(-52.413096, -52.000000) translate(19.913096, 4.000000)">
                    <line x1="0.5" y1="0" x2="0.5" y2="96" id="HLine0"></line>
                    <line x1="16.5" y1="0" x2="16.5" y2="96" id="HLine1"></line>
                    <line x1="32.5" y1="0" x2="32.5" y2="96" id="HLine2"></line>
                    <line x1="48.5" y1="0" x2="48.5" y2="96" id="HLine3"></line>
                    <line x1="64.5" y1="0" x2="64.5" y2="96" id="HLine4"></line>
                </g>
            </g>
        </g>
        <g id="Group" transform="translate(126.000000, 11.000000)" stroke="#FF0F0F" stroke-dasharray="4,2">
            <g>
                <g id="Lines" transform="translate(21.669933, 11.805826)">
                    <line x1="64.1895844" y1="-7.12086018e-15" x2="159.330067" y2="47.1827175" id="VLine0"></line>
                    <line x1="49.1895844" y1="8" x2="144.330067" y2="55.1827175" id="VLine1"></line>
                    <line x1="33.1895844" y1="16" x2="128.330067" y2="63.1827175" id="VLine2"></line>
                    <line x1="16.1895844" y1="24" x2="111.330067" y2="71.1827175" id="VLine3"></line>
                    <line x1="0.189584353" y1="32" x2="95.3300672" y2="79.1827175" id="VLine4"></line>
                    <line x1="-2.84217094e-14" y1="47.1827175" x2="95.5676914" y2="0" id="HLine0"></line>
                    <line x1="16" y1="55.1827175" x2="111.567691" y2="8" id="HLine1"></line>
                    <line x1="32" y1="63.1827175" x2="127.567691" y2="16" id="HLine2"></line>
                    <line x1="48" y1="71.1827175" x2="143.567691" y2="24" id="HLine3"></line>
                    <line x1="64" y1="79.1827175" x2="159.567691" y2="32" id="HLine4"></line>
                </g>
                <path d="M102,3.25016022 L198,51.2501602 L102,99.2501602 L6,51.2501602 L102,3.25016022 Z" id="Frame"></path>
            </g>
        </g>
        <g id="Group" transform="translate(341.000000, 19.000000)" stroke="#FF0F0F" stroke-dasharray="4,2">
            <g>
                <g id="Row-0" transform="translate(12.000000, 14.250160)">
                    <path d="M16,0 L32,8 L16,16 L0,8 L16,0 Z" id="staggered-tile-0"></path>
                    <path d="M48,0 L64,8 L48,16 L32,8 L48,0 Z" id="staggered-tile-1"></path>
                    <path d="M80,0 L96,8 L80,16 L64,8 L80,0 Z" id="staggered-tile-2"></path>
                    <path d="M144,0 L160,8 L144,16 L128,8 L144,0 Z" id="staggered-tile-3"></path>
                    <path d="M112,0 L128,8 L112,16 L96,8 L112,0 Z" id="staggered-tile-4"></path>
                    <path d="M176,0 L192,8 L176,16 L160,8 L176,0 Z" id="staggered-tile-5"></path>
                </g>
                <g id="Row-1" transform="translate(12.000000, 30.250160)">
                    <path d="M16,0 L32,8 L16,16 L0,8 L16,0 Z" id="staggered-tile-0"></path>
                    <path d="M48,0 L64,8 L48,16 L32,8 L48,0 Z" id="staggered-tile-1"></path>
                    <path d="M80,0 L96,8 L80,16 L64,8 L80,0 Z" id="staggered-tile-2"></path>
                    <path d="M144,0 L160,8 L144,16 L128,8 L144,0 Z" id="staggered-tile-3"></path>
                    <path d="M112,0 L128,8 L112,16 L96,8 L112,0 Z" id="staggered-tile-4"></path>
                    <path d="M176,0 L192,8 L176,16 L160,8 L176,0 Z" id="staggered-tile-5"></path>
                </g>
                <g id="Row-2" transform="translate(12.000000, 46.250160)">
                    <path d="M16,0 L32,8 L16,16 L0,8 L16,0 Z" id="staggered-tile-0"></path>
                    <path d="M48,0 L64,8 L48,16 L32,8 L48,0 Z" id="staggered-tile-1"></path>
                    <path d="M80,0 L96,8 L80,16 L64,8 L80,0 Z" id="staggered-tile-2"></path>
                    <path d="M144,0 L160,8 L144,16 L128,8 L144,0 Z" id="staggered-tile-3"></path>
                    <path d="M112,0 L128,8 L112,16 L96,8 L112,0 Z" id="staggered-tile-4"></path>
                    <path d="M176,0 L192,8 L176,16 L160,8 L176,0 Z" id="staggered-tile-5"></path>
                </g>
                <g id="Row-3" transform="translate(28.000000, 54.250160)">
                    <path d="M16,0 L32,8 L16,16 L0,8 L16,0 Z" id="staggered-tile-0"></path>
                    <path d="M48,0 L64,8 L48,16 L32,8 L48,0 Z" id="staggered-tile-1"></path>
                    <path d="M80,0 L96,8 L80,16 L64,8 L80,0 Z" id="staggered-tile-2"></path>
                    <path d="M144,0 L160,8 L144,16 L128,8 L144,0 Z" id="staggered-tile-3"></path>
                    <path d="M112,0 L128,8 L112,16 L96,8 L112,0 Z" id="staggered-tile-4"></path>
                    <path d="M176,0 L192,8 L176,16 L160,8 L176,0 Z" id="staggered-tile-5"></path>
                </g>
                <g id="Extra" transform="translate(188.000000, 22.250160)">
                    <path d="M16,0 L32,8 L16,16 L0,8 L16,0 Z" id="staggered-tile-0"></path>
                    <path d="M16,16 L32,24 L16,32 L0,24 L16,16 Z" id="staggered-tile-1"></path>
                </g>
            </g>
        </g>
        <g id="Group" transform="translate(590.000000, 19.000000)" stroke="#FF0F0F" stroke-dasharray="4,3">
            <g id="Hex-Grid" transform="translate(8.000000, 6.000000)">
                <g id="Row1">
                    <path d="M9,0 L16.7942286,4 L16.7942286,12 L9,16 L1.20577137,12 L1.20577137,4 L9,0 Z" id="Hex0"></path>
                    <path d="M24.5,0 L32.2942286,4 L32.2942286,12 L24.5,16 L16.7057714,12 L16.7057714,4 L24.5,0 Z" id="Hex1"></path>
                    <path d="M40,0 L47.7942286,4 L47.7942286,12 L40,16 L32.2057714,12 L32.2057714,4 L40,0 Z" id="Hex2"></path>
                    <path d="M55.5,0 L63.2942286,4 L63.2942286,12 L55.5,16 L47.7057714,12 L47.7057714,4 L55.5,0 Z" id="Hex3"></path>
                    <path d="M71,0 L78.7942286,4 L78.7942286,12 L71,16 L63.2057714,12 L63.2057714,4 L71,0 Z" id="Hex4"></path>
                    <path d="M86.5,0 L94.2942286,4 L94.2942286,12 L86.5,16 L78.7057714,12 L78.7057714,4 L86.5,0 Z" id="Hex5"></path>
                </g>
                <g id="Row2" transform="translate(8.000000, 12.000000)">
                    <path d="M9,0 L16.7942286,4 L16.7942286,12 L9,16 L1.20577137,12 L1.20577137,4 L9,0 Z" id="Hex0"></path>
                    <path d="M24.5,0 L32.2942286,4 L32.2942286,12 L24.5,16 L16.7057714,12 L16.7057714,4 L24.5,0 Z" id="Hex1"></path>
                    <path d="M40,0 L47.7942286,4 L47.7942286,12 L40,16 L32.2057714,12 L32.2057714,4 L40,0 Z" id="Hex2"></path>
                    <path d="M55.5,0 L63.2942286,4 L63.2942286,12 L55.5,16 L47.7057714,12 L47.7057714,4 L55.5,0 Z" id="Hex3"></path>
                    <path d="M71,0 L78.7942286,4 L78.7942286,12 L71,16 L63.2057714,12 L63.2057714,4 L71,0 Z" id="Hex4"></path>
                    <path d="M86.5,0 L94.2942286,4 L94.2942286,12 L86.5,16 L78.7057714,12 L78.7057714,4 L86.5,0 Z" id="Hex5"></path>
                </g>
                <g id="Row3" transform="translate(0.000000, 24.000000)">
                    <path d="M9,0 L16.7942286,4 L16.7942286,12 L9,16 L1.20577137,12 L1.20577137,4 L9,0 Z" id="Hex0"></path>
                    <path d="M24.5,0 L32.2942286,4 L32.2942286,12 L24.5,16 L16.7057714,12 L16.7057714,4 L24.5,0 Z" id="Hex1"></path>
                    <path d="M40,0 L47.7942286,4 L47.7942286,12 L40,16 L32.2057714,12 L32.2057714,4 L40,0 Z" id="Hex2"></path>
                    <path d="M55.5,0 L63.2942286,4 L63.2942286,12 L55.5,16 L47.7057714,12 L47.7057714,4 L55.5,0 Z" id="Hex3"></path>
                    <path d="M71,0 L78.7942286,4 L78.7942286,12 L71,16 L63.2057714,12 L63.2057714,4 L71,0 Z" id="Hex4"></path>
                    <path d="M86.5,0 L94.2942286,4 L94.2942286,12 L86.5,16 L78.7057714,12 L78.7057714,4 L86.5,0 Z" id="Hex5"></path>
                </g>
                <g id="Row4" transform="translate(8.000000, 36.000000)">
                    <path d="M9,0 L16.7942286,4 L16.7942286,12 L9,16 L1.20577137,12 L1.20577137,4 L9,0 Z" id="Hex0"></path>
                    <path d="M24.5,0 L32.2942286,4 L32.2942286,12 L24.5,16 L16.7057714,12 L16.7057714,4 L24.5,0 Z" id="Hex1"></path>
                    <path d="M40,0 L47.7942286,4 L47.7942286,12 L40,16 L32.2057714,12 L32.2057714,4 L40,0 Z" id="Hex2"></path>
                    <path d="M55.5,0 L63.2942286,4 L63.2942286,12 L55.5,16 L47.7057714,12 L47.7057714,4 L55.5,0 Z" id="Hex3"></path>
                    <path d="M71,0 L78.7942286,4 L78.7942286,12 L71,16 L63.2057714,12 L63.2057714,4 L71,0 Z" id="Hex4"></path>
                    <path d="M86.5,0 L94.2942286,4 L94.2942286,12 L86.5,16 L78.7057714,12 L78.7057714,4 L86.5,0 Z" id="Hex5"></path>
                </g>
                <g id="Row5" transform="translate(0.000000, 48.000000)">
                    <path d="M9,0 L16.7942286,4 L16.7942286,12 L9,16 L1.20577137,12 L1.20577137,4 L9,0 Z" id="Hex0"></path>
                    <path d="M24.5,0 L32.2942286,4 L32.2942286,12 L24.5,16 L16.7057714,12 L16.7057714,4 L24.5,0 Z" id="Hex1"></path>
                    <path d="M40,0 L47.7942286,4 L47.7942286,12 L40,16 L32.2057714,12 L32.2057714,4 L40,0 Z" id="Hex2"></path>
                    <path d="M55.5,0 L63.2942286,4 L63.2942286,12 L55.5,16 L47.7057714,12 L47.7057714,4 L55.5,0 Z" id="Hex3"></path>
                    <path d="M71,0 L78.7942286,4 L78.7942286,12 L71,16 L63.2057714,12 L63.2057714,4 L71,0 Z" id="Hex4"></path>
                    <path d="M86.5,0 L94.2942286,4 L94.2942286,12 L86.5,16 L78.7057714,12 L78.7057714,4 L86.5,0 Z" id="Hex5"></path>
                </g>
                <g id="Row6" transform="translate(8.000000, 60.000000)">
                    <path d="M9,0 L16.7942286,4 L16.7942286,12 L9,16 L1.20577137,12 L1.20577137,4 L9,0 Z" id="Hex0"></path>
                    <path d="M24.5,0 L32.2942286,4 L32.2942286,12 L24.5,16 L16.7057714,12 L16.7057714,4 L24.5,0 Z" id="Hex1"></path>
                    <path d="M40,0 L47.7942286,4 L47.7942286,12 L40,16 L32.2057714,12 L32.2057714,4 L40,0 Z" id="Hex2"></path>
                    <path d="M55.5,0 L63.2942286,4 L63.2942286,12 L55.5,16 L47.7057714,12 L47.7057714,4 L55.5,0 Z" id="Hex3"></path>
                    <path d="M71,0 L78.7942286,4 L78.7942286,12 L71,16 L63.2057714,12 L63.2057714,4 L71,0 Z" id="Hex4"></path>
                    <path d="M86.5,0 L94.2942286,4 L94.2942286,12 L86.5,16 L78.7057714,12 L78.7057714,4 L86.5,0 Z" id="Hex5"></path>
                </g>
            </g>
        </g>
        <text id="Orthogonal" font-family="SFCompact-Regular, SF Compact" font-size="9" font-weight="normal" fill="#5D5D5D">
            <tspan x="38.0114746" y="131">Orthogonal</tspan>
        </text>
        <text id="Isometric" font-family="SFCompact-Regular, SF Compact" font-size="9" font-weight="normal" fill="#5D5D5D">
            <tspan x="206.707275" y="131">Isometric</tspan>
        </text>
        <text id="Staggered" font-family="SFCompact-Regular, SF Compact" font-size="9" font-weight="normal" fill="#5D5D5D">
            <tspan x="436.986816" y="131">Staggered</tspan>
        </text>
        <text id="Hexagonal" font-family="SFCompact-Regular, SF Compact" font-size="9" font-weight="normal" fill="#5D5D5D">
            <tspan x="627.448486" y="131">Hexagonal</tspan>
        </text>
    </g>
</svg>